<svg width="264" height="264" viewBox="0 0 264 264" fill="none" xmlns="http://www.w3.org/2000/svg">
<g clip-path="url(#clip0_3249_49279)">
<rect x="99" y="82.5" width="16.5" height="16.5" fill="black"/>
<rect x="99" y="66" width="16.5" height="16.5" fill="black"/>
<rect x="99" y="49.5" width="16.5" height="16.5" fill="black"/>
<rect x="82.5" y="33" width="16.5" height="16.5" fill="black"/>
<rect x="99" y="214.5" width="16.5" height="16.5" fill="black"/>
<rect x="82.5" y="214.5" width="16.5" height="16.5" fill="black"/>
<rect x="115.5" y="99" width="16.5" height="16.5" fill="black"/>
<rect x="132" y="99" width="16.5" height="16.5" fill="black"/>
<rect x="148.5" y="82.5" width="16.5" height="16.5" fill="black"/>
<rect x="165" y="82.5" width="16.5" height="16.5" fill="black"/>
<rect x="165" y="66" width="16.5" height="16.5" fill="black"/>
<rect x="181.5" y="66" width="16.5" height="16.5" fill="black"/>
<rect x="181.5" y="49.5" width="16.5" height="16.5" fill="black"/>
<rect x="181.5" y="33" width="16.5" height="16.5" fill="black"/>
<rect x="132" y="33" width="16.5" height="16.5" fill="black"/>
<rect x="132" y="49.5" width="16.5" height="16.5" fill="black"/>
<rect x="132" y="66" width="16.5" height="16.5" fill="black"/>
<rect x="132" y="115.5" width="16.5" height="16.5" fill="black"/>
<rect x="148.5" y="99" width="16.5" height="16.5" fill="black"/>
<rect x="148.5" y="214.5" width="16.5" height="16.5" fill="black"/>
<rect x="148.5" y="231" width="16.5" height="16.5" fill="black"/>
<rect x="165" y="231" width="16.5" height="16.5" fill="black"/>
<rect x="165" y="214.5" width="16.5" height="16.5" fill="black"/>
<rect x="181.5" y="231" width="16.5" height="16.5" fill="black"/>
<rect x="198" y="231" width="16.5" height="16.5" fill="black"/>
<rect x="198" y="49.5" width="16.5" height="16.5" fill="black"/>
<rect x="198" y="33" width="16.5" height="16.5" fill="black"/>
<rect x="214.5" y="33" width="16.5" height="16.5" fill="black"/>
<rect x="115.5" y="33" width="16.5" height="16.5" fill="black"/>
<rect x="115.5" y="49.5" width="16.5" height="16.5" fill="black"/>
<rect x="115.5" y="66" width="16.5" height="16.5" fill="black"/>
<rect x="115.5" y="82.5" width="16.5" height="16.5" fill="black"/>
<rect x="132" y="82.5" width="16.5" height="16.5" fill="black"/>
<rect x="99" y="33" width="16.5" height="16.5" fill="black"/>
<rect x="49.5" y="231" width="16.5" height="16.5" fill="black"/>
<rect x="66" y="231" width="16.5" height="16.5" fill="black"/>
<rect x="82.5" y="231" width="16.5" height="16.5" fill="black"/>
<rect x="99" y="231" width="16.5" height="16.5" fill="black"/>
<rect x="115.5" y="231" width="16.5" height="16.5" fill="black"/>
<rect x="115.5" y="214.5" width="16.5" height="16.5" fill="black"/>
<rect x="115.5" y="198" width="16.5" height="16.5" fill="black"/>
<rect x="115.5" y="148.5" width="16.5" height="16.5" fill="black"/>
<rect x="115.5" y="132" width="16.5" height="16.5" fill="black"/>
<rect x="115.5" y="115.5" width="16.5" height="16.5" fill="black"/>
<rect x="132" y="165" width="16.5" height="16.5" fill="black"/>
<rect x="132" y="181.5" width="16.5" height="16.5" fill="black"/>
<rect x="132" y="214.5" width="16.5" height="16.5" fill="black"/>
<rect x="132" y="231" width="16.5" height="16.5" fill="black"/>
<rect x="33" y="33" width="16.5" height="16.5" fill="black"/>
<rect x="49.5" y="33" width="16.5" height="16.5" fill="black"/>
<rect x="49.5" y="49.5" width="16.5" height="16.5" fill="black"/>
<rect x="66" y="49.5" width="16.5" height="16.5" fill="black"/>
<rect x="82.5" y="49.5" width="16.5" height="16.5" fill="black"/>
<rect x="66" y="33" width="16.5" height="16.5" fill="black"/>
<rect x="148.5" y="49.5" width="16.5" height="16.5" fill="black"/>
<rect x="165" y="49.5" width="16.5" height="16.5" fill="black"/>
<rect x="66" y="66" width="16.5" height="16.5" fill="black"/>
<rect x="82.5" y="66" width="16.5" height="16.5" fill="black"/>
<rect x="148.5" y="66" width="16.5" height="16.5" fill="black"/>
<rect x="82.5" y="82.5" width="16.5" height="16.5" fill="black"/>
<rect x="99" y="99" width="16.5" height="16.5" fill="black"/>
<rect x="148.5" y="33" width="16.5" height="16.5" fill="black"/>
<rect x="165" y="33" width="16.5" height="16.5" fill="black"/>
</g>
<defs>
<clipPath id="clip0_3249_49279">
<rect width="264" height="264" fill="white"/>
</clipPath>
</defs>
</svg>
