<svg width="264" height="264" viewBox="0 0 264 264" fill="none" xmlns="http://www.w3.org/2000/svg">
<g clip-path="url(#clip0_274_930)">
<mask id="mask0_274_930" style="mask-type:luminance" maskUnits="userSpaceOnUse" x="0" y="0" width="264" height="264">
<path d="M264 0H0V264H264V0Z" fill="white"/>
</mask>
<g mask="url(#mask0_274_930)">
<path d="M132 214.5H181.5V231H214.5V247.5H49.5V231H82.5V214.5H115.5V198H132V214.5ZM148.5 198H132V165H148.5V198ZM231 33V49.5H214.5V66H198V82.5H181.5V99H165V115.5H148.5V132H132V165H115.5V115.5H99V99H82.5V82.5H66V66H49.5V49.5H33V33H231Z" fill="black"/>
</g>
</g>
<defs>
<clipPath id="clip0_274_930">
<rect width="264" height="264" fill="white"/>
</clipPath>
</defs>
</svg>
