<svg width="264" height="264" viewBox="0 0 264 264" fill="none" xmlns="http://www.w3.org/2000/svg">
<path d="M132 33H148.5V66H165V82.5H198V99H214.5V132H231V165H214.5V198H198V214.5H181.5V231H165V247.5H99V231H82.5V214.5H66V198H49.5V165H33V132H49.5V148.5H66V132H99V165H82.5V198H99V214.5H132V198H148.5V165H165V132H148.5V99H132V132H99V99H82.5V115.5H66V132H49.5V99H66V82.5H99V66H132V49.5H115.5V0H132V33ZM132 198H99V165H132V198ZM148.5 165H132V132H148.5V165ZM115.5 99H132V82.5H115.5V99Z" fill="black"/>
</svg>
