<svg width="264" height="264" viewBox="0 0 264 264" fill="none" xmlns="http://www.w3.org/2000/svg">
<rect x="33" y="99" width="16.5" height="16.5" fill="black"/>
<rect x="33" y="115.5" width="16.5" height="16.5" fill="black"/>
<rect x="33" y="132" width="16.5" height="16.5" fill="black"/>
<rect x="214.5" y="99" width="16.5" height="16.5" fill="black"/>
<rect x="214.5" y="115.5" width="16.5" height="16.5" fill="black"/>
<rect x="214.5" y="132" width="16.5" height="16.5" fill="black"/>
<rect x="49.5" y="148.5" width="16.5" height="16.5" fill="black"/>
<rect x="49.5" y="165" width="16.5" height="16.5" fill="black"/>
<rect x="66" y="165" width="16.5" height="16.5" fill="black"/>
<rect x="66" y="181.5" width="16.5" height="16.5" fill="black"/>
<rect x="82.5" y="181.5" width="16.5" height="16.5" fill="black"/>
<rect x="99" y="198" width="16.5" height="16.5" fill="black"/>
<rect x="115.5" y="198" width="16.5" height="16.5" fill="black"/>
<rect x="132" y="198" width="16.5" height="16.5" fill="black"/>
<rect x="148.5" y="198" width="16.5" height="16.5" fill="black"/>
<rect x="214.5" y="148.5" width="16.5" height="16.5" fill="black"/>
<rect x="198" y="148.5" width="16.5" height="16.5" fill="black"/>
<rect x="198" y="132" width="16.5" height="16.5" fill="black"/>
<rect x="198" y="165" width="16.5" height="16.5" fill="black"/>
<rect x="181.5" y="181.5" width="16.5" height="16.5" fill="black"/>
<rect x="49.5" y="82.5" width="16.5" height="16.5" fill="black"/>
<rect x="49.5" y="99" width="16.5" height="16.5" fill="black"/>
<rect x="66" y="82.5" width="16.5" height="16.5" fill="black"/>
<rect x="82.5" y="66" width="16.5" height="16.5" fill="black"/>
<rect x="132" y="66" width="16.5" height="16.5" fill="black"/>
<rect x="148.5" y="66" width="16.5" height="16.5" fill="black"/>
<rect x="165" y="66" width="16.5" height="16.5" fill="black"/>
<rect x="165" y="82.5" width="16.5" height="16.5" fill="black"/>
<rect x="181.5" y="82.5" width="16.5" height="16.5" fill="black"/>
<rect x="198" y="99" width="16.5" height="16.5" fill="black"/>
<rect x="198" y="82.5" width="16.5" height="16.5" fill="black"/>
<rect x="132" y="33" width="16.5" height="16.5" fill="black"/>
<rect x="148.5" y="33" width="16.5" height="16.5" fill="black"/>
<rect x="148.5" y="82.5" width="16.5" height="16.5" fill="black"/>
<rect x="132" y="82.5" width="16.5" height="16.5" fill="black"/>
<rect x="132" y="99" width="16.5" height="16.5" fill="black"/>
<rect x="165" y="99" width="16.5" height="16.5" fill="black"/>
<rect x="181.5" y="99" width="16.5" height="16.5" fill="black"/>
<rect x="181.5" y="115.5" width="16.5" height="16.5" fill="black"/>
<rect x="198" y="115.5" width="16.5" height="16.5" fill="black"/>
<rect x="165" y="148.5" width="16.5" height="16.5" fill="black"/>
<rect x="148.5" y="148.5" width="16.5" height="16.5" fill="black"/>
<rect x="132" y="148.5" width="16.5" height="16.5" fill="black"/>
<rect x="115.5" y="132" width="16.5" height="16.5" fill="black"/>
<rect x="148.5" y="132" width="16.5" height="16.5" fill="black"/>
<rect x="165" y="132" width="16.5" height="16.5" fill="black"/>
<rect x="132" y="165" width="16.5" height="16.5" fill="black"/>
<rect x="115.5" y="165" width="16.5" height="16.5" fill="black"/>
<rect x="148.5" y="165" width="16.5" height="16.5" fill="black"/>
<rect x="165" y="165" width="16.5" height="16.5" fill="black"/>
<rect x="99" y="148.5" width="16.5" height="16.5" fill="black"/>
<rect x="99" y="132" width="16.5" height="16.5" fill="black"/>
<rect x="115.5" y="148.5" width="16.5" height="16.5" fill="black"/>
<rect x="99" y="115.5" width="16.5" height="16.5" fill="black"/>
<rect x="99" y="99" width="16.5" height="16.5" fill="black"/>
<rect x="115.5" y="99" width="16.5" height="16.5" fill="black"/>
<rect x="115.5" y="115.5" width="16.5" height="16.5" fill="black"/>
<rect x="115.5" y="82.5" width="16.5" height="16.5" fill="black"/>
<rect x="49.5" y="115.5" width="16.5" height="16.5" fill="black"/>
<rect x="66" y="148.5" width="16.5" height="16.5" fill="black"/>
<rect x="49.5" y="132" width="16.5" height="16.5" fill="black"/>
<rect x="165" y="33" width="16.5" height="16.5" fill="black"/>
<rect x="115.5" y="33" width="16.5" height="16.5" fill="black"/>
<rect x="99" y="33" width="16.5" height="16.5" fill="black"/>
<rect x="82.5" y="49.5" width="16.5" height="16.5" fill="black"/>
<rect x="66" y="66" width="16.5" height="16.5" fill="black"/>
<rect x="82.5" y="198" width="16.5" height="16.5" fill="black"/>
<rect x="165" y="198" width="16.5" height="16.5" fill="black"/>
<rect x="181.5" y="198" width="16.5" height="16.5" fill="black"/>
<rect x="198" y="181.5" width="16.5" height="16.5" fill="black"/>
<rect x="181.5" y="66" width="16.5" height="16.5" fill="black"/>
<rect x="165" y="214.5" width="16.5" height="16.5" fill="black"/>
<rect x="148.5" y="214.5" width="16.5" height="16.5" fill="black"/>
<rect x="132" y="214.5" width="16.5" height="16.5" fill="black"/>
<rect x="115.5" y="214.5" width="16.5" height="16.5" fill="black"/>
<rect x="99" y="214.5" width="16.5" height="16.5" fill="black"/>
<rect x="66" y="198" width="16.5" height="16.5" fill="black"/>
<rect x="49.5" y="181.5" width="16.5" height="16.5" fill="black"/>
<rect x="33" y="165" width="16.5" height="16.5" fill="black"/>
<rect x="33" y="148.5" width="16.5" height="16.5" fill="black"/>
<rect x="66" y="49.5" width="16.5" height="16.5" fill="black"/>
<rect x="82.5" y="33" width="16.5" height="16.5" fill="black"/>
</svg>
