<svg width="288" height="280" viewBox="0 0 288 280" fill="none" xmlns="http://www.w3.org/2000/svg">
<g clip-path="url(#clip0_1_3)">
<path d="M288 280H0V0H288V280ZM75.25 29V46.125H92.375V63.25H126.625V80.375H92.375V97.5H75.25V148.875H58.125V166H75.25V183.125H92.375V200.25H109.5V234.5H75.25V251.625H212.25V234.5H160.875V217.375H178V200.25H212.25V166H229.375V148.875H246.5V97.5H229.375V114.625H212.25V97.5H195.125V80.375H160.875V63.25H178V46.125H212.25V29H75.25ZM41 97.5V148.875H58.125V97.5H41ZM58.125 80.375V97.5H75.25V80.375H58.125ZM212.25 80.375V97.5H229.375V80.375H212.25Z" fill="#333230"/>
</g>
<defs>
<clipPath id="clip0_1_3">
<rect width="288" height="280" fill="white"/>
</clipPath>
</defs>
</svg>
