<svg width="288" height="288" viewBox="0 0 288 288" fill="none" xmlns="http://www.w3.org/2000/svg">
<rect width="288" height="288" fill="#F3EEE7"/>
<path d="M38.0568 161V137.727H46.3523C48.1629 137.727 49.6629 138.057 50.8523 138.716C52.0417 139.375 52.9318 140.277 53.5227 141.42C54.1136 142.557 54.4091 143.837 54.4091 145.261C54.4091 146.693 54.1098 147.981 53.5114 149.125C52.9205 150.261 52.0265 151.163 50.8295 151.83C49.6402 152.489 48.1439 152.818 46.3409 152.818H40.6364V149.841H46.0227C47.1667 149.841 48.0947 149.644 48.8068 149.25C49.5189 148.848 50.0417 148.303 50.375 147.614C50.7083 146.924 50.875 146.14 50.875 145.261C50.875 144.383 50.7083 143.602 50.375 142.92C50.0417 142.239 49.5152 141.705 48.7955 141.318C48.0833 140.932 47.1439 140.739 45.9773 140.739H41.5682V161H38.0568ZM58.2528 161V143.545H61.5369V146.318H61.7188C62.0369 145.379 62.5975 144.64 63.4006 144.102C64.2112 143.557 65.1278 143.284 66.1506 143.284C66.3627 143.284 66.6127 143.292 66.9006 143.307C67.196 143.322 67.4271 143.341 67.5938 143.364V146.614C67.4574 146.576 67.215 146.534 66.8665 146.489C66.518 146.436 66.1695 146.409 65.821 146.409C65.018 146.409 64.3021 146.58 63.6733 146.92C63.0521 147.254 62.5597 147.72 62.196 148.318C61.8324 148.909 61.6506 149.583 61.6506 150.341V161H58.2528ZM77.4318 161.352C75.7121 161.352 74.2311 160.985 72.9886 160.25C71.7538 159.508 70.7992 158.466 70.125 157.125C69.4583 155.777 69.125 154.197 69.125 152.386C69.125 150.598 69.4583 149.023 70.125 147.659C70.7992 146.295 71.7386 145.231 72.9432 144.466C74.1553 143.701 75.572 143.318 77.1932 143.318C78.178 143.318 79.1326 143.481 80.0568 143.807C80.9811 144.133 81.8106 144.644 82.5455 145.341C83.2803 146.038 83.8598 146.943 84.2841 148.057C84.7083 149.163 84.9205 150.508 84.9205 152.091V153.295H71.0455V150.75H81.5909C81.5909 149.856 81.4091 149.064 81.0455 148.375C80.6818 147.678 80.1705 147.129 79.5114 146.727C78.8598 146.326 78.0947 146.125 77.2159 146.125C76.2614 146.125 75.428 146.36 74.7159 146.83C74.0114 147.292 73.4659 147.898 73.0795 148.648C72.7008 149.39 72.5114 150.197 72.5114 151.068V153.057C72.5114 154.223 72.7159 155.216 73.125 156.034C73.5417 156.852 74.1212 157.477 74.8636 157.909C75.6061 158.333 76.4735 158.545 77.4659 158.545C78.1098 158.545 78.697 158.455 79.2273 158.273C79.7576 158.083 80.2159 157.803 80.6023 157.432C80.9886 157.061 81.2841 156.602 81.4886 156.057L84.7045 156.636C84.447 157.583 83.9848 158.413 83.3182 159.125C82.6591 159.83 81.8295 160.379 80.8295 160.773C79.8371 161.159 78.7045 161.352 77.4318 161.352ZM75.6591 141.216L78.3182 135.977H81.8977L78.375 141.216H75.6591ZM101.77 147.807L98.6903 148.352C98.5616 147.958 98.357 147.583 98.0767 147.227C97.804 146.871 97.4328 146.58 96.9631 146.352C96.4934 146.125 95.9063 146.011 95.2017 146.011C94.2396 146.011 93.4366 146.227 92.7926 146.659C92.1487 147.083 91.8267 147.633 91.8267 148.307C91.8267 148.89 92.0426 149.36 92.4744 149.716C92.9063 150.072 93.6032 150.364 94.5653 150.591L97.3381 151.227C98.9441 151.598 100.141 152.17 100.929 152.943C101.717 153.716 102.111 154.72 102.111 155.955C102.111 157 101.808 157.932 101.202 158.75C100.603 159.561 99.7661 160.197 98.6903 160.659C97.6222 161.121 96.3835 161.352 94.9744 161.352C93.0199 161.352 91.4252 160.936 90.1903 160.102C88.9555 159.261 88.1979 158.068 87.9176 156.523L91.2017 156.023C91.4063 156.879 91.8267 157.527 92.4631 157.966C93.0994 158.398 93.929 158.614 94.9517 158.614C96.0653 158.614 96.9555 158.383 97.6222 157.92C98.2888 157.451 98.6222 156.879 98.6222 156.205C98.6222 155.659 98.4176 155.201 98.0085 154.83C97.607 154.458 96.9896 154.178 96.1562 153.989L93.2017 153.341C91.5729 152.97 90.3684 152.379 89.5881 151.568C88.8153 150.758 88.429 149.731 88.429 148.489C88.429 147.458 88.7169 146.557 89.2926 145.784C89.8684 145.011 90.6638 144.409 91.679 143.977C92.6941 143.538 93.857 143.318 95.1676 143.318C97.054 143.318 98.5388 143.727 99.6222 144.545C100.705 145.356 101.421 146.443 101.77 147.807ZM113.369 161.352C111.65 161.352 110.169 160.985 108.926 160.25C107.691 159.508 106.737 158.466 106.062 157.125C105.396 155.777 105.062 154.197 105.062 152.386C105.062 150.598 105.396 149.023 106.062 147.659C106.737 146.295 107.676 145.231 108.881 144.466C110.093 143.701 111.509 143.318 113.131 143.318C114.116 143.318 115.07 143.481 115.994 143.807C116.919 144.133 117.748 144.644 118.483 145.341C119.218 146.038 119.797 146.943 120.222 148.057C120.646 149.163 120.858 150.508 120.858 152.091V153.295H106.983V150.75H117.528C117.528 149.856 117.347 149.064 116.983 148.375C116.619 147.678 116.108 147.129 115.449 146.727C114.797 146.326 114.032 146.125 113.153 146.125C112.199 146.125 111.366 146.36 110.653 146.83C109.949 147.292 109.403 147.898 109.017 148.648C108.638 149.39 108.449 150.197 108.449 151.068V153.057C108.449 154.223 108.653 155.216 109.062 156.034C109.479 156.852 110.059 157.477 110.801 157.909C111.544 158.333 112.411 158.545 113.403 158.545C114.047 158.545 114.634 158.455 115.165 158.273C115.695 158.083 116.153 157.803 116.54 157.432C116.926 157.061 117.222 156.602 117.426 156.057L120.642 156.636C120.384 157.583 119.922 158.413 119.256 159.125C118.597 159.83 117.767 160.379 116.767 160.773C115.775 161.159 114.642 161.352 113.369 161.352ZM128.026 150.636V161H124.628V143.545H127.889V146.386H128.105C128.507 145.462 129.135 144.72 129.991 144.159C130.855 143.598 131.942 143.318 133.253 143.318C134.442 143.318 135.484 143.568 136.378 144.068C137.272 144.561 137.965 145.295 138.457 146.273C138.95 147.25 139.196 148.458 139.196 149.898V161H135.798V150.307C135.798 149.042 135.469 148.053 134.81 147.341C134.151 146.621 133.245 146.261 132.094 146.261C131.306 146.261 130.605 146.432 129.991 146.773C129.385 147.114 128.904 147.614 128.548 148.273C128.2 148.924 128.026 149.712 128.026 150.636ZM151.901 143.545V146.273H142.366V143.545H151.901ZM144.923 139.364H148.321V155.875C148.321 156.534 148.42 157.03 148.616 157.364C148.813 157.689 149.067 157.913 149.378 158.034C149.696 158.148 150.041 158.205 150.412 158.205C150.685 158.205 150.923 158.186 151.128 158.148C151.332 158.11 151.491 158.08 151.605 158.057L152.219 160.864C152.022 160.939 151.741 161.015 151.378 161.091C151.014 161.174 150.56 161.22 150.014 161.227C149.12 161.242 148.287 161.083 147.514 160.75C146.741 160.417 146.116 159.902 145.639 159.205C145.162 158.508 144.923 157.633 144.923 156.58V139.364ZM162.994 161.352C161.275 161.352 159.794 160.985 158.551 160.25C157.316 159.508 156.362 158.466 155.688 157.125C155.021 155.777 154.688 154.197 154.688 152.386C154.688 150.598 155.021 149.023 155.688 147.659C156.362 146.295 157.301 145.231 158.506 144.466C159.718 143.701 161.134 143.318 162.756 143.318C163.741 143.318 164.695 143.481 165.619 143.807C166.544 144.133 167.373 144.644 168.108 145.341C168.843 146.038 169.422 146.943 169.847 148.057C170.271 149.163 170.483 150.508 170.483 152.091V153.295H156.608V150.75H167.153C167.153 149.856 166.972 149.064 166.608 148.375C166.244 147.678 165.733 147.129 165.074 146.727C164.422 146.326 163.657 146.125 162.778 146.125C161.824 146.125 160.991 146.36 160.278 146.83C159.574 147.292 159.028 147.898 158.642 148.648C158.263 149.39 158.074 150.197 158.074 151.068V153.057C158.074 154.223 158.278 155.216 158.688 156.034C159.104 156.852 159.684 157.477 160.426 157.909C161.169 158.333 162.036 158.545 163.028 158.545C163.672 158.545 164.259 158.455 164.79 158.273C165.32 158.083 165.778 157.803 166.165 157.432C166.551 157.061 166.847 156.602 167.051 156.057L170.267 156.636C170.009 157.583 169.547 158.413 168.881 159.125C168.222 159.83 167.392 160.379 166.392 160.773C165.4 161.159 164.267 161.352 162.994 161.352ZM161.222 141.216L163.881 135.977H167.46L163.938 141.216H161.222ZM182.722 167.545V143.545H186.04V146.375H186.324C186.521 146.011 186.805 145.591 187.176 145.114C187.547 144.636 188.063 144.22 188.722 143.864C189.381 143.5 190.252 143.318 191.335 143.318C192.744 143.318 194.002 143.674 195.108 144.386C196.214 145.098 197.081 146.125 197.71 147.466C198.347 148.807 198.665 150.42 198.665 152.307C198.665 154.193 198.35 155.811 197.722 157.159C197.093 158.5 196.229 159.534 195.131 160.261C194.032 160.981 192.778 161.341 191.369 161.341C190.309 161.341 189.441 161.163 188.767 160.807C188.1 160.451 187.578 160.034 187.199 159.557C186.82 159.08 186.528 158.655 186.324 158.284H186.119V167.545H182.722ZM186.051 152.273C186.051 153.5 186.229 154.576 186.585 155.5C186.941 156.424 187.456 157.148 188.131 157.67C188.805 158.186 189.631 158.443 190.608 158.443C191.623 158.443 192.472 158.174 193.153 157.636C193.835 157.091 194.35 156.352 194.699 155.42C195.055 154.489 195.233 153.439 195.233 152.273C195.233 151.121 195.059 150.087 194.71 149.17C194.369 148.254 193.854 147.53 193.165 147C192.483 146.47 191.631 146.205 190.608 146.205C189.623 146.205 188.79 146.458 188.108 146.966C187.434 147.473 186.922 148.182 186.574 149.091C186.225 150 186.051 151.061 186.051 152.273ZM207.551 161.386C206.445 161.386 205.445 161.182 204.551 160.773C203.657 160.356 202.949 159.754 202.426 158.966C201.911 158.178 201.653 157.212 201.653 156.068C201.653 155.083 201.843 154.273 202.222 153.636C202.6 153 203.112 152.496 203.756 152.125C204.4 151.754 205.119 151.473 205.915 151.284C206.71 151.095 207.521 150.951 208.347 150.852C209.392 150.731 210.241 150.633 210.892 150.557C211.544 150.473 212.017 150.341 212.312 150.159C212.608 149.977 212.756 149.682 212.756 149.273V149.193C212.756 148.201 212.475 147.432 211.915 146.886C211.362 146.341 210.536 146.068 209.438 146.068C208.294 146.068 207.392 146.322 206.733 146.83C206.081 147.33 205.631 147.886 205.381 148.5L202.188 147.773C202.566 146.712 203.119 145.856 203.847 145.205C204.581 144.545 205.426 144.068 206.381 143.773C207.335 143.47 208.339 143.318 209.392 143.318C210.089 143.318 210.828 143.402 211.608 143.568C212.396 143.727 213.131 144.023 213.812 144.455C214.502 144.886 215.066 145.504 215.506 146.307C215.945 147.102 216.165 148.136 216.165 149.409V161H212.847V158.614H212.71C212.491 159.053 212.161 159.485 211.722 159.909C211.282 160.333 210.718 160.686 210.028 160.966C209.339 161.246 208.513 161.386 207.551 161.386ZM208.29 158.659C209.229 158.659 210.032 158.473 210.699 158.102C211.373 157.731 211.884 157.246 212.233 156.648C212.589 156.042 212.767 155.394 212.767 154.705V152.455C212.646 152.576 212.411 152.689 212.062 152.795C211.722 152.894 211.331 152.981 210.892 153.057C210.453 153.125 210.025 153.189 209.608 153.25C209.191 153.303 208.843 153.348 208.562 153.386C207.903 153.47 207.301 153.61 206.756 153.807C206.218 154.004 205.786 154.288 205.46 154.659C205.142 155.023 204.983 155.508 204.983 156.114C204.983 156.955 205.294 157.591 205.915 158.023C206.536 158.447 207.328 158.659 208.29 158.659ZM220.69 161V143.545H223.974V146.318H224.156C224.474 145.379 225.035 144.64 225.838 144.102C226.649 143.557 227.565 143.284 228.588 143.284C228.8 143.284 229.05 143.292 229.338 143.307C229.634 143.322 229.865 143.341 230.031 143.364V146.614C229.895 146.576 229.652 146.534 229.304 146.489C228.955 146.436 228.607 146.409 228.259 146.409C227.455 146.409 226.74 146.58 226.111 146.92C225.49 147.254 224.997 147.72 224.634 148.318C224.27 148.909 224.088 149.583 224.088 150.341V161H220.69Z" fill="#333230"/>
<g clip-path="url(#clip0_0_5)">
<path d="M69.1009 176C80.8732 176 90.31 179.284 97.4592 185.804C104.608 192.325 108.183 200.939 108.183 211.552C108.183 222.165 104.608 230.732 97.4592 237.3C90.31 243.82 80.8255 247.104 69.1009 247.104H48.6067C41.3623 247.104 35.5 241.203 35.5 233.969V189.136C35.5 181.854 41.3623 176 48.6544 176H69.1009Z" fill="#05D17D"/>
<path d="M58.9015 262.525V224.545C58.9015 223.308 59.9024 222.308 61.1416 222.308H77.4416C78.6808 222.308 79.6816 223.308 79.6816 224.545V245.248C79.6816 245.867 79.4433 246.438 79.0144 246.866L61.4275 263.572C60.4743 264.524 58.9015 263.81 58.9015 262.525Z" fill="#A5F46E"/>
<path d="M76.679 197.655C78.6808 199.701 79.6816 202.081 79.6816 204.842C79.6816 207.697 78.6808 210.077 76.679 211.981C74.6772 213.884 72.1989 214.836 69.2916 214.836C66.2413 214.836 63.7629 213.884 61.8088 211.981C59.8547 210.077 58.9015 207.697 58.9015 204.842C58.9015 202.081 59.9024 199.701 61.9041 197.655C63.9059 195.608 66.3366 194.609 69.2916 194.609C72.1989 194.609 74.6772 195.656 76.679 197.655Z" fill="#A5F46E"/>
<path d="M138.352 182.663C142.451 182.663 145.74 183.805 148.266 186.09C150.744 188.374 152.031 191.373 152.031 195.085C152.031 198.797 150.792 201.796 148.266 204.08C145.787 206.365 142.451 207.507 138.352 207.507H129.201V182.663H138.352ZM138.352 202.938C140.926 202.938 143.023 202.224 144.596 200.796C146.169 199.368 146.931 197.465 146.931 195.085C146.931 192.705 146.169 190.802 144.596 189.374C143.023 187.946 140.974 187.232 138.352 187.232H134.253V202.938H138.352Z" fill="#0C2734"/>
<path d="M161.086 181.426C161.658 181.997 161.944 182.711 161.944 183.472C161.944 184.281 161.658 184.948 161.086 185.519C160.515 186.042 159.8 186.328 158.989 186.328C158.131 186.328 157.417 186.042 156.845 185.519C156.273 184.995 155.987 184.281 155.987 183.472C155.987 182.663 156.273 181.997 156.845 181.426C157.417 180.855 158.131 180.569 158.942 180.569C159.8 180.569 160.515 180.855 161.086 181.426ZM156.511 207.459V188.993H161.42V207.459H156.511Z" fill="#0C2734"/>
<path d="M185.489 207.459H180.58V206.031C178.912 207.364 176.862 208.03 174.479 208.03C172.048 208.03 169.904 207.126 168.093 205.27C166.281 203.414 165.376 201.082 165.376 198.274C165.376 195.466 166.281 193.134 168.093 191.23C169.904 189.326 172.048 188.422 174.431 188.422C176.862 188.422 178.912 189.088 180.532 190.468V188.993H185.441V207.459H185.489ZM179.007 202.224C180.055 201.177 180.58 199.892 180.58 198.226C180.58 196.56 180.055 195.275 179.007 194.228C177.958 193.181 176.719 192.658 175.337 192.658C173.812 192.658 172.573 193.181 171.619 194.181C170.666 195.18 170.142 196.56 170.142 198.226C170.142 199.892 170.619 201.224 171.619 202.224C172.573 203.223 173.86 203.747 175.337 203.747C176.719 203.794 177.958 203.271 179.007 202.224Z" fill="#0C2734"/>
<path d="M190.684 207.459V180.807H195.593V207.459H190.684Z" fill="#0C2734"/>
<path d="M216.659 191.277C218.613 193.086 219.566 195.418 219.566 198.274C219.566 201.129 218.613 203.461 216.659 205.27C214.705 207.078 212.37 207.983 209.605 207.983C206.793 207.983 204.41 207.078 202.456 205.27C200.502 203.461 199.549 201.129 199.549 198.274C199.549 195.418 200.502 193.086 202.456 191.277C204.41 189.469 206.793 188.565 209.605 188.565C212.37 188.565 214.753 189.469 216.659 191.277ZM213.227 202.224C214.276 201.177 214.8 199.892 214.8 198.226C214.8 196.56 214.276 195.275 213.227 194.228C212.179 193.181 210.94 192.705 209.605 192.705C208.175 192.705 206.936 193.229 205.888 194.228C204.791 195.228 204.267 196.56 204.267 198.226C204.267 199.892 204.791 201.224 205.888 202.224C206.984 203.223 208.223 203.747 209.605 203.747C210.987 203.794 212.179 203.271 213.227 202.224Z" fill="#0C2734"/>
<path d="M241.824 205.698C241.824 208.506 240.918 210.648 239.155 212.219C237.391 213.741 234.961 214.551 231.911 214.551C227.621 214.551 224.618 213.17 222.903 210.458L226.858 207.459C227.621 208.411 228.384 209.125 229.099 209.506C229.813 209.934 230.767 210.124 231.911 210.124C233.483 210.124 234.77 209.648 235.676 208.744C236.581 207.84 237.058 206.555 237.058 204.984V204.699C235.628 205.841 233.722 206.412 231.243 206.412C228.86 206.412 226.763 205.555 224.952 203.794C223.141 202.034 222.235 199.939 222.235 197.417C222.235 194.942 223.141 192.848 224.952 191.087C226.763 189.326 228.86 188.469 231.243 188.469C233.674 188.469 235.628 189.041 237.058 190.183V189.041H241.776L241.824 205.698ZM235.58 200.844C236.581 199.939 237.058 198.797 237.058 197.369C237.058 195.942 236.581 194.799 235.58 193.895C234.58 192.991 233.436 192.562 232.101 192.562C230.624 192.562 229.384 192.991 228.431 193.895C227.478 194.799 227.001 195.942 227.001 197.369C227.001 198.797 227.478 199.939 228.431 200.844C229.384 201.748 230.624 202.176 232.101 202.176C233.436 202.176 234.58 201.748 235.58 200.844Z" fill="#0C2734"/>
<path d="M129.201 239.918V215.074H134.253V239.918H129.201Z" fill="#0C2734"/>
<path d="M155.939 223.022C157.321 224.45 157.988 226.354 157.988 228.638V239.918H153.079V229.685C153.079 228.353 152.746 227.306 152.079 226.544C151.411 225.783 150.506 225.354 149.362 225.354C146.312 225.354 144.739 227.496 144.739 231.732V239.918H139.83V221.404H144.739V223.07C146.216 221.594 148.17 220.833 150.553 220.833C152.793 220.833 154.557 221.594 155.939 223.022Z" fill="#0C2734"/>
<path d="M166.472 234.016C166.71 235.682 167.95 236.539 170.285 236.539C171.191 236.539 171.858 236.348 172.382 236.015C172.906 235.682 173.145 235.206 173.145 234.683C173.145 233.873 172.477 233.302 171.095 233.017L167.33 232.255C165.662 231.922 164.375 231.303 163.469 230.352C162.564 229.4 162.135 228.305 162.135 226.972C162.135 225.164 162.802 223.688 164.184 222.546C165.567 221.404 167.378 220.833 169.713 220.833C171.858 220.833 173.669 221.356 175.099 222.356C176.529 223.355 177.434 224.688 177.768 226.306L173.097 227.21C173.002 226.449 172.62 225.83 172.001 225.354C171.381 224.878 170.571 224.64 169.57 224.64C168.664 224.64 168.045 224.831 167.664 225.164C167.282 225.545 167.092 225.925 167.092 226.449C167.092 227.258 167.664 227.782 168.76 228.019L173.192 228.971C174.765 229.304 176.004 229.971 176.815 230.875C177.625 231.779 178.054 232.922 178.054 234.207C178.054 236.206 177.339 237.729 175.861 238.823C174.384 239.87 172.43 240.394 169.951 240.394C167.759 240.394 165.853 239.965 164.327 239.061C162.755 238.157 161.897 236.777 161.658 234.968L166.472 234.016Z" fill="#0C2734"/>
<path d="M186.776 213.837C187.348 214.408 187.634 215.122 187.634 215.883C187.634 216.692 187.348 217.359 186.776 217.93C186.204 218.453 185.489 218.739 184.679 218.739C183.821 218.739 183.106 218.453 182.534 217.93C181.962 217.406 181.676 216.692 181.676 215.883C181.676 215.074 181.962 214.408 182.534 213.837C183.106 213.266 183.821 212.98 184.631 212.98C185.489 212.98 186.204 213.266 186.776 213.837ZM182.2 239.918V221.404H187.109V239.87H182.2V239.918Z" fill="#0C2734"/>
<path d="M210.511 238.109C210.511 240.917 209.605 243.059 207.842 244.63C206.078 246.153 203.648 246.962 200.597 246.962C196.308 246.962 193.305 245.581 191.589 242.869L195.545 239.87C196.308 240.822 197.07 241.536 197.785 241.917C198.5 242.345 199.453 242.535 200.597 242.535C202.17 242.535 203.457 242.059 204.363 241.155C205.268 240.251 205.745 238.966 205.745 237.395V237.11C204.315 238.252 202.408 238.823 199.93 238.823C197.547 238.823 195.45 237.966 193.639 236.206C191.828 234.445 190.922 232.35 190.922 229.828C190.922 227.353 191.828 225.259 193.639 223.498C195.45 221.737 197.547 220.88 199.93 220.88C202.361 220.88 204.315 221.452 205.745 222.594V221.452H210.463L210.511 238.109ZM204.315 233.255C205.316 232.35 205.792 231.208 205.792 229.78C205.792 228.353 205.316 227.21 204.315 226.306C203.314 225.402 202.17 224.974 200.836 224.974C199.358 224.974 198.119 225.402 197.166 226.306C196.213 227.21 195.736 228.353 195.736 229.78C195.736 231.208 196.213 232.35 197.166 233.255C198.119 234.159 199.358 234.587 200.836 234.587C202.17 234.587 203.314 234.159 204.315 233.255Z" fill="#0C2734"/>
<path d="M231.911 223.022C233.293 224.45 233.96 226.354 233.96 228.638V239.918H229.051V229.685C229.051 228.353 228.717 227.306 228.05 226.544C227.383 225.783 226.477 225.354 225.333 225.354C222.283 225.354 220.71 227.496 220.71 231.732V239.918H215.801V213.266H220.71V223.117C222.188 221.642 224.142 220.88 226.525 220.88C228.717 220.833 230.528 221.594 231.911 223.022Z" fill="#0C2734"/>
<path d="M252.5 239.061C250.784 239.965 249.164 240.441 247.686 240.441C245.399 240.441 243.635 239.823 242.348 238.585C241.061 237.348 240.442 235.539 240.442 233.064V225.402H236.486V221.404H240.442V215.836H245.351V221.452H251.404V225.449H245.351V232.731C245.351 234.873 246.256 235.92 248.068 235.92C249.021 235.92 250.022 235.634 251.165 235.016L252.5 239.061Z" fill="#0C2734"/>
</g>
<defs>
<clipPath id="clip0_0_5">
<rect width="217" height="88" fill="white" transform="translate(35.5 176)"/>
</clipPath>
</defs>
</svg>
