<svg viewBox="0 0 288 288" fill="none" xmlns="http://www.w3.org/2000/svg">
<g clip-path="url(#clip0_0_117)">
<rect width="288" height="288" fill="#F3EEE7"/>
<path d="M238.689 14.3947L236.862 -2.10497L220.143 -0.247391L218.316 -16.6925L201.597 -14.8895L184.933 -13.0319L168.269 -11.1743L151.549 -9.31676L134.886 -7.51384L118.222 -5.65625L101.502 -3.79868L103.385 12.6464L86.7208 14.504L70.0014 16.3615L53.3375 18.1645L36.6736 20.0221L19.9543 21.8797L21.8366 38.3247L5.17267 40.1823L-11.5466 41.9853L-13.3736 25.5402L3.29034 23.6826L1.40802 7.23756L18.1274 5.37997L16.245 -11.0651L32.909 -12.9227L31.082 -29.3677L29.1997 -45.8128L45.8636 -47.6704L43.9814 -64.1154L60.7006 -65.973L58.8184 -82.418L75.4823 -84.2756L73.6553 -100.721L71.773 -117.22L88.437 -119.078L86.5547 -135.523L84.7277 -151.968L82.8454 -168.468L80.9631 -184.913L79.1362 -201.358L62.4169 -199.555L60.5899 -216L43.8706 -214.142L27.2067 -212.339L10.5428 -210.482L-6.17651 -208.624L-22.8405 -206.767L-20.9582 -190.322L-37.6775 -188.464L-35.7952 -172.019L-52.459 -170.161L-50.6322 -153.716L-48.7498 -137.271L-65.4138 -135.414L-63.5868 -118.914L-80.2508 -117.111L-78.3684 -100.611L-95.0877 -98.8085L-93.2054 -82.3088L-91.3232 -65.8637L-107.987 -64.0061L-106.16 -47.5611L-122.824 -45.7035L-120.942 -29.2585L-119.115 -12.8134L-135.779 -10.9558L-133.896 5.48924L-150.616 7.34682L-167.28 9.20441L-169.162 -7.24065L-170.989 -23.7404L-172.871 -40.1854L-189.535 -38.3278L-191.417 -54.8275L-193.3 -71.2726L-209.964 -69.415L-211.846 -85.9147L-213.728 -102.36L-230.392 -100.502L-232.275 -117.002L-234.101 -133.447L-250.821 -131.589L-252.648 -148.089L-254.53 -164.534L-271.249 -162.676L-273.076 -179.176L-289.796 -177.319L-291.622 -193.764L-308.342 -191.961L-325.006 -190.103L-341.67 -188.246L-339.843 -171.8L-356.507 -169.943L-354.624 -153.498L-371.344 -151.64L-369.461 -135.195L-367.579 -118.696L-365.697 -102.25L-363.87 -85.8054L-347.15 -87.6084L-345.324 -71.1633L-343.441 -54.7182L-326.777 -56.5212L-324.895 -40.0761L-323.013 -23.6311L-306.349 -25.434L-304.466 -8.98898L-302.584 7.4561L-285.92 5.65314L-284.038 22.0982L-282.211 38.5432L-265.492 36.7403L-263.665 53.1854L-261.782 69.6304L-259.9 86.1301L-243.236 84.2725L-241.354 100.718L-258.018 102.575L-274.737 104.433L-272.855 120.878L-289.519 122.735L-306.238 124.538L-322.902 126.396L-339.566 128.254L-356.285 130.111L-354.403 146.556L-371.067 148.414L-387.786 150.217L-404.45 152.074L-421.169 153.932L-437.833 155.789L-454.497 157.592L-471.161 159.45L-469.334 175.895L-485.998 177.753L-502.662 179.61L-519.381 181.468L-517.499 197.913L-534.163 199.77L-532.336 216.215L-549 218.073L-547.118 234.518L-545.291 250.963L-543.408 267.463L-541.526 283.908L-524.862 282.05L-522.98 298.55L-506.316 296.692L-489.597 294.835L-487.77 311.28L-471.05 309.477L-454.387 307.619L-437.723 305.762L-439.55 289.317L-422.886 287.459L-406.222 285.656L-389.502 283.799L-372.838 281.941L-356.174 280.083L-358.001 263.638L-341.337 261.781L-324.674 259.978L-307.954 258.12L-291.29 256.263L-289.408 272.708L-306.127 274.565L-304.245 291.065L-302.363 307.51L-319.082 309.368L-317.2 325.813L-333.864 327.67L-331.981 344.115L-348.701 345.973L-346.818 362.418L-363.482 364.276L-361.655 380.721L-359.773 397.22L-376.437 399.023L-374.61 415.523L-372.728 431.968L-389.392 433.826L-387.565 450.271L-385.682 466.716L-368.963 464.913L-367.136 481.358L-350.417 479.5L-348.59 496L-331.871 494.142L-315.207 492.285L-298.543 490.482L-281.823 488.624L-265.16 486.767L-267.042 470.322L-250.323 468.464L-252.205 452.019L-254.087 435.519L-237.368 433.716L-239.25 417.217L-222.586 415.414L-224.413 398.914L-207.749 397.056L-209.632 380.611L-211.514 364.166L-194.795 362.309L-196.677 345.864L-180.013 344.006L-181.84 327.561L-165.176 325.703L-167.058 309.258L-150.339 307.401L-152.221 290.901L-154.104 274.456L-137.44 272.598L-135.557 289.098L-118.838 287.241L-117.011 303.686L-115.129 320.185L-98.4648 318.328L-96.5825 334.773L-79.9186 332.97L-78.0363 349.415L-76.1539 365.86L-74.2717 382.36L-57.6078 380.502L-55.7254 396.947L-53.8985 413.447L-37.1792 411.589L-35.3522 428.034L-33.4699 444.534L-16.7507 442.676L-14.9237 459.122L1.79559 457.319L3.6225 473.764L20.3418 471.906L37.0057 470.103L53.6697 468.245L51.8427 451.746L68.5067 449.943L66.6244 433.443L83.3437 431.64L81.4614 415.141L79.5791 398.695L77.7521 382.25L61.0328 384.053L59.1505 367.608L57.3235 351.163L40.6043 352.966L38.7773 336.521L22.058 338.379L20.2311 321.879L18.3488 305.434L16.4665 288.989L-0.197449 290.792L-2.07971 274.347L-3.96204 257.902L-20.626 259.705L-22.5083 243.26L-24.3353 226.815L-41.0545 228.617L-42.9368 212.172L-44.7638 195.727L-61.4831 197.585L-63.31 181.085L-46.6461 179.228L-29.9822 177.425L-13.2629 175.567L3.40106 173.71L1.5188 157.265L18.238 155.407L34.902 153.604L51.5659 151.746L68.2853 149.889L66.403 133.444L83.0668 131.586L99.7861 129.729L116.45 127.926L133.114 126.068L149.833 124.211L166.497 122.353L183.161 120.55L181.334 104.05L197.998 102.247L214.662 100.39L231.381 98.5322L229.499 82.0872L246.163 80.2296L244.336 63.7845L261 61.9269L259.118 45.4819L257.291 28.9822L255.408 12.5371L238.689 14.3947Z" fill="currentColor"/>
</g>
<defs>
<clipPath id="clip0_0_117">
<rect width="288" height="288" fill="white"/>
</clipPath>
</defs>
</svg>
