<svg width="288" height="280" viewBox="0 0 288 280" fill="none" xmlns="http://www.w3.org/2000/svg">
<g clip-path="url(#clip0_3247_18944)">
<path d="M526.689 -265.605L524.862 -282.105L508.143 -280.247L506.316 -296.692L489.597 -294.889L472.933 -293.032L456.269 -291.174L439.549 -289.317L422.886 -287.514L406.222 -285.656L389.502 -283.799L391.385 -267.354L374.721 -265.496L358.001 -263.638L341.338 -261.835L324.674 -259.978L307.954 -258.12L309.837 -241.675L293.173 -239.818L276.453 -238.015L274.626 -254.46L291.29 -256.317L289.408 -272.762L306.127 -274.62L304.245 -291.065L320.909 -292.923L319.082 -309.368L317.2 -325.813L333.864 -327.67L331.981 -344.115L348.701 -345.973L346.818 -362.418L363.482 -364.276L361.655 -380.721L359.773 -397.22L376.437 -399.078L374.555 -415.523L372.728 -431.968L370.845 -448.468L368.963 -464.913L367.136 -481.358L350.417 -479.555L348.59 -496L331.871 -494.142L315.207 -492.339L298.543 -490.482L281.823 -488.624L265.16 -486.767L267.042 -470.322L250.323 -468.464L252.205 -452.019L235.541 -450.161L237.368 -433.716L239.25 -417.271L222.586 -415.414L224.413 -398.914L207.749 -397.111L209.632 -380.611L192.912 -378.808L194.795 -362.309L196.677 -345.864L180.013 -344.006L181.84 -327.561L165.176 -325.704L167.058 -309.258L168.885 -292.813L152.221 -290.956L154.104 -274.511L137.384 -272.653L120.72 -270.796L118.838 -287.241L117.011 -303.74L115.129 -320.185L98.4648 -318.328L96.5825 -334.828L94.7002 -351.273L78.0363 -349.415L76.154 -365.915L74.2717 -382.36L57.6078 -380.502L55.7255 -397.002L53.8985 -413.447L37.1792 -411.589L35.3523 -428.089L33.4699 -444.534L16.7507 -442.676L14.9237 -459.176L-1.79556 -457.319L-3.6225 -473.764L-20.3418 -471.961L-37.0057 -470.103L-53.6697 -468.246L-51.8427 -451.8L-68.5067 -449.943L-66.6243 -433.498L-83.3436 -431.64L-81.4613 -415.195L-79.579 -398.696L-77.6967 -382.25L-75.8698 -365.805L-59.1505 -367.608L-57.3236 -351.163L-55.4412 -334.718L-38.7773 -336.521L-36.895 -320.076L-35.0127 -303.631L-18.3488 -305.434L-16.4665 -288.989L-14.5842 -272.544L2.07977 -274.347L3.9621 -257.902L5.789 -241.457L22.5083 -243.26L24.3353 -226.815L26.2176 -210.37L28.0999 -193.87L44.7638 -195.727L46.6461 -179.282L29.9822 -177.425L13.2629 -175.567L15.1452 -159.122L-1.51877 -157.265L-18.2381 -155.462L-34.902 -153.604L-51.5659 -151.746L-68.2852 -149.889L-66.4029 -133.444L-83.0668 -131.586L-99.7861 -129.783L-116.45 -127.926L-133.169 -126.068L-149.833 -124.211L-166.497 -122.408L-183.161 -120.55L-181.334 -104.105L-197.998 -102.247L-214.662 -100.39L-231.381 -98.5323L-229.499 -82.0872L-246.163 -80.2296L-244.336 -63.7845L-261 -61.927L-259.118 -45.4819L-257.291 -29.0369L-255.408 -12.5372L-253.526 3.90787L-236.862 2.05032L-234.98 18.55L-218.316 16.6924L-201.597 14.8348L-199.77 31.2799L-183.05 29.4769L-166.387 27.6194L-149.723 25.7618L-151.55 9.31671L-134.886 7.45914L-118.222 5.65616L-101.502 3.79865L-84.8384 1.94101L-68.1745 0.0834656L-70.0014 -16.3616L-53.3375 -18.2192L-36.6736 -20.0221L-19.9543 -21.8797L-3.29034 -23.7373L-1.40802 -7.29224L-18.1273 -5.43466L-16.245 11.065L-14.3627 27.5101L-31.082 29.3677L-29.1997 45.8127L-45.8636 47.6703L-43.9813 64.1154L-60.7006 65.9729L-58.8183 82.418L-75.4823 84.2756L-73.6553 100.721L-71.773 117.22L-88.4369 119.023L-86.61 135.523L-84.7277 151.968L-101.392 153.826L-99.5647 170.271L-97.6824 186.716L-80.9631 184.913L-79.1362 201.358L-62.4169 199.5L-60.5899 216L-43.8706 214.142L-27.2067 212.285L-10.5427 210.482L6.17654 208.624L22.8405 206.767L20.9582 190.322L37.6775 188.464L35.7952 172.019L33.9129 155.519L50.6322 153.716L48.7498 137.217L65.4138 135.414L63.5869 118.914L80.2508 117.056L78.3685 100.611L76.4861 84.1663L93.2055 82.3088L91.3232 65.8636L107.987 64.0061L106.16 47.561L122.824 45.7035L120.942 29.2584L137.661 27.4008L135.779 10.9011L133.896 -5.54395L150.56 -7.40152L152.443 9.09814L169.162 7.2406L170.989 23.6857L172.871 40.1854L189.535 38.3278L191.417 54.7728L208.081 52.9699L209.964 69.4149L211.846 85.86L213.728 102.36L230.392 100.502L232.275 116.947L234.102 133.447L250.821 131.589L252.648 148.034L254.53 164.534L271.249 162.676L273.076 179.122L289.796 177.319L291.622 193.764L308.342 191.906L325.006 190.103L341.67 188.245L339.843 171.746L356.507 169.943L354.624 153.443L371.344 151.64L369.461 135.141L367.579 118.695L365.752 102.25L349.033 104.053L347.151 87.6083L345.324 71.1633L328.604 72.9662L326.777 56.5211L310.058 58.3787L308.231 41.879L306.349 25.434L304.466 8.98892L287.803 10.7919L285.92 -5.65317L284.038 -22.0983L267.374 -20.2953L265.492 -36.7404L263.665 -53.1854L246.945 -51.3825L245.063 -67.8275L243.236 -84.2726L226.517 -82.415L224.69 -98.9147L241.354 -100.772L258.018 -102.575L274.737 -104.433L291.401 -106.29L289.519 -122.735L306.238 -124.593L322.902 -126.396L339.566 -128.254L356.285 -130.111L354.403 -146.556L371.067 -148.414L387.786 -150.271L404.45 -152.074L421.114 -153.932L437.833 -155.789L454.497 -157.647L471.161 -159.45L469.334 -175.95L485.998 -177.753L502.662 -179.61L519.381 -181.468L517.499 -197.913L534.163 -199.77L532.336 -216.215L549 -218.073L547.118 -234.518L545.291 -251.018L543.408 -267.463L526.689 -265.605Z" fill="#871C00"/>
</g>
<defs>
<clipPath id="clip0_3247_18944">
<rect width="288" height="280" fill="white"/>
</clipPath>
</defs>
</svg>
