<svg viewBox="0 0 288 288" fill="none" xmlns="http://www.w3.org/2000/svg">
<g clip-path="url(#clip0_0_130)">
<rect width="288" height="288" fill="#F3EEE7"/>
<path d="M238.689 -273.605L236.862 -290.105L220.143 -288.247L218.316 -304.692L201.597 -302.889L184.933 -301.032L168.269 -299.174L151.549 -297.317L134.886 -295.514L118.222 -293.656L101.502 -291.799L103.385 -275.354L86.7208 -273.496L70.0014 -271.638L53.3375 -269.835L36.6736 -267.978L19.9543 -266.12L21.8366 -249.675L5.17267 -247.818L-11.5466 -246.015L-13.3736 -262.46L3.29034 -264.317L1.40802 -280.762L18.1274 -282.62L16.245 -299.065L32.909 -300.923L31.082 -317.368L29.1997 -333.813L45.8636 -335.67L43.9814 -352.115L60.7006 -353.973L58.8184 -370.418L75.4823 -372.276L73.6553 -388.721L71.773 -405.22L88.437 -407.078L86.5547 -423.523L84.7277 -439.968L82.8454 -456.468L80.9631 -472.913L79.1362 -489.358L62.4169 -487.555L60.5899 -504L43.8706 -502.142L27.2067 -500.339L10.5428 -498.482L-6.17651 -496.624L-22.8405 -494.767L-20.9582 -478.322L-37.6775 -476.464L-35.7952 -460.019L-52.459 -458.161L-50.6322 -441.716L-48.7498 -425.271L-65.4138 -423.414L-63.5868 -406.914L-80.2508 -405.111L-78.3684 -388.611L-95.0877 -386.808L-93.2054 -370.309L-91.3232 -353.864L-107.987 -352.006L-106.16 -335.561L-122.824 -333.704L-120.942 -317.258L-119.115 -300.813L-135.779 -298.956L-133.896 -282.511L-150.616 -280.653L-167.28 -278.796L-169.162 -295.241L-170.989 -311.74L-172.871 -328.185L-189.535 -326.328L-191.417 -342.828L-193.3 -359.273L-209.964 -357.415L-211.846 -373.915L-213.728 -390.36L-230.392 -388.502L-232.275 -405.002L-234.101 -421.447L-250.821 -419.589L-252.648 -436.089L-254.53 -452.534L-271.249 -450.676L-273.076 -467.176L-289.796 -465.319L-291.622 -481.764L-308.342 -479.961L-325.006 -478.103L-341.67 -476.246L-339.843 -459.8L-356.507 -457.943L-354.624 -441.498L-371.344 -439.64L-369.461 -423.195L-367.579 -406.696L-365.697 -390.25L-363.87 -373.805L-347.15 -375.608L-345.324 -359.163L-343.441 -342.718L-326.777 -344.521L-324.895 -328.076L-323.013 -311.631L-306.349 -313.434L-304.466 -296.989L-302.584 -280.544L-285.92 -282.347L-284.038 -265.902L-282.211 -249.457L-265.492 -251.26L-263.665 -234.815L-261.782 -218.37L-259.9 -201.87L-243.236 -203.727L-241.354 -187.282L-258.018 -185.425L-274.737 -183.567L-272.855 -167.122L-289.519 -165.265L-306.238 -163.462L-322.902 -161.604L-339.566 -159.746L-356.285 -157.889L-354.403 -141.444L-371.067 -139.586L-387.786 -137.783L-404.45 -135.926L-421.169 -134.068L-437.833 -132.211L-454.497 -130.408L-471.161 -128.55L-469.334 -112.105L-485.998 -110.247L-502.662 -108.39L-519.381 -106.532L-517.499 -90.0872L-534.163 -88.2296L-532.336 -71.7845L-549 -69.927L-547.118 -53.4819L-545.291 -37.0369L-543.408 -20.5372L-541.526 -4.09213L-524.862 -5.94968L-522.98 10.55L-506.316 8.69238L-489.597 6.83484L-487.77 23.2799L-471.05 21.4769L-454.387 19.6194L-437.723 17.7618L-439.55 1.31671L-422.886 -0.540863L-406.222 -2.34384L-389.502 -4.20135L-372.838 -6.05899L-356.174 -7.91653L-358.001 -24.3616L-341.337 -26.2192L-324.674 -28.0221L-307.954 -29.8797L-291.29 -31.7373L-289.408 -15.2922L-306.127 -13.4347L-304.245 3.065L-302.363 19.5101L-319.082 21.3677L-317.2 37.8127L-333.864 39.6703L-331.981 56.1154L-348.701 57.9729L-346.818 74.418L-363.482 76.2756L-361.655 92.7206L-359.773 109.22L-376.437 111.023L-374.61 127.523L-372.728 143.968L-389.392 145.826L-387.565 162.271L-385.682 178.716L-368.963 176.913L-367.136 193.358L-350.417 191.5L-348.59 208L-331.871 206.142L-315.207 204.285L-298.543 202.482L-281.823 200.624L-265.16 198.767L-267.042 182.322L-250.323 180.464L-252.205 164.019L-254.087 147.519L-237.368 145.716L-239.25 129.217L-222.586 127.414L-224.413 110.914L-207.749 109.056L-209.632 92.6113L-211.514 76.1663L-194.795 74.3088L-196.677 57.8636L-180.013 56.0061L-181.84 39.561L-165.176 37.7035L-167.058 21.2584L-150.339 19.4008L-152.221 2.90112L-154.104 -13.5439L-137.44 -15.4015L-135.557 1.09814L-118.838 -0.759399L-117.011 15.6857L-115.129 32.1854L-98.4648 30.3278L-96.5825 46.7728L-79.9186 44.9699L-78.0363 61.4149L-76.1539 77.86L-74.2717 94.3597L-57.6078 92.5021L-55.7254 108.947L-53.8985 125.447L-37.1792 123.589L-35.3522 140.034L-33.4699 156.534L-16.7507 154.676L-14.9237 171.122L1.79559 169.319L3.6225 185.764L20.3418 183.906L37.0057 182.103L53.6697 180.245L51.8427 163.746L68.5067 161.943L66.6244 145.443L83.3437 143.64L81.4614 127.141L79.5791 110.695L77.7521 94.2504L61.0328 96.0533L59.1505 79.6083L57.3235 63.1633L40.6043 64.9662L38.7773 48.5211L22.058 50.3787L20.2311 33.879L18.3488 17.434L16.4665 0.988922L-0.197449 2.79187L-2.07971 -13.6532L-3.96204 -30.0983L-20.626 -28.2953L-22.5083 -44.7404L-24.3353 -61.1854L-41.0545 -59.3825L-42.9368 -75.8275L-44.7638 -92.2726L-61.4831 -90.415L-63.31 -106.915L-46.6461 -108.772L-29.9822 -110.575L-13.2629 -112.433L3.40106 -114.29L1.5188 -130.735L18.238 -132.593L34.902 -134.396L51.5659 -136.254L68.2853 -138.111L66.403 -154.556L83.0668 -156.414L99.7861 -158.271L116.45 -160.074L133.114 -161.932L149.833 -163.789L166.497 -165.647L183.161 -167.45L181.334 -183.95L197.998 -185.753L214.662 -187.61L231.381 -189.468L229.499 -205.913L246.163 -207.77L244.336 -224.215L261 -226.073L259.118 -242.518L257.291 -259.018L255.408 -275.463L238.689 -273.605Z" fill="currentColor"/>
</g>
<defs>
<clipPath id="clip0_0_130">
<rect width="288" height="288" fill="white"/>
</clipPath>
</defs>
</svg>
