<svg width="288" height="288" viewBox="0 0 288 288" fill="none" xmlns="http://www.w3.org/2000/svg">
<g clip-path="url(#clip0_0_128)">
<path d="M526.689 -273.605L524.862 -290.105L508.143 -288.247L506.316 -304.692L489.597 -302.89L472.933 -301.032L456.269 -299.174L439.55 -297.317L422.886 -295.514L406.222 -293.656L389.502 -291.799L391.385 -275.354L374.721 -273.496L358.001 -271.638L341.338 -269.835L324.674 -267.978L307.954 -266.12L309.837 -249.675L293.173 -247.818L276.453 -246.015L274.626 -262.46L291.29 -264.317L289.408 -280.762L306.127 -282.62L304.245 -299.065L320.909 -300.923L319.082 -317.368L317.2 -333.813L333.864 -335.67L331.981 -352.115L348.701 -353.973L346.818 -370.418L363.482 -372.276L361.655 -388.721L359.773 -405.22L376.437 -407.078L374.555 -423.523L372.728 -439.968L370.845 -456.468L368.963 -472.913L367.136 -489.358L350.417 -487.555L348.59 -504L331.871 -502.142L315.207 -500.339L298.543 -498.482L281.823 -496.624L265.16 -494.767L267.042 -478.322L250.323 -476.464L252.205 -460.019L235.541 -458.161L237.368 -441.716L239.25 -425.271L222.586 -423.414L224.413 -406.914L207.749 -405.111L209.632 -388.611L192.912 -386.808L194.795 -370.309L196.677 -353.864L180.013 -352.006L181.84 -335.561L165.176 -333.704L167.058 -317.258L168.885 -300.813L152.221 -298.956L154.104 -282.511L137.384 -280.653L120.72 -278.796L118.838 -295.241L117.011 -311.74L115.129 -328.185L98.4649 -326.328L96.5825 -342.828L94.7002 -359.273L78.0363 -357.415L76.154 -373.915L74.2717 -390.36L57.6078 -388.502L55.7255 -405.002L53.8985 -421.447L37.1792 -419.589L35.3523 -436.089L33.47 -452.534L16.7507 -450.676L14.9237 -467.176L-1.79558 -465.319L-3.62249 -481.764L-20.3418 -479.961L-37.0057 -478.103L-53.6697 -476.246L-51.8427 -459.8L-68.5066 -457.943L-66.6244 -441.498L-83.3436 -439.64L-81.4613 -423.195L-79.579 -406.696L-77.6967 -390.25L-75.8698 -373.805L-59.1505 -375.608L-57.3236 -359.163L-55.4412 -342.718L-38.7773 -344.521L-36.895 -328.076L-35.0127 -311.631L-18.3488 -313.434L-16.4665 -296.989L-14.5842 -280.544L2.07977 -282.347L3.96209 -265.902L5.789 -249.457L22.5083 -251.26L24.3353 -234.815L26.2176 -218.37L28.0999 -201.87L44.7638 -203.727L46.6461 -187.282L29.9822 -185.425L13.2629 -183.567L15.1452 -167.122L-1.51877 -165.265L-18.2381 -163.462L-34.902 -161.604L-51.5659 -159.747L-68.2852 -157.889L-66.4029 -141.444L-83.0668 -139.586L-99.7861 -137.783L-116.45 -135.926L-133.169 -134.068L-149.833 -132.211L-166.497 -130.408L-183.161 -128.55L-181.334 -112.105L-197.998 -110.247L-214.662 -108.39L-231.381 -106.532L-229.499 -90.0872L-246.163 -88.2296L-244.336 -71.7846L-261 -69.927L-259.118 -53.4819L-257.291 -37.0369L-255.408 -20.5372L-253.526 -4.09213L-236.862 -5.94966L-234.98 10.55L-218.316 8.69238L-201.597 6.83485L-199.77 23.2799L-183.05 21.4769L-166.387 19.6194L-149.723 17.7618L-151.55 1.31672L-134.886 -0.540865L-118.222 -2.34383L-101.502 -4.20137L-84.8384 -6.05899L-68.1745 -7.91653L-70.0014 -24.3616L-53.3375 -26.2192L-36.6736 -28.0221L-19.9543 -29.8797L-3.29035 -31.7373L-1.40803 -15.2922L-18.1273 -13.4347L-16.245 3.06502L-14.3627 19.5101L-31.082 21.3677L-29.1997 37.8127L-45.8636 39.6703L-43.9813 56.1153L-60.7006 57.9729L-58.8183 74.418L-75.4823 76.2756L-73.6553 92.7207L-71.773 109.22L-88.4369 111.023L-86.61 127.523L-84.7277 143.968L-101.392 145.826L-99.5647 162.271L-97.6824 178.716L-80.9631 176.913L-79.1361 193.358L-62.4169 191.5L-60.5899 208L-43.8706 206.142L-27.2067 204.285L-10.5427 202.482L6.17655 200.624L22.8405 198.767L20.9582 182.322L37.6775 180.464L35.7952 164.019L33.9129 147.519L50.6322 145.716L48.7498 129.217L65.4138 127.414L63.5869 110.914L80.2508 109.056L78.3685 92.6113L76.4862 76.1663L93.2055 74.3087L91.3231 57.8636L107.987 56.0061L106.16 39.561L122.824 37.7035L120.942 21.2584L137.661 19.4008L135.779 2.90111L133.896 -13.5439L150.56 -15.4015L152.443 1.09815L169.162 -0.759385L170.989 15.6857L172.871 32.1853L189.535 30.3278L191.417 46.7728L208.081 44.9699L209.964 61.4149L211.846 77.86L213.728 94.3597L230.392 92.5021L232.275 108.947L234.102 125.447L250.821 123.589L252.648 140.034L254.53 156.534L271.249 154.676L273.076 171.122L289.796 169.319L291.623 185.764L308.342 183.906L325.006 182.103L341.67 180.246L339.843 163.746L356.507 161.943L354.624 145.443L371.344 143.64L369.461 127.141L367.579 110.696L365.752 94.2504L349.033 96.0534L347.151 79.6083L345.324 63.1633L328.604 64.9662L326.777 48.5211L310.058 50.3787L308.231 33.879L306.349 17.434L304.467 0.988914L287.803 2.79188L285.92 -13.6532L284.038 -30.0983L267.374 -28.2953L265.492 -44.7404L263.665 -61.1854L246.945 -59.3825L245.063 -75.8275L243.236 -92.2726L226.517 -90.415L224.69 -106.915L241.354 -108.772L258.018 -110.575L274.737 -112.433L291.401 -114.29L289.519 -130.735L306.238 -132.593L322.902 -134.396L339.566 -136.254L356.285 -138.111L354.403 -154.556L371.067 -156.414L387.786 -158.271L404.45 -160.074L421.114 -161.932L437.833 -163.789L454.497 -165.647L471.161 -167.45L469.334 -183.95L485.998 -185.753L502.662 -187.61L519.381 -189.468L517.499 -205.913L534.163 -207.77L532.336 -224.215L549 -226.073L547.118 -242.518L545.291 -259.018L543.408 -275.463L526.689 -273.605Z" fill="#871C00"/>
</g>
<defs>
<clipPath id="clip0_0_128">
<rect width="288" height="288" fill="white"/>
</clipPath>
</defs>
</svg>
