<svg width="288" height="288" viewBox="0 0 288 288" fill="none" xmlns="http://www.w3.org/2000/svg">
<g clip-path="url(#clip0_0_105)">
<path d="M526.689 302.395L524.862 285.895L508.143 287.753L506.316 271.308L489.597 273.11L472.933 274.968L456.269 276.826L439.55 278.683L422.886 280.486L406.222 282.344L389.502 284.201L391.385 300.646L374.721 302.504L358.001 304.362L341.338 306.165L324.674 308.022L307.954 309.88L309.837 326.325L293.173 328.182L276.453 329.985L274.626 313.54L291.29 311.683L289.408 295.238L306.127 293.38L304.245 276.935L320.909 275.077L319.082 258.632L317.2 242.187L333.864 240.33L331.981 223.885L348.701 222.027L346.818 205.582L363.482 203.724L361.655 187.279L359.773 170.78L376.437 168.922L374.555 152.477L372.728 136.032L370.845 119.532L368.963 103.087L367.136 86.6421L350.417 88.4451L348.59 72L331.871 73.8576L315.207 75.6605L298.543 77.5181L281.823 79.3757L265.16 81.2333L267.042 97.6783L250.323 99.5359L252.205 115.981L235.541 117.839L237.368 134.284L239.25 150.729L222.586 152.586L224.413 169.086L207.749 170.889L209.632 187.389L192.912 189.192L194.795 205.691L196.677 222.136L180.013 223.994L181.84 240.439L165.176 242.296L167.058 258.742L168.885 275.187L152.221 277.044L154.104 293.489L137.384 295.347L120.72 297.204L118.838 280.759L117.011 264.26L115.129 247.815L98.4649 249.672L96.5825 233.172L94.7002 216.727L78.0363 218.585L76.154 202.085L74.2717 185.64L57.6078 187.498L55.7255 170.998L53.8985 154.553L37.1792 156.411L35.3523 139.911L33.47 123.466L16.7507 125.324L14.9237 108.824L-1.79558 110.681L-3.62249 94.2363L-20.3418 96.0393L-37.0057 97.8969L-53.6697 99.7544L-51.8427 116.2L-68.5066 118.057L-66.6244 134.502L-83.3436 136.36L-81.4613 152.805L-79.579 169.304L-77.6967 185.75L-75.8698 202.195L-59.1505 200.392L-57.3236 216.837L-55.4412 233.282L-38.7773 231.479L-36.895 247.924L-35.0127 264.369L-18.3488 262.566L-16.4665 279.011L-14.5842 295.456L2.07977 293.653L3.96209 310.098L5.789 326.543L22.5083 324.74L24.3353 341.185L26.2176 357.63L28.0999 374.13L44.7638 372.273L46.6461 388.718L29.9822 390.575L13.2629 392.433L15.1452 408.878L-1.51877 410.735L-18.2381 412.538L-34.902 414.396L-51.5659 416.253L-68.2852 418.111L-66.4029 434.556L-83.0668 436.414L-99.7861 438.217L-116.45 440.074L-133.169 441.932L-149.833 443.789L-166.497 445.592L-183.161 447.45L-181.334 463.895L-197.998 465.753L-214.662 467.61L-231.381 469.468L-229.499 485.913L-246.163 487.77L-244.336 504.215L-261 506.073L-259.118 522.518L-257.291 538.963L-255.408 555.463L-253.526 571.908L-236.862 570.05L-234.98 586.55L-218.316 584.692L-201.597 582.835L-199.77 599.28L-183.05 597.477L-166.387 595.619L-149.723 593.762L-151.55 577.317L-134.886 575.459L-118.222 573.656L-101.502 571.799L-84.8384 569.941L-68.1745 568.083L-70.0014 551.638L-53.3375 549.781L-36.6736 547.978L-19.9543 546.12L-3.29035 544.263L-1.40803 560.708L-18.1273 562.565L-16.245 579.065L-14.3627 595.51L-31.082 597.368L-29.1997 613.813L-45.8636 615.67L-43.9813 632.115L-60.7006 633.973L-58.8183 650.418L-75.4823 652.276L-73.6553 668.721L-71.773 685.22L-88.4369 687.023L-86.61 703.523L-84.7277 719.968L-101.392 721.826L-99.5647 738.271L-97.6824 754.716L-80.9631 752.913L-79.1361 769.358L-62.4169 767.5L-60.5899 784L-43.8706 782.142L-27.2067 780.285L-10.5427 778.482L6.17655 776.624L22.8405 774.767L20.9582 758.322L37.6775 756.464L35.7952 740.019L33.9129 723.519L50.6322 721.716L48.7498 705.217L65.4138 703.414L63.5869 686.914L80.2508 685.056L78.3685 668.611L76.4862 652.166L93.2055 650.309L91.3231 633.864L107.987 632.006L106.16 615.561L122.824 613.703L120.942 597.258L137.661 595.401L135.779 578.901L133.896 562.456L150.56 560.598L152.443 577.098L169.162 575.241L170.989 591.686L172.871 608.185L189.535 606.328L191.417 622.773L208.081 620.97L209.964 637.415L211.846 653.86L213.728 670.36L230.392 668.502L232.275 684.947L234.102 701.447L250.821 699.589L252.648 716.034L254.53 732.534L271.249 730.676L273.076 747.122L289.796 745.319L291.623 761.764L308.342 759.906L325.006 758.103L341.67 756.246L339.843 739.746L356.507 737.943L354.624 721.443L371.344 719.64L369.461 703.141L367.579 686.696L365.752 670.25L349.033 672.053L347.151 655.608L345.324 639.163L328.604 640.966L326.777 624.521L310.058 626.379L308.231 609.879L306.349 593.434L304.467 576.989L287.803 578.792L285.92 562.347L284.038 545.902L267.374 547.705L265.492 531.26L263.665 514.815L246.945 516.617L245.063 500.172L243.236 483.727L226.517 485.585L224.69 469.085L241.354 467.228L258.018 465.425L274.737 463.567L291.401 461.71L289.519 445.265L306.238 443.407L322.902 441.604L339.566 439.746L356.285 437.889L354.403 421.444L371.067 419.586L387.786 417.729L404.45 415.926L421.114 414.068L437.833 412.211L454.497 410.353L471.161 408.55L469.334 392.05L485.998 390.247L502.662 388.39L519.381 386.532L517.499 370.087L534.163 368.23L532.336 351.785L549 349.927L547.118 333.482L545.291 316.982L543.408 300.537L526.689 302.395Z" fill="#871C00"/>
</g>
<defs>
<clipPath id="clip0_0_105">
<rect width="288" height="288" fill="white"/>
</clipPath>
</defs>
</svg>
