<svg viewBox="0 0 288 288" fill="none" xmlns="http://www.w3.org/2000/svg">
<g clip-path="url(#clip0_0_103)">
<rect width="288" height="288" fill="#F3EEE7"/>
<path d="M814.689 302.395L812.862 285.895L796.143 287.753L794.316 271.308L777.597 273.111L760.933 274.968L744.269 276.826L727.549 278.683L710.886 280.486L694.222 282.344L677.502 284.201L679.385 300.646L662.721 302.504L646.001 304.362L629.338 306.165L612.674 308.022L595.954 309.88L597.837 326.325L581.173 328.182L564.453 329.985L562.626 313.54L579.29 311.683L577.408 295.238L594.127 293.38L592.245 276.935L608.909 275.077L607.082 258.632L605.2 242.187L621.864 240.33L619.981 223.885L636.701 222.027L634.818 205.582L651.482 203.724L649.655 187.279L647.773 170.78L664.437 168.922L662.555 152.477L660.728 136.032L658.845 119.532L656.963 103.087L655.136 86.6421L638.417 88.4451L636.59 72L619.871 73.8576L603.207 75.6605L586.543 77.5181L569.823 79.3757L553.16 81.2333L555.042 97.6783L538.323 99.5359L540.205 115.981L523.541 117.839L525.368 134.284L527.25 150.729L510.586 152.586L512.413 169.086L495.749 170.889L497.632 187.389L480.912 189.192L482.795 205.691L484.677 222.136L468.013 223.994L469.84 240.439L453.176 242.296L455.058 258.742L456.885 275.187L440.221 277.044L442.104 293.489L425.384 295.347L408.72 297.204L406.838 280.759L405.011 264.26L403.129 247.815L386.465 249.672L384.583 233.172L382.7 216.727L366.036 218.585L364.154 202.085L362.272 185.64L345.608 187.498L343.725 170.998L341.899 154.553L325.179 156.411L323.352 139.911L321.47 123.466L304.751 125.324L302.924 108.824L286.204 110.681L284.378 94.2363L267.658 96.0393L250.994 97.8969L234.33 99.7544L236.157 116.2L219.493 118.057L221.376 134.502L204.656 136.36L206.539 152.805L208.421 169.304L210.303 185.75L212.13 202.195L228.85 200.392L230.676 216.837L232.559 233.282L249.223 231.479L251.105 247.924L252.987 264.369L269.651 262.566L271.534 279.011L273.416 295.456L290.08 293.653L291.962 310.098L293.789 326.543L310.508 324.74L312.335 341.185L314.218 357.63L316.1 374.13L332.764 372.273L334.646 388.718L317.982 390.575L301.263 392.433L303.145 408.878L286.481 410.735L269.762 412.538L253.098 414.396L236.434 416.254L219.715 418.111L221.597 434.556L204.933 436.414L188.214 438.217L171.55 440.074L154.831 441.932L138.167 443.789L121.503 445.592L104.839 447.45L106.666 463.895L90.0019 465.753L73.3379 467.61L56.6186 469.468L58.5009 485.913L41.837 487.77L43.6639 504.215L27 506.073L28.8823 522.518L30.7092 538.963L32.5916 555.463L34.4739 571.908L51.1378 570.05L53.0201 586.55L69.684 584.692L86.4033 582.835L88.2303 599.28L104.95 597.477L121.613 595.619L138.277 593.762L136.45 577.317L153.114 575.459L169.778 573.656L186.498 571.799L203.162 569.941L219.826 568.083L217.999 551.638L234.663 549.781L251.326 547.978L268.046 546.12L284.71 544.263L286.592 560.708L269.873 562.565L271.755 579.065L273.637 595.51L256.918 597.368L258.8 613.813L242.136 615.67L244.019 632.115L227.299 633.973L229.182 650.418L212.518 652.276L214.345 668.721L216.227 685.22L199.563 687.023L201.39 703.523L203.272 719.968L186.608 721.826L188.435 738.271L190.318 754.716L207.037 752.913L208.864 769.358L225.583 767.5L227.41 784L244.129 782.142L260.793 780.285L277.457 778.482L294.177 776.624L310.84 774.767L308.958 758.322L325.677 756.464L323.795 740.019L321.913 723.519L338.632 721.716L336.75 705.217L353.414 703.414L351.587 686.914L368.251 685.056L366.368 668.611L364.486 652.166L381.205 650.309L379.323 633.864L395.987 632.006L394.16 615.561L410.824 613.703L408.942 597.258L425.661 595.401L423.779 578.901L421.896 562.456L438.56 560.598L440.443 577.098L457.162 575.241L458.989 591.686L460.871 608.185L477.535 606.328L479.417 622.773L496.081 620.97L497.964 637.415L499.846 653.86L501.728 670.36L518.392 668.502L520.275 684.947L522.102 701.447L538.821 699.589L540.648 716.034L542.53 732.534L559.249 730.676L561.076 747.122L577.796 745.319L579.622 761.764L596.342 759.906L613.006 758.103L629.67 756.245L627.843 739.746L644.507 737.943L642.624 721.443L659.344 719.64L657.461 703.141L655.579 686.695L653.752 670.25L637.033 672.053L635.151 655.608L633.324 639.163L616.604 640.966L614.777 624.521L598.058 626.379L596.231 609.879L594.349 593.434L592.466 576.989L575.803 578.792L573.92 562.347L572.038 545.902L555.374 547.705L553.492 531.26L551.665 514.815L534.945 516.617L533.063 500.172L531.236 483.727L514.517 485.585L512.69 469.085L529.354 467.228L546.018 465.425L562.737 463.567L579.401 461.71L577.519 445.265L594.238 443.407L610.902 441.604L627.566 439.746L644.285 437.889L642.403 421.444L659.067 419.586L675.786 417.729L692.45 415.926L709.114 414.068L725.833 412.211L742.497 410.353L759.161 408.55L757.334 392.05L773.998 390.247L790.662 388.39L807.381 386.532L805.499 370.087L822.163 368.23L820.336 351.785L837 349.927L835.118 333.482L833.291 316.982L831.408 300.537L814.689 302.395Z" fill="currentColor"/>
</g>
<defs>
<clipPath id="clip0_0_103">
<rect width="288" height="288" fill="white"/>
</clipPath>
</defs>
</svg>
