<svg width="288" height="288" viewBox="0 0 288 288" fill="none" xmlns="http://www.w3.org/2000/svg">
<g clip-path="url(#clip0_0_126)">
<path d="M814.689 -273.605L812.862 -290.105L796.143 -288.247L794.316 -304.692L777.597 -302.89L760.933 -301.032L744.269 -299.174L727.55 -297.317L710.886 -295.514L694.222 -293.656L677.502 -291.799L679.385 -275.354L662.721 -273.496L646.001 -271.638L629.338 -269.835L612.674 -267.978L595.954 -266.12L597.837 -249.675L581.173 -247.818L564.453 -246.015L562.626 -262.46L579.29 -264.317L577.408 -280.762L594.127 -282.62L592.245 -299.065L608.909 -300.923L607.082 -317.368L605.2 -333.813L621.864 -335.67L619.981 -352.115L636.701 -353.973L634.818 -370.418L651.482 -372.276L649.655 -388.721L647.773 -405.22L664.437 -407.078L662.555 -423.523L660.728 -439.968L658.845 -456.468L656.963 -472.913L655.136 -489.358L638.417 -487.555L636.59 -504L619.871 -502.142L603.207 -500.339L586.543 -498.482L569.823 -496.624L553.16 -494.767L555.042 -478.322L538.323 -476.464L540.205 -460.019L523.541 -458.161L525.368 -441.716L527.25 -425.271L510.586 -423.414L512.413 -406.914L495.749 -405.111L497.632 -388.611L480.912 -386.808L482.795 -370.309L484.677 -353.864L468.013 -352.006L469.84 -335.561L453.176 -333.704L455.058 -317.258L456.885 -300.813L440.221 -298.956L442.104 -282.511L425.384 -280.653L408.72 -278.796L406.838 -295.241L405.011 -311.74L403.129 -328.185L386.465 -326.328L384.583 -342.828L382.7 -359.273L366.036 -357.415L364.154 -373.915L362.272 -390.36L345.608 -388.502L343.725 -405.002L341.899 -421.447L325.179 -419.589L323.352 -436.089L321.47 -452.534L304.751 -450.676L302.924 -467.176L286.204 -465.319L284.378 -481.764L267.658 -479.961L250.994 -478.103L234.33 -476.246L236.157 -459.8L219.493 -457.943L221.376 -441.498L204.656 -439.64L206.539 -423.195L208.421 -406.696L210.303 -390.25L212.13 -373.805L228.85 -375.608L230.676 -359.163L232.559 -342.718L249.223 -344.521L251.105 -328.076L252.987 -311.631L269.651 -313.434L271.534 -296.989L273.416 -280.544L290.08 -282.347L291.962 -265.902L293.789 -249.457L310.508 -251.26L312.335 -234.815L314.218 -218.37L316.1 -201.87L332.764 -203.727L334.646 -187.282L317.982 -185.425L301.263 -183.567L303.145 -167.122L286.481 -165.265L269.762 -163.462L253.098 -161.604L236.434 -159.747L219.715 -157.889L221.597 -141.444L204.933 -139.586L188.214 -137.783L171.55 -135.926L154.831 -134.068L138.167 -132.211L121.503 -130.408L104.839 -128.55L106.666 -112.105L90.0018 -110.247L73.3379 -108.39L56.6186 -106.532L58.5009 -90.0872L41.837 -88.2296L43.6639 -71.7846L27 -69.927L28.8823 -53.4819L30.7092 -37.0369L32.5916 -20.5372L34.4739 -4.09213L51.1378 -5.94966L53.0201 10.55L69.684 8.69238L86.4033 6.83485L88.2303 23.2799L104.95 21.4769L121.613 19.6194L138.277 17.7618L136.45 1.31672L153.114 -0.540865L169.778 -2.34383L186.498 -4.20137L203.162 -6.05899L219.826 -7.91653L217.999 -24.3616L234.663 -26.2192L251.326 -28.0221L268.046 -29.8797L284.71 -31.7373L286.592 -15.2922L269.873 -13.4347L271.755 3.06502L273.637 19.5101L256.918 21.3677L258.8 37.8127L242.136 39.6703L244.019 56.1153L227.299 57.9729L229.182 74.418L212.518 76.2756L214.345 92.7207L216.227 109.22L199.563 111.023L201.39 127.523L203.272 143.968L186.608 145.826L188.435 162.271L190.318 178.716L207.037 176.913L208.864 193.358L225.583 191.5L227.41 208L244.129 206.142L260.793 204.285L277.457 202.482L294.177 200.624L310.84 198.767L308.958 182.322L325.677 180.464L323.795 164.019L321.913 147.519L338.632 145.716L336.75 129.217L353.414 127.414L351.587 110.914L368.251 109.056L366.368 92.6113L364.486 76.1663L381.205 74.3087L379.323 57.8636L395.987 56.0061L394.16 39.561L410.824 37.7035L408.942 21.2584L425.661 19.4008L423.779 2.90111L421.896 -13.5439L438.56 -15.4015L440.443 1.09815L457.162 -0.759385L458.989 15.6857L460.871 32.1853L477.535 30.3278L479.417 46.7728L496.081 44.9699L497.964 61.4149L499.846 77.86L501.728 94.3597L518.392 92.5021L520.275 108.947L522.102 125.447L538.821 123.589L540.648 140.034L542.53 156.534L559.249 154.676L561.076 171.122L577.796 169.319L579.623 185.764L596.342 183.906L613.006 182.103L629.67 180.246L627.843 163.746L644.507 161.943L642.624 145.443L659.344 143.64L657.461 127.141L655.579 110.696L653.752 94.2504L637.033 96.0534L635.151 79.6083L633.324 63.1633L616.604 64.9662L614.777 48.5211L598.058 50.3787L596.231 33.879L594.349 17.434L592.467 0.988914L575.803 2.79188L573.92 -13.6532L572.038 -30.0983L555.374 -28.2953L553.492 -44.7404L551.665 -61.1854L534.945 -59.3825L533.063 -75.8275L531.236 -92.2726L514.517 -90.415L512.69 -106.915L529.354 -108.772L546.018 -110.575L562.737 -112.433L579.401 -114.29L577.519 -130.735L594.238 -132.593L610.902 -134.396L627.566 -136.254L644.285 -138.111L642.403 -154.556L659.067 -156.414L675.786 -158.271L692.45 -160.074L709.114 -161.932L725.833 -163.789L742.497 -165.647L759.161 -167.45L757.334 -183.95L773.998 -185.753L790.662 -187.61L807.381 -189.468L805.499 -205.913L822.163 -207.77L820.336 -224.215L837 -226.073L835.118 -242.518L833.291 -259.018L831.408 -275.463L814.689 -273.605Z" fill="#871C00"/>
</g>
<defs>
<clipPath id="clip0_0_126">
<rect width="288" height="288" fill="white"/>
</clipPath>
</defs>
</svg>
