<svg width="280" height="280" viewBox="0 0 280 280" fill="none" xmlns="http://www.w3.org/2000/svg">
<rect width="280" height="280" fill="#F3EEE7"/>
<path d="M174.413 176.728V162.552H177.081V164.804H177.228C177.487 164.041 177.942 163.441 178.594 163.004C179.253 162.561 179.997 162.339 180.828 162.339C181 162.339 181.203 162.346 181.437 162.358C181.677 162.37 181.865 162.386 182 162.404V165.044C181.889 165.013 181.692 164.979 181.409 164.942C181.126 164.899 180.843 164.878 180.56 164.878C179.908 164.878 179.326 165.016 178.816 165.293C178.311 165.564 177.911 165.942 177.616 166.428C177.321 166.908 177.173 167.456 177.173 168.071V176.728H174.413Z" fill="#333230"/>
<path d="M163.741 177.042C162.843 177.042 162.031 176.876 161.305 176.544C160.579 176.205 160.003 175.716 159.579 175.076C159.16 174.436 158.951 173.652 158.951 172.723C158.951 171.923 159.105 171.264 159.413 170.748C159.72 170.231 160.136 169.822 160.659 169.52C161.182 169.219 161.766 168.991 162.412 168.837C163.058 168.683 163.717 168.566 164.388 168.486C165.237 168.388 165.926 168.308 166.455 168.246C166.984 168.179 167.369 168.071 167.609 167.923C167.849 167.776 167.969 167.536 167.969 167.203V167.139C167.969 166.333 167.741 165.708 167.286 165.265C166.836 164.822 166.166 164.601 165.274 164.601C164.344 164.601 163.612 164.807 163.077 165.219C162.548 165.625 162.182 166.077 161.979 166.576L159.385 165.985C159.693 165.124 160.142 164.428 160.733 163.899C161.329 163.364 162.016 162.976 162.791 162.736C163.566 162.49 164.381 162.367 165.237 162.367C165.803 162.367 166.403 162.435 167.036 162.57C167.676 162.699 168.273 162.939 168.827 163.29C169.387 163.641 169.845 164.142 170.202 164.794C170.559 165.441 170.738 166.28 170.738 167.314V176.728H168.042V174.79H167.932C167.753 175.147 167.486 175.498 167.129 175.842C166.772 176.187 166.313 176.473 165.754 176.701C165.194 176.928 164.523 177.042 163.741 177.042ZM164.341 174.827C165.104 174.827 165.757 174.676 166.298 174.375C166.846 174.073 167.261 173.68 167.544 173.193C167.833 172.701 167.978 172.175 167.978 171.615V169.788C167.879 169.886 167.689 169.978 167.406 170.065C167.129 170.145 166.812 170.215 166.455 170.277C166.098 170.332 165.75 170.385 165.412 170.434C165.074 170.477 164.791 170.514 164.563 170.545C164.028 170.612 163.538 170.726 163.095 170.886C162.659 171.046 162.308 171.277 162.043 171.578C161.785 171.874 161.656 172.267 161.656 172.76C161.656 173.443 161.908 173.96 162.412 174.31C162.917 174.655 163.56 174.827 164.341 174.827Z" fill="#333230"/>
<path d="M143.575 182.045V162.552H146.27V164.85H146.5C146.66 164.555 146.891 164.213 147.193 163.825C147.494 163.438 147.913 163.099 148.448 162.81C148.983 162.515 149.691 162.367 150.571 162.367C151.715 162.367 152.737 162.656 153.635 163.235C154.533 163.813 155.238 164.647 155.749 165.736C156.265 166.825 156.524 168.136 156.524 169.668C156.524 171.2 156.269 172.514 155.758 173.609C155.247 174.698 154.546 175.538 153.653 176.128C152.761 176.713 151.743 177.005 150.598 177.005C149.737 177.005 149.032 176.861 148.485 176.572C147.943 176.282 147.519 175.944 147.211 175.556C146.904 175.169 146.667 174.824 146.5 174.523H146.334V182.045H143.575ZM146.279 169.64C146.279 170.637 146.424 171.511 146.713 172.261C147.002 173.012 147.42 173.6 147.968 174.024C148.516 174.443 149.186 174.652 149.98 174.652C150.805 174.652 151.494 174.433 152.048 173.996C152.601 173.553 153.02 172.953 153.303 172.197C153.592 171.44 153.737 170.588 153.737 169.64C153.737 168.705 153.595 167.865 153.312 167.12C153.035 166.376 152.617 165.788 152.057 165.357C151.503 164.927 150.811 164.711 149.98 164.711C149.18 164.711 148.503 164.918 147.95 165.33C147.402 165.742 146.987 166.317 146.704 167.056C146.42 167.794 146.279 168.656 146.279 169.64Z" fill="#333230"/>
<path d="M127.552 177.015C126.155 177.015 124.952 176.716 123.943 176.119C122.94 175.516 122.165 174.67 121.617 173.581C121.076 172.486 120.805 171.203 120.805 169.732C120.805 168.28 121.076 167 121.617 165.893C122.165 164.785 122.928 163.921 123.906 163.299C124.891 162.678 126.041 162.367 127.358 162.367C128.158 162.367 128.933 162.499 129.684 162.764C130.435 163.029 131.109 163.444 131.705 164.01C132.302 164.576 132.773 165.311 133.118 166.216C133.462 167.114 133.634 168.206 133.634 169.492V170.471H122.365V168.403H130.93C130.93 167.677 130.782 167.034 130.487 166.474C130.192 165.908 129.776 165.462 129.241 165.136C128.712 164.81 128.09 164.647 127.377 164.647C126.601 164.647 125.925 164.838 125.346 165.219C124.774 165.594 124.331 166.087 124.017 166.696C123.709 167.299 123.556 167.954 123.556 168.662V170.277C123.556 171.224 123.722 172.031 124.054 172.695C124.392 173.36 124.863 173.867 125.466 174.218C126.069 174.563 126.774 174.735 127.58 174.735C128.103 174.735 128.58 174.661 129.01 174.513C129.441 174.359 129.813 174.132 130.127 173.83C130.441 173.529 130.681 173.157 130.847 172.714L133.459 173.184C133.25 173.953 132.874 174.627 132.333 175.206C131.798 175.778 131.124 176.224 130.312 176.544C129.506 176.858 128.586 177.015 127.552 177.015ZM126.112 160.66L128.272 156.405H131.179L128.318 160.66H126.112Z" fill="#333230"/>
<path d="M118.542 162.552V164.767H110.798V162.552H118.542ZM112.875 159.155H115.634V172.566C115.634 173.101 115.714 173.504 115.874 173.775C116.034 174.04 116.24 174.221 116.493 174.319C116.751 174.412 117.031 174.458 117.332 174.458C117.554 174.458 117.748 174.443 117.914 174.412C118.08 174.381 118.209 174.356 118.302 174.338L118.8 176.618C118.64 176.679 118.412 176.741 118.117 176.802C117.822 176.87 117.452 176.907 117.009 176.913C116.283 176.925 115.607 176.796 114.979 176.525C114.351 176.255 113.844 175.836 113.456 175.27C113.068 174.704 112.875 173.993 112.875 173.138V159.155Z" fill="#333230"/>
<path d="M99.1501 168.311V176.728H96.3904V162.552H99.0393V164.859H99.2147C99.5408 164.108 100.052 163.505 100.747 163.05C101.448 162.595 102.331 162.367 103.396 162.367C104.362 162.367 105.208 162.57 105.934 162.976C106.66 163.376 107.223 163.973 107.623 164.767C108.023 165.561 108.223 166.542 108.223 167.711V176.728H105.463V168.043C105.463 167.016 105.196 166.213 104.66 165.634C104.125 165.05 103.39 164.758 102.454 164.758C101.814 164.758 101.245 164.896 100.747 165.173C100.255 165.45 99.8638 165.856 99.5747 166.391C99.2916 166.92 99.1501 167.56 99.1501 168.311Z" fill="#333230"/>
<path d="M87.2462 177.015C85.8494 177.015 84.6465 176.716 83.6374 176.119C82.6344 175.516 81.8591 174.67 81.3115 173.581C80.77 172.486 80.4993 171.203 80.4993 169.732C80.4993 168.28 80.77 167 81.3115 165.893C81.8591 164.785 82.6221 163.921 83.6004 163.299C84.5849 162.678 85.7356 162.367 87.0523 162.367C87.8522 162.367 88.6275 162.499 89.3782 162.764C90.1289 163.029 90.8026 163.444 91.3995 164.01C91.9963 164.576 92.4671 165.311 92.8116 166.216C93.1562 167.114 93.3285 168.206 93.3285 169.492V170.471H82.0591V168.403H90.6242C90.6242 167.677 90.4765 167.034 90.1812 166.474C89.8858 165.908 89.4705 165.462 88.9352 165.136C88.406 164.81 87.7846 164.647 87.0708 164.647C86.2955 164.647 85.6187 164.838 85.0403 165.219C84.468 165.594 84.025 166.087 83.7112 166.696C83.4035 167.299 83.2497 167.954 83.2497 168.662V170.277C83.2497 171.224 83.4159 172.031 83.7481 172.695C84.0865 173.36 84.5572 173.867 85.1603 174.218C85.7633 174.563 86.4678 174.735 87.2738 174.735C87.7969 174.735 88.2737 174.661 88.7044 174.513C89.1352 174.359 89.5074 174.132 89.8212 173.83C90.135 173.529 90.375 173.157 90.5411 172.714L93.1531 173.184C92.9439 173.953 92.5686 174.627 92.0271 175.206C91.4918 175.778 90.818 176.224 90.0058 176.544C89.1998 176.858 88.2799 177.015 87.2462 177.015Z" fill="#333230"/>
<path d="M77.825 166.013L75.3238 166.456C75.2191 166.136 75.053 165.831 74.8254 165.542C74.6038 165.253 74.3023 165.016 73.9208 164.831C73.5394 164.647 73.0625 164.555 72.4903 164.555C71.7088 164.555 71.0566 164.73 70.5336 165.081C70.0106 165.425 69.749 165.871 69.749 166.419C69.749 166.893 69.9244 167.274 70.2751 167.563C70.6259 167.853 71.1919 168.089 71.9734 168.274L74.2254 168.791C75.5299 169.092 76.5021 169.557 77.142 170.185C77.7819 170.812 78.1019 171.627 78.1019 172.63C78.1019 173.48 77.8558 174.236 77.3635 174.901C76.8774 175.559 76.1975 176.076 75.3238 176.452C74.4562 176.827 73.4501 177.015 72.3057 177.015C70.7182 177.015 69.4229 176.676 68.42 175.999C67.417 175.316 66.8017 174.347 66.5741 173.092L69.2414 172.686C69.4076 173.381 69.749 173.907 70.2659 174.264C70.7828 174.615 71.4565 174.79 72.2872 174.79C73.1917 174.79 73.9147 174.603 74.4562 174.227C74.9976 173.846 75.2684 173.381 75.2684 172.833C75.2684 172.39 75.1022 172.018 74.77 171.717C74.4439 171.415 73.9424 171.188 73.2655 171.034L70.8658 170.508C69.5429 170.206 68.5646 169.726 67.9308 169.068C67.3032 168.409 66.9894 167.576 66.9894 166.567C66.9894 165.73 67.2232 164.998 67.6908 164.37C68.1585 163.742 68.8045 163.253 69.6291 162.902C70.4536 162.546 71.3981 162.367 72.4626 162.367C73.9947 162.367 75.2007 162.699 76.0806 163.364C76.9605 164.022 77.5419 164.905 77.825 166.013Z" fill="#333230"/>
<path d="M58.0574 177.015C56.6606 177.015 55.4577 176.716 54.4486 176.119C53.4456 175.516 52.6704 174.67 52.1227 173.581C51.5813 172.486 51.3105 171.203 51.3105 169.732C51.3105 168.28 51.5813 167 52.1227 165.893C52.6704 164.785 53.4333 163.921 54.4117 163.299C55.3962 162.678 56.5468 162.367 57.8636 162.367C58.6635 162.367 59.4388 162.499 60.1894 162.764C60.9401 163.029 61.6139 163.444 62.2107 164.01C62.8076 164.576 63.2783 165.311 63.6229 166.216C63.9674 167.114 64.1397 168.206 64.1397 169.492V170.471H52.8703V168.403H61.4354C61.4354 167.677 61.2878 167.034 60.9924 166.474C60.6971 165.908 60.2817 165.462 59.7464 165.136C59.2173 164.81 58.5958 164.647 57.882 164.647C57.1067 164.647 56.4299 164.838 55.8515 165.219C55.2793 165.594 54.8362 166.087 54.5224 166.696C54.2148 167.299 54.061 167.954 54.061 168.662V170.277C54.061 171.224 54.2271 172.031 54.5594 172.695C54.8978 173.36 55.3685 173.867 55.9715 174.218C56.5745 174.563 57.279 174.735 58.0851 174.735C58.6081 174.735 59.085 174.661 59.5157 174.513C59.9464 174.359 60.3187 174.132 60.6325 173.83C60.9463 173.529 61.1862 173.157 61.3524 172.714L63.9644 173.184C63.7552 173.953 63.3798 174.627 62.8384 175.206C62.303 175.778 61.6293 176.224 60.8171 176.544C60.011 176.858 59.0911 177.015 58.0574 177.015ZM56.6176 160.66L58.7773 156.405H61.6846L58.8235 160.66H56.6176Z" fill="#333230"/>
<path d="M42.4801 176.728V162.552H45.1474V164.804H45.2951C45.5535 164.041 46.0089 163.441 46.6611 163.004C47.3195 162.561 48.064 162.339 48.8947 162.339C49.067 162.339 49.27 162.346 49.5038 162.358C49.7438 162.37 49.9315 162.386 50.0668 162.404V165.044C49.9561 165.013 49.7592 164.979 49.4761 164.942C49.1931 164.899 48.9101 164.878 48.627 164.878C47.9748 164.878 47.3933 165.016 46.8826 165.293C46.3781 165.564 45.9781 165.942 45.6828 166.428C45.3874 166.908 45.2397 167.456 45.2397 168.071V176.728H42.4801Z" fill="#333230"/>
<path d="M26.0767 176.728V157.826H32.8143C34.2849 157.826 35.5032 158.094 36.4693 158.629C37.4353 159.164 38.1583 159.897 38.6382 160.826C39.1182 161.749 39.3581 162.789 39.3581 163.945C39.3581 165.108 39.1151 166.154 38.629 167.083C38.149 168.006 37.423 168.739 36.4508 169.28C35.4848 169.815 34.2695 170.083 32.8051 170.083H28.1718V167.665H32.5467C33.4758 167.665 34.2295 167.505 34.8079 167.185C35.3863 166.859 35.8109 166.416 36.0816 165.856C36.3523 165.296 36.4877 164.659 36.4877 163.945C36.4877 163.232 36.3523 162.598 36.0816 162.044C35.8109 161.49 35.3832 161.056 34.7987 160.743C34.2203 160.429 33.4573 160.272 32.5097 160.272H28.9286V176.728H26.0767Z" fill="#333230"/>
<g clip-path="url(#clip0_0_16)">
<path d="M89.6063 198.612C94.1576 198.728 99.6989 197.757 103.207 201.218C106.481 204.448 106.406 210.066 103.138 213.284C100.363 215.811 97.6727 215.805 94.1882 215.799L89.607 215.799L89.6063 198.612ZM93.1724 212.636C95.7525 212.649 98.4468 212.954 100.454 211.08C102.486 208.991 102.616 205.482 100.506 203.385C98.5982 201.489 95.675 201.802 93.1697 201.814C93.1699 205.394 93.1251 209.065 93.1724 212.636Z" fill="#333230"/>
<path d="M138.711 225.031C140.113 224.742 141.877 225.433 143.102 226.042C143.331 225.98 143.095 225.749 143.294 225.414C143.915 225.324 145.792 225.382 146.532 225.39C146.63 227.829 146.567 230.397 146.562 232.844C146.556 235.856 147.198 239.803 144.301 241.762C141.72 243.507 137.369 243.488 134.775 241.775C134.155 241.365 133.7 240.801 133.27 240.214L134.29 239.459C134.882 239.003 135.483 238.56 136.096 238.131C136.246 238.319 136.404 238.501 136.569 238.675C138.311 240.482 141.543 240.57 142.844 238.18C143.161 237.596 143.195 236.935 143.208 236.283C142.143 237.003 141.345 237.235 140.067 237.387C134.429 238.054 130.63 231.712 134.272 227.31C135.412 225.931 136.908 225.191 138.711 225.031ZM140.05 234.578C141.941 234.383 143.318 232.724 143.136 230.86C142.955 228.996 141.282 227.625 139.389 227.788C137.472 227.952 136.059 229.625 136.243 231.512C136.427 233.398 138.137 234.775 140.05 234.578Z" fill="#333230"/>
<path d="M160.517 202.653C162.141 202.477 163.776 202.875 165.129 203.777L165.126 202.998L168.441 202.995L168.455 210.932C168.464 213.819 169.005 217.389 166.292 219.314C163.801 221.082 159.553 221.092 156.94 219.562C156.19 219.123 155.685 218.521 155.174 217.844L155.94 217.258L157.974 215.735L158.038 215.807C158.955 216.84 159.748 217.535 161.193 217.586C163.845 217.68 164.991 216.335 165.129 213.886C161.19 216.606 155.33 214.365 154.797 209.507C154.411 205.982 156.976 203.011 160.517 202.653ZM162.068 212.18C163.955 211.922 165.276 210.21 165.024 208.349C164.771 206.489 163.04 205.179 161.151 205.418C159.247 205.659 157.906 207.38 158.159 209.253C158.414 211.127 160.167 212.44 162.068 212.18Z" fill="#333230"/>
<path d="M120.778 202.655C122.686 202.502 124.041 202.934 125.586 203.991L125.589 202.999L129.041 202.995C128.942 207.094 129.018 211.675 129.042 215.797L125.593 215.799L125.573 214.831C125.166 215.131 124.898 215.281 124.452 215.526C117.309 218.498 112.212 210.663 116.462 204.964C117.443 203.648 119.135 202.823 120.778 202.655ZM122.693 213.134C124.921 212.498 126.075 210.436 125.419 208.241C125.134 207.291 124.477 206.491 123.594 206.017C122.771 205.576 122.155 205.572 121.254 205.633C116.518 206.657 117.715 214.111 122.693 213.134Z" fill="#333230"/>
<path d="M145.116 202.585C148.955 202.171 152.405 204.908 152.812 208.691C153.22 212.474 150.43 215.863 146.589 216.252C142.765 216.639 139.344 213.906 138.938 210.141C138.532 206.376 141.296 202.997 145.116 202.585ZM146.344 213.111C148.424 212.853 149.893 210.977 149.619 208.929C149.345 206.882 147.433 205.444 145.356 205.725C143.295 206.004 141.85 207.871 142.122 209.902C142.393 211.934 144.28 213.368 146.344 213.111Z" fill="#333230"/>
<path d="M150.237 219.734L153.702 219.73C153.619 221.864 153.709 224.337 153.678 226.523C156.59 223.833 161.896 224.722 162.772 228.845C163.042 230.111 162.95 231.542 162.95 232.839L162.946 238.166L159.517 238.166C159.489 236.469 159.512 234.708 159.511 233.006C159.521 231.712 159.703 229.802 158.689 228.836C157.071 227.312 154.246 228.349 153.907 230.51C153.522 232.956 153.689 235.674 153.703 238.167L150.243 238.167C150.185 236.161 150.234 233.916 150.234 231.895L150.237 219.734Z" fill="#333230"/>
<path d="M104.061 225.031C105.482 224.818 107.222 225.393 108.236 226.396C108.892 227.055 109.355 227.876 109.575 228.773C109.875 229.956 109.79 231.93 109.787 233.202L109.784 238.166L106.328 238.166C106.264 236.316 106.621 230.999 106 229.614C105.728 229.005 105.256 228.479 104.611 228.243C103.806 227.949 102.849 228.161 102.095 228.502C100.254 229.775 100.508 232.133 100.511 234.098L100.52 238.166L97.0361 238.166C96.9896 233.932 97.034 229.619 97.035 225.379L100.523 225.388L100.516 226.497C101.58 225.508 102.628 225.157 104.061 225.031Z" fill="#333230"/>
<path d="M117.405 225.031C120.263 224.677 122.83 226.053 123.666 228.824C122.569 229.025 121.475 229.238 120.384 229.462C120.23 229.024 120.139 228.742 119.797 228.391C118.986 227.567 117.305 227.402 116.44 228.212C115.882 228.736 116.059 229.518 116.711 229.787C118.64 230.582 121.066 230.329 122.723 231.765C123.404 232.355 123.752 233.252 123.776 234.139C123.897 237.349 121.193 238.449 118.388 238.555C115.593 238.655 112.768 237.794 112.249 234.77C113.373 234.585 114.575 234.32 115.694 234.084C115.866 234.613 115.889 234.753 116.32 235.206C117.18 236.113 120.42 236.193 120.387 234.522C120.37 233.623 119.049 233.424 118.311 233.274C116.839 232.974 115.096 232.802 113.881 231.831C111.72 230.021 112.619 226.559 115.142 225.551C116.006 225.206 116.492 225.11 117.405 225.031Z" fill="#333230"/>
<path d="M167.479 221.519C168.54 221.564 169.846 221.529 170.926 221.529C170.868 222.71 170.911 224.189 170.913 225.391L175.172 225.388C175.147 226.292 175.169 227.281 175.17 228.191L170.908 228.198C170.97 231.466 169.64 237.243 174.958 234.778L175.668 236.825C175.749 237.014 175.868 237.397 175.941 237.606C173.836 238.827 170.612 239.053 168.744 237.241C167.251 235.793 167.441 233.487 167.446 231.579L167.458 228.191L164.659 228.198C164.646 227.259 164.648 226.319 164.663 225.38L167.456 225.386C167.449 224.223 167.398 222.643 167.479 221.519Z" fill="#333230"/>
<path d="M132.659 197.356L136.104 197.354L136.111 215.758C135.668 215.846 133.226 215.801 132.658 215.798C132.6 213.511 132.648 210.999 132.648 208.689L132.659 197.356Z" fill="#333230"/>
<path d="M89.6104 221.004C90.7537 221.024 92.037 221.039 93.1702 220.994L93.1742 238.167H89.6109C89.5006 232.589 89.5925 226.611 89.6104 221.004Z" fill="#333230"/>
<path d="M126.716 225.38L130.184 225.389C130.081 226.647 130.148 229.024 130.151 230.349C130.157 232.897 130.104 235.596 130.174 238.132C129.893 238.209 127.166 238.171 126.716 238.168C126.618 234.084 126.683 229.487 126.716 225.38Z" fill="#333230"/>
<path d="M108.745 203.001L112.175 202.995L112.177 215.794L108.744 215.799C108.634 211.746 108.722 207.089 108.745 203.001Z" fill="#333230"/>
<path d="M110.283 197.157C111.417 197.067 112.413 197.894 112.515 199.01C112.617 200.126 111.788 201.115 110.656 201.226C109.508 201.339 108.487 200.508 108.384 199.377C108.28 198.245 109.134 197.248 110.283 197.157Z" fill="#333230"/>
<path d="M127.894 219.605C128.996 219.314 130.13 219.954 130.431 221.038C130.732 222.122 130.087 223.242 128.988 223.544C127.882 223.848 126.735 223.207 126.432 222.116C126.129 221.025 126.785 219.898 127.894 219.605Z" fill="#333230"/>
<path d="M32.9296 194H48.3107L48.3704 194.012C48.8476 194.103 49.952 194.109 50.4883 194.141C51.5699 194.199 52.6471 194.32 53.7145 194.502C60.7183 195.652 66.6967 198.872 70.8509 204.666C74.6697 209.992 75.6626 217.355 74.4903 223.69C73.4305 229.674 69.9511 234.978 64.8487 238.388C62.2001 240.183 59.2329 241.472 56.1013 242.189C56.0135 242.593 55.8685 243.145 55.582 243.456C54.7957 244.308 53.8802 245.131 53.0328 245.929L48.2429 250.434L44.6219 253.856C43.8272 254.607 42.851 255.731 41.7879 256H41.1012C39.1823 255.468 39.1831 254.249 39.2057 252.595C39.215 251.915 39.2064 251.198 39.2069 250.515L39.216 243.137L35.2249 243.142C32.4427 243.143 30.3477 243.202 27.9086 241.504C25.4654 239.803 24.5067 237.696 24.0005 234.91V202.296C24.2734 200.612 24.6633 199.29 25.6881 197.86C26.9302 196.128 28.745 194.876 30.832 194.337C31.5332 194.156 32.2254 194.12 32.9296 194ZM47.7816 247.646L51.7883 243.857C52.3614 243.317 53.2369 242.543 53.7585 241.996L53.7536 232.067C53.7541 231.156 53.8112 228.111 53.668 227.369C53.3397 227.088 49.6841 227.188 49.002 227.188L41.7289 227.195C41.4895 227.531 41.5788 229.684 41.5788 230.272L41.5808 235.414C41.5841 241.38 41.6559 247.552 41.5767 253.502C43.6275 251.532 45.6959 249.58 47.7816 247.646ZM48.6213 220.946C52.555 220.421 55.3135 216.856 54.7845 212.981C54.2554 209.105 50.639 206.384 46.7042 206.902C42.7644 207.42 39.9984 210.988 40.5281 214.869C41.0578 218.75 44.6824 221.471 48.6213 220.946Z" fill="#333230"/>
</g>
<defs>
<clipPath id="clip0_0_16">
<rect width="152" height="62" fill="white" transform="translate(24 194)"/>
</clipPath>
</defs>
</svg>
