<svg viewBox="0 0 280 280" fill="none" xmlns="http://www.w3.org/2000/svg">
<rect width="280" height="280" fill="currentColor"/>
<path d="M84.0142 253L93.9119 233.409V233.25H82.4233V229.727H98.2756V233.33L88.3892 253H84.0142Z" fill="#333230"/>
<path d="M63.2869 253V249.955L71.3665 242.034C72.1392 241.254 72.7831 240.561 73.2983 239.955C73.8134 239.348 74.1998 238.761 74.4574 238.193C74.715 237.625 74.8438 237.019 74.8438 236.375C74.8438 235.64 74.6771 235.011 74.3438 234.489C74.0104 233.958 73.5521 233.549 72.9688 233.261C72.3854 232.973 71.7225 232.83 70.9801 232.83C70.215 232.83 69.5445 232.989 68.9688 233.307C68.393 233.617 67.946 234.061 67.6278 234.636C67.3172 235.212 67.1619 235.898 67.1619 236.693H63.1506C63.1506 235.216 63.4877 233.932 64.1619 232.841C64.8362 231.75 65.7642 230.905 66.946 230.307C68.1354 229.708 69.4991 229.409 71.0369 229.409C72.5975 229.409 73.9688 229.701 75.1506 230.284C76.3324 230.867 77.2491 231.667 77.9006 232.682C78.5597 233.697 78.8892 234.856 78.8892 236.159C78.8892 237.03 78.7225 237.886 78.3892 238.727C78.0559 239.568 77.4688 240.5 76.6278 241.523C75.7945 242.545 74.6241 243.784 73.1165 245.239L69.1051 249.318V249.477H79.2415V253H63.2869Z" fill="#333230"/>
<path d="M50.5455 253.443C48.6742 253.443 47.0682 252.97 45.7273 252.023C44.3939 251.068 43.3674 249.693 42.6477 247.898C41.9356 246.095 41.5795 243.924 41.5795 241.386C41.5871 238.848 41.947 236.689 42.6591 234.909C43.3788 233.121 44.4053 231.758 45.7386 230.818C47.0795 229.879 48.6818 229.409 50.5455 229.409C52.4091 229.409 54.0114 229.879 55.3523 230.818C56.6932 231.758 57.7197 233.121 58.4318 234.909C59.1515 236.697 59.5114 238.856 59.5114 241.386C59.5114 243.932 59.1515 246.106 58.4318 247.909C57.7197 249.705 56.6932 251.076 55.3523 252.023C54.0189 252.97 52.4167 253.443 50.5455 253.443ZM50.5455 249.886C52 249.886 53.1477 249.17 53.9886 247.739C54.8371 246.299 55.2614 244.182 55.2614 241.386C55.2614 239.538 55.0682 237.985 54.6818 236.727C54.2955 235.47 53.75 234.523 53.0455 233.886C52.3409 233.242 51.5076 232.92 50.5455 232.92C49.0985 232.92 47.9545 233.64 47.1136 235.08C46.2727 236.511 45.8485 238.614 45.8409 241.386C45.8333 243.242 46.0189 244.803 46.3977 246.068C46.7841 247.333 47.3295 248.288 48.0341 248.932C48.7386 249.568 49.5758 249.886 50.5455 249.886Z" fill="#333230"/>
<path d="M22.0682 253V249.955L30.1477 242.034C30.9205 241.254 31.5644 240.561 32.0796 239.955C32.5947 239.348 32.9811 238.761 33.2386 238.193C33.4962 237.625 33.625 237.019 33.625 236.375C33.625 235.64 33.4583 235.011 33.125 234.489C32.7917 233.958 32.3333 233.549 31.75 233.261C31.1667 232.973 30.5038 232.83 29.7614 232.83C28.9962 232.83 28.3258 232.989 27.75 233.307C27.1742 233.617 26.7273 234.061 26.4091 234.636C26.0985 235.212 25.9432 235.898 25.9432 236.693H21.9318C21.9318 235.216 22.2689 233.932 22.9432 232.841C23.6174 231.75 24.5455 230.905 25.7273 230.307C26.9167 229.708 28.2803 229.409 29.8182 229.409C31.3788 229.409 32.75 229.701 33.9318 230.284C35.1136 230.867 36.0303 231.667 36.6818 232.682C37.3409 233.697 37.6705 234.856 37.6705 236.159C37.6705 237.03 37.5038 237.886 37.1705 238.727C36.8371 239.568 36.25 240.5 35.4091 241.523C34.5758 242.545 33.4053 243.784 31.8977 245.239L27.8864 249.318V249.477H38.0227V253H22.0682Z" fill="#333230"/>
<path d="M178.162 211.818L178.014 213.068C177.908 214.023 177.719 214.992 177.446 215.977C177.181 216.97 176.901 217.883 176.605 218.716C176.31 219.549 176.071 220.205 175.889 220.682H173.116C173.223 220.22 173.366 219.591 173.548 218.795C173.738 218 173.92 217.106 174.094 216.114C174.268 215.121 174.385 214.114 174.446 213.091L174.526 211.818H178.162Z" fill="#333230"/>
<path d="M161.483 215.318C159.847 215.318 158.392 215.038 157.119 214.477C155.854 213.917 154.854 213.136 154.119 212.136C153.384 211.136 152.994 209.981 152.949 208.67H157.222C157.259 209.299 157.468 209.848 157.847 210.318C158.225 210.78 158.729 211.14 159.358 211.398C159.987 211.655 160.691 211.784 161.472 211.784C162.305 211.784 163.044 211.64 163.688 211.352C164.331 211.057 164.835 210.648 165.199 210.125C165.563 209.602 165.741 209 165.733 208.318C165.741 207.614 165.559 206.992 165.188 206.455C164.816 205.917 164.278 205.496 163.574 205.193C162.877 204.89 162.036 204.739 161.051 204.739H158.994V201.489H161.051C161.862 201.489 162.57 201.348 163.176 201.068C163.79 200.788 164.271 200.394 164.619 199.886C164.968 199.371 165.138 198.776 165.131 198.102C165.138 197.443 164.991 196.871 164.688 196.386C164.392 195.894 163.972 195.511 163.426 195.239C162.888 194.966 162.256 194.83 161.528 194.83C160.816 194.83 160.157 194.958 159.551 195.216C158.945 195.473 158.456 195.841 158.085 196.318C157.714 196.788 157.517 197.348 157.494 198H153.438C153.468 196.697 153.843 195.553 154.562 194.568C155.29 193.576 156.259 192.803 157.472 192.25C158.684 191.689 160.044 191.409 161.551 191.409C163.104 191.409 164.453 191.701 165.597 192.284C166.748 192.86 167.638 193.636 168.267 194.614C168.896 195.591 169.21 196.67 169.21 197.852C169.218 199.163 168.831 200.261 168.051 201.148C167.278 202.034 166.263 202.614 165.006 202.886V203.068C166.642 203.295 167.896 203.901 168.767 204.886C169.646 205.864 170.081 207.08 170.074 208.534C170.074 209.837 169.703 211.004 168.96 212.034C168.225 213.057 167.21 213.86 165.915 214.443C164.627 215.026 163.15 215.318 161.483 215.318Z" fill="#333230"/>
<path d="M143.125 201.67V205.057H127.125V201.67H143.125Z" fill="#333230"/>
<path d="M115.347 191.727V215H111.131V195.83H110.994L105.551 199.307V195.443L111.335 191.727H115.347Z" fill="#333230"/>
<path d="M86.7472 215.341C84.9972 215.341 83.4858 214.977 82.2131 214.25C80.9479 213.515 79.9744 212.477 79.2926 211.136C78.6108 209.788 78.2699 208.201 78.2699 206.375C78.2699 204.58 78.6108 203.004 79.2926 201.648C79.982 200.284 80.9441 199.223 82.179 198.466C83.4138 197.701 84.8646 197.318 86.5312 197.318C87.607 197.318 88.6222 197.492 89.5767 197.841C90.5388 198.182 91.3873 198.712 92.1222 199.432C92.8646 200.152 93.4479 201.068 93.8722 202.182C94.2964 203.288 94.5085 204.606 94.5085 206.136V207.398H80.2017V204.625H90.5653C90.5578 203.837 90.3873 203.136 90.054 202.523C89.7206 201.902 89.2547 201.413 88.6562 201.057C88.0653 200.701 87.3759 200.523 86.5881 200.523C85.7472 200.523 85.0085 200.727 84.3722 201.136C83.7358 201.538 83.2396 202.068 82.8835 202.727C82.535 203.379 82.357 204.095 82.3494 204.875V207.295C82.3494 208.311 82.535 209.182 82.9062 209.909C83.2775 210.629 83.7964 211.182 84.4631 211.568C85.1297 211.947 85.91 212.136 86.804 212.136C87.4025 212.136 87.9441 212.053 88.429 211.886C88.9138 211.712 89.3343 211.458 89.6903 211.125C90.0464 210.792 90.3153 210.379 90.4972 209.886L94.3381 210.318C94.0956 211.333 93.6335 212.22 92.9517 212.977C92.2775 213.727 91.4138 214.311 90.3608 214.727C89.3078 215.136 88.1032 215.341 86.7472 215.341Z" fill="#333230"/>
<path d="M63.6335 204.773V215H59.5199V197.545H63.4517V200.511H63.6562C64.0578 199.534 64.6979 198.758 65.5767 198.182C66.4631 197.606 67.5578 197.318 68.8608 197.318C70.0653 197.318 71.1146 197.576 72.0085 198.091C72.91 198.606 73.607 199.352 74.0994 200.33C74.5994 201.307 74.8456 202.492 74.8381 203.886V215H70.7244V204.523C70.7244 203.356 70.4214 202.443 69.8153 201.784C69.2169 201.125 68.3873 200.795 67.3267 200.795C66.607 200.795 65.9669 200.955 65.4062 201.273C64.8532 201.583 64.4176 202.034 64.0994 202.625C63.7888 203.216 63.6335 203.932 63.6335 204.773Z" fill="#333230"/>
<path d="M51.1761 207.659V197.545H55.2898V215H51.3011V211.898H51.1193C50.7254 212.875 50.0776 213.674 49.1761 214.295C48.2822 214.917 47.1799 215.227 45.8693 215.227C44.7254 215.227 43.714 214.974 42.8352 214.466C41.964 213.951 41.2822 213.205 40.7898 212.227C40.2973 211.242 40.0511 210.053 40.0511 208.659V197.545H44.1648V208.023C44.1648 209.129 44.4678 210.008 45.0739 210.659C45.6799 211.311 46.4754 211.636 47.4602 211.636C48.0663 211.636 48.6534 211.489 49.2216 211.193C49.7898 210.898 50.2557 210.458 50.6193 209.875C50.9905 209.284 51.1761 208.545 51.1761 207.659Z" fill="#333230"/>
<path d="M31.4773 191.727H35.6591V208.091C35.6515 209.591 35.3333 210.883 34.7046 211.966C34.0758 213.042 33.197 213.871 32.0682 214.455C30.947 215.03 29.6402 215.318 28.1477 215.318C26.7841 215.318 25.5568 215.076 24.4659 214.591C23.3826 214.099 22.5227 213.371 21.8864 212.409C21.25 211.447 20.9318 210.25 20.9318 208.818H25.125C25.1326 209.447 25.2689 209.989 25.5341 210.443C25.8068 210.898 26.1818 211.246 26.6591 211.489C27.1364 211.731 27.6856 211.852 28.3068 211.852C28.9811 211.852 29.553 211.712 30.0227 211.432C30.4924 211.144 30.8485 210.72 31.0909 210.159C31.3409 209.599 31.4697 208.909 31.4773 208.091V191.727Z" fill="#333230"/>
</svg>
