<svg width="288" height="280" viewBox="0 0 288 280" fill="none" xmlns="http://www.w3.org/2000/svg">
<g clip-path="url(#clip0_3247_18919)">
<path d="M814.689 294.395L812.862 277.895L796.143 279.753L794.316 263.308L777.597 265.111L760.933 266.968L744.269 268.826L727.549 270.683L710.886 272.486L694.222 274.344L677.502 276.201L679.385 292.646L662.721 294.504L646.001 296.362L629.338 298.165L612.674 300.022L595.954 301.88L597.837 318.325L581.173 320.182L564.453 321.985L562.626 305.54L579.29 303.683L577.408 287.238L594.127 285.38L592.245 268.935L608.909 267.077L607.082 250.632L605.2 234.187L621.864 232.33L619.981 215.885L636.701 214.027L634.818 197.582L651.482 195.724L649.655 179.279L647.773 162.78L664.437 160.922L662.555 144.477L660.728 128.032L658.845 111.532L656.963 95.0872L655.136 78.6421L638.417 80.4451L636.59 64L619.871 65.8576L603.207 67.6605L586.543 69.5181L569.823 71.3757L553.16 73.2333L555.042 89.6783L538.323 91.5359L540.205 107.981L523.541 109.839L525.368 126.284L527.25 142.729L510.586 144.586L512.413 161.086L495.749 162.889L497.632 179.389L480.912 181.192L482.795 197.691L484.677 214.136L468.013 215.994L469.84 232.439L453.176 234.296L455.058 250.742L456.885 267.187L440.221 269.044L442.104 285.489L425.384 287.347L408.72 289.204L406.838 272.759L405.011 256.26L403.129 239.815L386.465 241.672L384.583 225.172L382.7 208.727L366.036 210.585L364.154 194.085L362.272 177.64L345.608 179.498L343.725 162.998L341.899 146.553L325.179 148.411L323.352 131.911L321.47 115.466L304.751 117.324L302.924 100.824L286.204 102.681L284.378 86.2363L267.658 88.0393L250.994 89.8969L234.33 91.7544L236.157 108.2L219.493 110.057L221.376 126.502L204.656 128.36L206.539 144.805L208.421 161.304L210.303 177.75L212.13 194.195L228.85 192.392L230.676 208.837L232.559 225.282L249.223 223.479L251.105 239.924L252.987 256.369L269.651 254.566L271.534 271.011L273.416 287.456L290.08 285.653L291.962 302.098L293.789 318.543L310.508 316.74L312.335 333.185L314.218 349.63L316.1 366.13L332.764 364.273L334.646 380.718L317.982 382.575L301.263 384.433L303.145 400.878L286.481 402.735L269.762 404.538L253.098 406.396L236.434 408.254L219.715 410.111L221.597 426.556L204.933 428.414L188.214 430.217L171.55 432.074L154.831 433.932L138.167 435.789L121.503 437.592L104.839 439.45L106.666 455.895L90.0019 457.753L73.3379 459.61L56.6186 461.468L58.5009 477.913L41.837 479.77L43.6639 496.215L27 498.073L28.8823 514.518L30.7092 530.963L32.5916 547.463L34.4739 563.908L51.1378 562.05L53.0201 578.55L69.684 576.692L86.4033 574.835L88.2303 591.28L104.95 589.477L121.613 587.619L138.277 585.762L136.45 569.317L153.114 567.459L169.778 565.656L186.498 563.799L203.162 561.941L219.826 560.083L217.999 543.638L234.663 541.781L251.326 539.978L268.046 538.12L284.71 536.263L286.592 552.708L269.873 554.565L271.755 571.065L273.637 587.51L256.918 589.368L258.8 605.813L242.136 607.67L244.019 624.115L227.299 625.973L229.182 642.418L212.518 644.276L214.345 660.721L216.227 677.22L199.563 679.023L201.39 695.523L203.272 711.968L186.608 713.826L188.435 730.271L190.318 746.716L207.037 744.913L208.864 761.358L225.583 759.5L227.41 776L244.129 774.142L260.793 772.285L277.457 770.482L294.177 768.624L310.84 766.767L308.958 750.322L325.677 748.464L323.795 732.019L321.913 715.519L338.632 713.716L336.75 697.217L353.414 695.414L351.587 678.914L368.251 677.056L366.368 660.611L364.486 644.166L381.205 642.309L379.323 625.864L395.987 624.006L394.16 607.561L410.824 605.703L408.942 589.258L425.661 587.401L423.779 570.901L421.896 554.456L438.56 552.598L440.443 569.098L457.162 567.241L458.989 583.686L460.871 600.185L477.535 598.328L479.417 614.773L496.081 612.97L497.964 629.415L499.846 645.86L501.728 662.36L518.392 660.502L520.275 676.947L522.102 693.447L538.821 691.589L540.648 708.034L542.53 724.534L559.249 722.676L561.076 739.122L577.796 737.319L579.622 753.764L596.342 751.906L613.006 750.103L629.67 748.245L627.843 731.746L644.507 729.943L642.624 713.443L659.344 711.64L657.461 695.141L655.579 678.695L653.752 662.25L637.033 664.053L635.151 647.608L633.324 631.163L616.604 632.966L614.777 616.521L598.058 618.379L596.231 601.879L594.349 585.434L592.466 568.989L575.803 570.792L573.92 554.347L572.038 537.902L555.374 539.705L553.492 523.26L551.665 506.815L534.945 508.617L533.063 492.172L531.236 475.727L514.517 477.585L512.69 461.085L529.354 459.228L546.018 457.425L562.737 455.567L579.401 453.71L577.519 437.265L594.238 435.407L610.902 433.604L627.566 431.746L644.285 429.889L642.403 413.444L659.067 411.586L675.786 409.729L692.45 407.926L709.114 406.068L725.833 404.211L742.497 402.353L759.161 400.55L757.334 384.05L773.998 382.247L790.662 380.39L807.381 378.532L805.499 362.087L822.163 360.23L820.336 343.785L837 341.927L835.118 325.482L833.291 308.982L831.408 292.537L814.689 294.395Z" fill="#871C00"/>
</g>
<defs>
<clipPath id="clip0_3247_18919">
<rect width="288" height="280" fill="white"/>
</clipPath>
</defs>
</svg>
