<svg width="288" height="280" viewBox="0 0 288 280" fill="none" xmlns="http://www.w3.org/2000/svg">
<g clip-path="url(#clip0_3247_18923)">
<path d="M238.689 294.395L236.862 277.895L220.143 279.753L218.316 263.308L201.597 265.111L184.933 266.968L168.269 268.826L151.549 270.683L134.886 272.486L118.222 274.344L101.502 276.201L103.385 292.646L86.7208 294.504L70.0014 296.362L53.3375 298.165L36.6736 300.022L19.9543 301.88L21.8366 318.325L5.17267 320.182L-11.5466 321.985L-13.3736 305.54L3.29034 303.683L1.40802 287.238L18.1274 285.38L16.245 268.935L32.909 267.077L31.082 250.632L29.1997 234.187L45.8636 232.33L43.9814 215.885L60.7006 214.027L58.8184 197.582L75.4823 195.724L73.6553 179.279L71.773 162.78L88.437 160.922L86.5547 144.477L84.7277 128.032L82.8454 111.532L80.9631 95.0872L79.1362 78.6421L62.4169 80.4451L60.5899 64L43.8706 65.8576L27.2067 67.6605L10.5428 69.5181L-6.17651 71.3757L-22.8405 73.2333L-20.9582 89.6783L-37.6775 91.5359L-35.7952 107.981L-52.459 109.839L-50.6322 126.284L-48.7498 142.729L-65.4138 144.586L-63.5868 161.086L-80.2508 162.889L-78.3684 179.389L-95.0877 181.192L-93.2054 197.691L-91.3232 214.136L-107.987 215.994L-106.16 232.439L-122.824 234.296L-120.942 250.742L-119.115 267.187L-135.779 269.044L-133.896 285.489L-150.616 287.347L-167.28 289.204L-169.162 272.759L-170.989 256.26L-172.871 239.815L-189.535 241.672L-191.417 225.172L-193.3 208.727L-209.964 210.585L-211.846 194.085L-213.728 177.64L-230.392 179.498L-232.275 162.998L-234.101 146.553L-250.821 148.411L-252.648 131.911L-254.53 115.466L-271.249 117.324L-273.076 100.824L-289.796 102.681L-291.622 86.2363L-308.342 88.0393L-325.006 89.8969L-341.67 91.7544L-339.843 108.2L-356.507 110.057L-354.624 126.502L-371.344 128.36L-369.461 144.805L-367.579 161.304L-365.697 177.75L-363.87 194.195L-347.15 192.392L-345.324 208.837L-343.441 225.282L-326.777 223.479L-324.895 239.924L-323.013 256.369L-306.349 254.566L-304.466 271.011L-302.584 287.456L-285.92 285.653L-284.038 302.098L-282.211 318.543L-265.492 316.74L-263.665 333.185L-261.782 349.63L-259.9 366.13L-243.236 364.273L-241.354 380.718L-258.018 382.575L-274.737 384.433L-272.855 400.878L-289.519 402.735L-306.238 404.538L-322.902 406.396L-339.566 408.254L-356.285 410.111L-354.403 426.556L-371.067 428.414L-387.786 430.217L-404.45 432.074L-421.169 433.932L-437.833 435.789L-454.497 437.592L-471.161 439.45L-469.334 455.895L-485.998 457.753L-502.662 459.61L-519.381 461.468L-517.499 477.913L-534.163 479.77L-532.336 496.215L-549 498.073L-547.118 514.518L-545.291 530.963L-543.408 547.463L-541.526 563.908L-524.862 562.05L-522.98 578.55L-506.316 576.692L-489.597 574.835L-487.77 591.28L-471.05 589.477L-454.387 587.619L-437.723 585.762L-439.55 569.317L-422.886 567.459L-406.222 565.656L-389.502 563.799L-372.838 561.941L-356.174 560.083L-358.001 543.638L-341.337 541.781L-324.674 539.978L-307.954 538.12L-291.29 536.263L-289.408 552.708L-306.127 554.565L-304.245 571.065L-302.363 587.51L-319.082 589.368L-317.2 605.813L-333.864 607.67L-331.981 624.115L-348.701 625.973L-346.818 642.418L-363.482 644.276L-361.655 660.721L-359.773 677.22L-376.437 679.023L-374.61 695.523L-372.728 711.968L-389.392 713.826L-387.565 730.271L-385.682 746.716L-368.963 744.913L-367.136 761.358L-350.417 759.5L-348.59 776L-331.871 774.142L-315.207 772.285L-298.543 770.482L-281.823 768.624L-265.16 766.767L-267.042 750.322L-250.323 748.464L-252.205 732.019L-254.087 715.519L-237.368 713.716L-239.25 697.217L-222.586 695.414L-224.413 678.914L-207.749 677.056L-209.632 660.611L-211.514 644.166L-194.795 642.309L-196.677 625.864L-180.013 624.006L-181.84 607.561L-165.176 605.703L-167.058 589.258L-150.339 587.401L-152.221 570.901L-154.104 554.456L-137.44 552.598L-135.557 569.098L-118.838 567.241L-117.011 583.686L-115.129 600.185L-98.4648 598.328L-96.5825 614.773L-79.9186 612.97L-78.0363 629.415L-76.1539 645.86L-74.2717 662.36L-57.6078 660.502L-55.7254 676.947L-53.8985 693.447L-37.1792 691.589L-35.3522 708.034L-33.4699 724.534L-16.7507 722.676L-14.9237 739.122L1.79559 737.319L3.6225 753.764L20.3418 751.906L37.0057 750.103L53.6697 748.245L51.8427 731.746L68.5067 729.943L66.6244 713.443L83.3437 711.64L81.4614 695.141L79.5791 678.695L77.7521 662.25L61.0328 664.053L59.1505 647.608L57.3235 631.163L40.6043 632.966L38.7773 616.521L22.058 618.379L20.2311 601.879L18.3488 585.434L16.4665 568.989L-0.197449 570.792L-2.07971 554.347L-3.96204 537.902L-20.626 539.705L-22.5083 523.26L-24.3353 506.815L-41.0545 508.617L-42.9368 492.172L-44.7638 475.727L-61.4831 477.585L-63.31 461.085L-46.6461 459.228L-29.9822 457.425L-13.2629 455.567L3.40106 453.71L1.5188 437.265L18.238 435.407L34.902 433.604L51.5659 431.746L68.2853 429.889L66.403 413.444L83.0668 411.586L99.7861 409.729L116.45 407.926L133.114 406.068L149.833 404.211L166.497 402.353L183.161 400.55L181.334 384.05L197.998 382.247L214.662 380.39L231.381 378.532L229.499 362.087L246.163 360.23L244.336 343.785L261 341.927L259.118 325.482L257.291 308.982L255.408 292.537L238.689 294.395Z" fill="#871C00"/>
</g>
<defs>
<clipPath id="clip0_3247_18923">
<rect width="288" height="280" fill="white"/>
</clipPath>
</defs>
</svg>
