<svg width="288" height="280" viewBox="0 0 288 280" fill="none" xmlns="http://www.w3.org/2000/svg">
<g clip-path="url(#clip0_3247_18946)">
<path d="M238.689 -265.605L236.862 -282.105L220.143 -280.247L218.316 -296.692L201.597 -294.889L184.933 -293.032L168.269 -291.174L151.549 -289.317L134.886 -287.514L118.222 -285.656L101.502 -283.799L103.385 -267.354L86.7208 -265.496L70.0014 -263.638L53.3375 -261.835L36.6736 -259.978L19.9543 -258.12L21.8366 -241.675L5.17267 -239.818L-11.5466 -238.015L-13.3736 -254.46L3.29034 -256.317L1.40802 -272.762L18.1274 -274.62L16.245 -291.065L32.909 -292.923L31.082 -309.368L29.1997 -325.813L45.8636 -327.67L43.9814 -344.115L60.7006 -345.973L58.8184 -362.418L75.4823 -364.276L73.6553 -380.721L71.773 -397.22L88.437 -399.078L86.5547 -415.523L84.7277 -431.968L82.8454 -448.468L80.9631 -464.913L79.1362 -481.358L62.4169 -479.555L60.5899 -496L43.8706 -494.142L27.2067 -492.339L10.5428 -490.482L-6.17651 -488.624L-22.8405 -486.767L-20.9582 -470.322L-37.6775 -468.464L-35.7952 -452.019L-52.459 -450.161L-50.6322 -433.716L-48.7498 -417.271L-65.4138 -415.414L-63.5868 -398.914L-80.2508 -397.111L-78.3684 -380.611L-95.0877 -378.808L-93.2054 -362.309L-91.3232 -345.864L-107.987 -344.006L-106.16 -327.561L-122.824 -325.704L-120.942 -309.258L-119.115 -292.813L-135.779 -290.956L-133.896 -274.511L-150.616 -272.653L-167.28 -270.796L-169.162 -287.241L-170.989 -303.74L-172.871 -320.185L-189.535 -318.328L-191.417 -334.828L-193.3 -351.273L-209.964 -349.415L-211.846 -365.915L-213.728 -382.36L-230.392 -380.502L-232.275 -397.002L-234.101 -413.447L-250.821 -411.589L-252.648 -428.089L-254.53 -444.534L-271.249 -442.676L-273.076 -459.176L-289.796 -457.319L-291.622 -473.764L-308.342 -471.961L-325.006 -470.103L-341.67 -468.246L-339.843 -451.8L-356.507 -449.943L-354.624 -433.498L-371.344 -431.64L-369.461 -415.195L-367.579 -398.696L-365.697 -382.25L-363.87 -365.805L-347.15 -367.608L-345.324 -351.163L-343.441 -334.718L-326.777 -336.521L-324.895 -320.076L-323.013 -303.631L-306.349 -305.434L-304.466 -288.989L-302.584 -272.544L-285.92 -274.347L-284.038 -257.902L-282.211 -241.457L-265.492 -243.26L-263.665 -226.815L-261.782 -210.37L-259.9 -193.87L-243.236 -195.727L-241.354 -179.282L-258.018 -177.425L-274.737 -175.567L-272.855 -159.122L-289.519 -157.265L-306.238 -155.462L-322.902 -153.604L-339.566 -151.746L-356.285 -149.889L-354.403 -133.444L-371.067 -131.586L-387.786 -129.783L-404.45 -127.926L-421.169 -126.068L-437.833 -124.211L-454.497 -122.408L-471.161 -120.55L-469.334 -104.105L-485.998 -102.247L-502.662 -100.39L-519.381 -98.5323L-517.499 -82.0872L-534.163 -80.2296L-532.336 -63.7845L-549 -61.927L-547.118 -45.4819L-545.291 -29.0369L-543.408 -12.5372L-541.526 3.90787L-524.862 2.05032L-522.98 18.55L-506.316 16.6924L-489.597 14.8348L-487.77 31.2799L-471.05 29.4769L-454.387 27.6194L-437.723 25.7618L-439.55 9.31671L-422.886 7.45914L-406.222 5.65616L-389.502 3.79865L-372.838 1.94101L-356.174 0.0834656L-358.001 -16.3616L-341.337 -18.2192L-324.674 -20.0221L-307.954 -21.8797L-291.29 -23.7373L-289.408 -7.29224L-306.127 -5.43466L-304.245 11.065L-302.363 27.5101L-319.082 29.3677L-317.2 45.8127L-333.864 47.6703L-331.981 64.1154L-348.701 65.9729L-346.818 82.418L-363.482 84.2756L-361.655 100.721L-359.773 117.22L-376.437 119.023L-374.61 135.523L-372.728 151.968L-389.392 153.826L-387.565 170.271L-385.682 186.716L-368.963 184.913L-367.136 201.358L-350.417 199.5L-348.59 216L-331.871 214.142L-315.207 212.285L-298.543 210.482L-281.823 208.624L-265.16 206.767L-267.042 190.322L-250.323 188.464L-252.205 172.019L-254.087 155.519L-237.368 153.716L-239.25 137.217L-222.586 135.414L-224.413 118.914L-207.749 117.056L-209.632 100.611L-211.514 84.1663L-194.795 82.3088L-196.677 65.8636L-180.013 64.0061L-181.84 47.561L-165.176 45.7035L-167.058 29.2584L-150.339 27.4008L-152.221 10.9011L-154.104 -5.54395L-137.44 -7.40152L-135.557 9.09814L-118.838 7.2406L-117.011 23.6857L-115.129 40.1854L-98.4648 38.3278L-96.5825 54.7728L-79.9186 52.9699L-78.0363 69.4149L-76.1539 85.86L-74.2717 102.36L-57.6078 100.502L-55.7254 116.947L-53.8985 133.447L-37.1792 131.589L-35.3522 148.034L-33.4699 164.534L-16.7507 162.676L-14.9237 179.122L1.79559 177.319L3.6225 193.764L20.3418 191.906L37.0057 190.103L53.6697 188.245L51.8427 171.746L68.5067 169.943L66.6244 153.443L83.3437 151.64L81.4614 135.141L79.5791 118.695L77.7521 102.25L61.0328 104.053L59.1505 87.6083L57.3235 71.1633L40.6043 72.9662L38.7773 56.5211L22.058 58.3787L20.2311 41.879L18.3488 25.434L16.4665 8.98892L-0.197449 10.7919L-2.07971 -5.65317L-3.96204 -22.0983L-20.626 -20.2953L-22.5083 -36.7404L-24.3353 -53.1854L-41.0545 -51.3825L-42.9368 -67.8275L-44.7638 -84.2726L-61.4831 -82.415L-63.31 -98.9147L-46.6461 -100.772L-29.9822 -102.575L-13.2629 -104.433L3.40106 -106.29L1.5188 -122.735L18.238 -124.593L34.902 -126.396L51.5659 -128.254L68.2853 -130.111L66.403 -146.556L83.0668 -148.414L99.7861 -150.271L116.45 -152.074L133.114 -153.932L149.833 -155.789L166.497 -157.647L183.161 -159.45L181.334 -175.95L197.998 -177.753L214.662 -179.61L231.381 -181.468L229.499 -197.913L246.163 -199.77L244.336 -216.215L261 -218.073L259.118 -234.518L257.291 -251.018L255.408 -267.463L238.689 -265.605Z" fill="#871C00"/>
</g>
<defs>
<clipPath id="clip0_3247_18946">
<rect width="288" height="280" fill="white"/>
</clipPath>
</defs>
</svg>
