<svg width="288" height="288" viewBox="0 0 288 288" fill="none" xmlns="http://www.w3.org/2000/svg">
<g clip-path="url(#clip0_0_115)">
<rect width="288" height="288" fill="#F3EEE7"/>
<path d="M526.689 14.3947L524.862 -2.10497L508.143 -0.247391L506.316 -16.6925L489.597 -14.8895L472.933 -13.0319L456.269 -11.1743L439.549 -9.31676L422.886 -7.51384L406.222 -5.65625L389.502 -3.79868L391.385 12.6464L374.721 14.504L358.001 16.3615L341.338 18.1645L324.674 20.0221L307.954 21.8797L309.837 38.3247L293.173 40.1823L276.453 41.9853L274.626 25.5402L291.29 23.6826L289.408 7.23756L306.127 5.37997L304.245 -11.0651L320.909 -12.9227L319.082 -29.3677L317.2 -45.8128L333.864 -47.6704L331.981 -64.1154L348.701 -65.973L346.818 -82.418L363.482 -84.2756L361.655 -100.721L359.773 -117.22L376.437 -119.078L374.555 -135.523L372.728 -151.968L370.845 -168.468L368.963 -184.913L367.136 -201.358L350.417 -199.555L348.59 -216L331.871 -214.142L315.207 -212.339L298.543 -210.482L281.823 -208.624L265.16 -206.767L267.042 -190.322L250.323 -188.464L252.205 -172.019L235.541 -170.161L237.368 -153.716L239.25 -137.271L222.586 -135.414L224.413 -118.914L207.749 -117.111L209.632 -100.611L192.912 -98.8085L194.795 -82.3088L196.677 -65.8637L180.013 -64.0061L181.84 -47.5611L165.176 -45.7035L167.058 -29.2585L168.885 -12.8134L152.221 -10.9558L154.104 5.48924L137.384 7.34682L120.72 9.20441L118.838 -7.24065L117.011 -23.7404L115.129 -40.1854L98.4648 -38.3278L96.5825 -54.8275L94.7002 -71.2726L78.0363 -69.415L76.154 -85.9147L74.2717 -102.36L57.6078 -100.502L55.7255 -117.002L53.8985 -133.447L37.1792 -131.589L35.3523 -148.089L33.4699 -164.534L16.7507 -162.676L14.9237 -179.176L-1.79556 -177.319L-3.6225 -193.764L-20.3418 -191.961L-37.0057 -190.103L-53.6697 -188.246L-51.8427 -171.8L-68.5067 -169.943L-66.6243 -153.498L-83.3436 -151.64L-81.4613 -135.195L-79.579 -118.696L-77.6967 -102.25L-75.8698 -85.8054L-59.1505 -87.6084L-57.3236 -71.1633L-55.4412 -54.7182L-38.7773 -56.5212L-36.895 -40.0761L-35.0127 -23.6311L-18.3488 -25.434L-16.4665 -8.98898L-14.5842 7.4561L2.07977 5.65314L3.9621 22.0982L5.789 38.5432L22.5083 36.7403L24.3353 53.1854L26.2176 69.6304L28.0999 86.1301L44.7638 84.2725L46.6461 100.718L29.9822 102.575L13.2629 104.433L15.1452 120.878L-1.51877 122.735L-18.2381 124.538L-34.902 126.396L-51.5659 128.254L-68.2852 130.111L-66.4029 146.556L-83.0668 148.414L-99.7861 150.217L-116.45 152.074L-133.169 153.932L-149.833 155.789L-166.497 157.592L-183.161 159.45L-181.334 175.895L-197.998 177.753L-214.662 179.61L-231.381 181.468L-229.499 197.913L-246.163 199.77L-244.336 216.215L-261 218.073L-259.118 234.518L-257.291 250.963L-255.408 267.463L-253.526 283.908L-236.862 282.05L-234.98 298.55L-218.316 296.692L-201.597 294.835L-199.77 311.28L-183.05 309.477L-166.387 307.619L-149.723 305.762L-151.55 289.317L-134.886 287.459L-118.222 285.656L-101.502 283.799L-84.8384 281.941L-68.1745 280.083L-70.0014 263.638L-53.3375 261.781L-36.6736 259.978L-19.9543 258.12L-3.29034 256.263L-1.40802 272.708L-18.1273 274.565L-16.245 291.065L-14.3627 307.51L-31.082 309.368L-29.1997 325.813L-45.8636 327.67L-43.9813 344.115L-60.7006 345.973L-58.8183 362.418L-75.4823 364.276L-73.6553 380.721L-71.773 397.22L-88.4369 399.023L-86.61 415.523L-84.7277 431.968L-101.392 433.826L-99.5647 450.271L-97.6824 466.716L-80.9631 464.913L-79.1362 481.358L-62.4169 479.5L-60.5899 496L-43.8706 494.142L-27.2067 492.285L-10.5427 490.482L6.17654 488.624L22.8405 486.767L20.9582 470.322L37.6775 468.464L35.7952 452.019L33.9129 435.519L50.6322 433.716L48.7498 417.217L65.4138 415.414L63.5869 398.914L80.2508 397.056L78.3685 380.611L76.4861 364.166L93.2055 362.309L91.3232 345.864L107.987 344.006L106.16 327.561L122.824 325.703L120.942 309.258L137.661 307.401L135.779 290.901L133.896 274.456L150.56 272.598L152.443 289.098L169.162 287.241L170.989 303.686L172.871 320.185L189.535 318.328L191.417 334.773L208.081 332.97L209.964 349.415L211.846 365.86L213.728 382.36L230.392 380.502L232.275 396.947L234.102 413.447L250.821 411.589L252.648 428.034L254.53 444.534L271.249 442.676L273.076 459.122L289.796 457.319L291.622 473.764L308.342 471.906L325.006 470.103L341.67 468.245L339.843 451.746L356.507 449.943L354.624 433.443L371.344 431.64L369.461 415.141L367.579 398.695L365.752 382.25L349.033 384.053L347.151 367.608L345.324 351.163L328.604 352.966L326.777 336.521L310.058 338.379L308.231 321.879L306.349 305.434L304.466 288.989L287.803 290.792L285.92 274.347L284.038 257.902L267.374 259.705L265.492 243.26L263.665 226.815L246.945 228.617L245.063 212.172L243.236 195.727L226.517 197.585L224.69 181.085L241.354 179.228L258.018 177.425L274.737 175.567L291.401 173.71L289.519 157.265L306.238 155.407L322.902 153.604L339.566 151.746L356.285 149.889L354.403 133.444L371.067 131.586L387.786 129.729L404.45 127.926L421.114 126.068L437.833 124.211L454.497 122.353L471.161 120.55L469.334 104.05L485.998 102.247L502.662 100.39L519.381 98.5322L517.499 82.0872L534.163 80.2296L532.336 63.7845L549 61.9269L547.118 45.4819L545.291 28.9822L543.408 12.5371L526.689 14.3947Z" fill="currentColor"/>
</g>
<defs>
<clipPath id="clip0_0_115">
<rect width="288" height="288" fill="white"/>
</clipPath>
</defs>
</svg>
