<svg width="288" height="288" viewBox="0 0 288 288" fill="none" xmlns="http://www.w3.org/2000/svg">
<g clip-path="url(#clip0_0_113)">
<rect width="288" height="288" fill="#F3EEE7"/>
<path d="M814.689 14.3947L812.862 -2.10497L796.143 -0.247391L794.316 -16.6925L777.597 -14.8895L760.933 -13.0319L744.269 -11.1743L727.549 -9.31676L710.886 -7.51384L694.222 -5.65625L677.502 -3.79868L679.385 12.6464L662.721 14.504L646.001 16.3615L629.338 18.1645L612.674 20.0221L595.954 21.8797L597.837 38.3247L581.173 40.1823L564.453 41.9853L562.626 25.5402L579.29 23.6826L577.408 7.23756L594.127 5.37997L592.245 -11.0651L608.909 -12.9227L607.082 -29.3677L605.2 -45.8128L621.864 -47.6704L619.981 -64.1154L636.701 -65.973L634.818 -82.418L651.482 -84.2756L649.655 -100.721L647.773 -117.22L664.437 -119.078L662.555 -135.523L660.728 -151.968L658.845 -168.468L656.963 -184.913L655.136 -201.358L638.417 -199.555L636.59 -216L619.871 -214.142L603.207 -212.339L586.543 -210.482L569.823 -208.624L553.16 -206.767L555.042 -190.322L538.323 -188.464L540.205 -172.019L523.541 -170.161L525.368 -153.716L527.25 -137.271L510.586 -135.414L512.413 -118.914L495.749 -117.111L497.632 -100.611L480.912 -98.8085L482.795 -82.3088L484.677 -65.8637L468.013 -64.0061L469.84 -47.5611L453.176 -45.7035L455.058 -29.2585L456.885 -12.8134L440.221 -10.9558L442.104 5.48924L425.384 7.34682L408.72 9.20441L406.838 -7.24065L405.011 -23.7404L403.129 -40.1854L386.465 -38.3278L384.583 -54.8275L382.7 -71.2726L366.036 -69.415L364.154 -85.9147L362.272 -102.36L345.608 -100.502L343.725 -117.002L341.899 -133.447L325.179 -131.589L323.352 -148.089L321.47 -164.534L304.751 -162.676L302.924 -179.176L286.204 -177.319L284.378 -193.764L267.658 -191.961L250.994 -190.103L234.33 -188.246L236.157 -171.8L219.493 -169.943L221.376 -153.498L204.656 -151.64L206.539 -135.195L208.421 -118.696L210.303 -102.25L212.13 -85.8054L228.85 -87.6084L230.676 -71.1633L232.559 -54.7182L249.223 -56.5212L251.105 -40.0761L252.987 -23.6311L269.651 -25.434L271.534 -8.98898L273.416 7.4561L290.08 5.65314L291.962 22.0982L293.789 38.5432L310.508 36.7403L312.335 53.1854L314.218 69.6304L316.1 86.1301L332.764 84.2725L334.646 100.718L317.982 102.575L301.263 104.433L303.145 120.878L286.481 122.735L269.762 124.538L253.098 126.396L236.434 128.254L219.715 130.111L221.597 146.556L204.933 148.414L188.214 150.217L171.55 152.074L154.831 153.932L138.167 155.789L121.503 157.592L104.839 159.45L106.666 175.895L90.0019 177.753L73.3379 179.61L56.6186 181.468L58.5009 197.913L41.837 199.77L43.6639 216.215L27 218.073L28.8823 234.518L30.7092 250.963L32.5916 267.463L34.4739 283.908L51.1378 282.05L53.0201 298.55L69.684 296.692L86.4033 294.835L88.2303 311.28L104.95 309.477L121.613 307.619L138.277 305.762L136.45 289.317L153.114 287.459L169.778 285.656L186.498 283.799L203.162 281.941L219.826 280.083L217.999 263.638L234.663 261.781L251.326 259.978L268.046 258.12L284.71 256.263L286.592 272.708L269.873 274.565L271.755 291.065L273.637 307.51L256.918 309.368L258.8 325.813L242.136 327.67L244.019 344.115L227.299 345.973L229.182 362.418L212.518 364.276L214.345 380.721L216.227 397.22L199.563 399.023L201.39 415.523L203.272 431.968L186.608 433.826L188.435 450.271L190.318 466.716L207.037 464.913L208.864 481.358L225.583 479.5L227.41 496L244.129 494.142L260.793 492.285L277.457 490.482L294.177 488.624L310.84 486.767L308.958 470.322L325.677 468.464L323.795 452.019L321.913 435.519L338.632 433.716L336.75 417.217L353.414 415.414L351.587 398.914L368.251 397.056L366.368 380.611L364.486 364.166L381.205 362.309L379.323 345.864L395.987 344.006L394.16 327.561L410.824 325.703L408.942 309.258L425.661 307.401L423.779 290.901L421.896 274.456L438.56 272.598L440.443 289.098L457.162 287.241L458.989 303.686L460.871 320.185L477.535 318.328L479.417 334.773L496.081 332.97L497.964 349.415L499.846 365.86L501.728 382.36L518.392 380.502L520.275 396.947L522.102 413.447L538.821 411.589L540.648 428.034L542.53 444.534L559.249 442.676L561.076 459.122L577.796 457.319L579.622 473.764L596.342 471.906L613.006 470.103L629.67 468.245L627.843 451.746L644.507 449.943L642.624 433.443L659.344 431.64L657.461 415.141L655.579 398.695L653.752 382.25L637.033 384.053L635.151 367.608L633.324 351.163L616.604 352.966L614.777 336.521L598.058 338.379L596.231 321.879L594.349 305.434L592.466 288.989L575.803 290.792L573.92 274.347L572.038 257.902L555.374 259.705L553.492 243.26L551.665 226.815L534.945 228.617L533.063 212.172L531.236 195.727L514.517 197.585L512.69 181.085L529.354 179.228L546.018 177.425L562.737 175.567L579.401 173.71L577.519 157.265L594.238 155.407L610.902 153.604L627.566 151.746L644.285 149.889L642.403 133.444L659.067 131.586L675.786 129.729L692.45 127.926L709.114 126.068L725.833 124.211L742.497 122.353L759.161 120.55L757.334 104.05L773.998 102.247L790.662 100.39L807.381 98.5322L805.499 82.0872L822.163 80.2296L820.336 63.7845L837 61.9269L835.118 45.4819L833.291 28.9822L831.408 12.5371L814.689 14.3947Z" fill="currentColor"/>
</g>
<defs>
<clipPath id="clip0_0_113">
<rect width="288" height="288" fill="white"/>
</clipPath>
</defs>
</svg>
