<svg width="288" height="288" viewBox="0 0 288 288" fill="none" xmlns="http://www.w3.org/2000/svg">
<g clip-path="url(#clip0_0_6)">
<rect width="288" height="288" fill="#F3EEE7"/>
<path d="M288 288H0V0H288V288ZM75.5 32.6875V49.8125H92.625V66.9375H126.875V84.0625H92.625V101.188H75.5V152.562H58.375V169.688H75.5V186.812H92.625V203.938H109.75V238.188H75.5V255.312H212.5V238.188H161.125V221.062H178.25V203.938H212.5V169.688H229.625V152.562H246.75V101.188H229.625V118.312H212.5V101.188H195.375V84.0625H161.125V66.9375H178.25V49.8125H212.5V32.6875H75.5ZM41.25 101.188V152.562H58.375V101.188H41.25ZM58.375 84.0625V101.188H75.5V84.0625H58.375ZM212.5 84.0625V101.188H229.625V84.0625H212.5Z" fill="#333230"/>
</g>
<defs>
<clipPath id="clip0_0_6">
<rect width="288" height="288" fill="white"/>
</clipPath>
</defs>
</svg>
