<svg viewBox="0 0 288 288" fill="none" xmlns="http://www.w3.org/2000/svg">
<rect width="288" height="288" fill="currentColor"/>
<path d="M251.355 127.352C249.666 127.352 248.211 126.97 246.991 126.205C245.779 125.432 244.848 124.367 244.196 123.011C243.545 121.655 243.219 120.102 243.219 118.352C243.219 116.58 243.552 115.015 244.219 113.659C244.885 112.295 245.825 111.231 247.037 110.466C248.249 109.701 249.677 109.318 251.321 109.318C252.647 109.318 253.829 109.564 254.866 110.057C255.904 110.542 256.741 111.223 257.378 112.102C258.022 112.981 258.404 114.008 258.526 115.182H255.219C255.037 114.364 254.62 113.659 253.969 113.068C253.325 112.477 252.461 112.182 251.378 112.182C250.431 112.182 249.601 112.432 248.889 112.932C248.185 113.424 247.635 114.129 247.241 115.045C246.848 115.955 246.651 117.03 246.651 118.273C246.651 119.545 246.844 120.644 247.23 121.568C247.616 122.492 248.162 123.208 248.866 123.716C249.579 124.223 250.416 124.477 251.378 124.477C252.022 124.477 252.605 124.36 253.128 124.125C253.658 123.883 254.101 123.538 254.457 123.091C254.821 122.644 255.075 122.106 255.219 121.477H258.526C258.404 122.606 258.037 123.614 257.423 124.5C256.81 125.386 255.988 126.083 254.957 126.591C253.935 127.098 252.734 127.352 251.355 127.352Z" fill="#333230"/>
<path d="M232.744 127.352C231.025 127.352 229.544 126.985 228.301 126.25C227.066 125.508 226.112 124.466 225.438 123.125C224.771 121.777 224.438 120.197 224.438 118.386C224.438 116.598 224.771 115.023 225.438 113.659C226.112 112.295 227.051 111.231 228.256 110.466C229.468 109.701 230.884 109.318 232.506 109.318C233.491 109.318 234.445 109.481 235.369 109.807C236.294 110.133 237.123 110.644 237.858 111.341C238.593 112.038 239.172 112.943 239.597 114.057C240.021 115.163 240.233 116.508 240.233 118.091V119.295H226.358V116.75H236.903C236.903 115.856 236.722 115.064 236.358 114.375C235.994 113.678 235.483 113.129 234.824 112.727C234.172 112.326 233.407 112.125 232.528 112.125C231.574 112.125 230.741 112.36 230.028 112.83C229.324 113.292 228.778 113.898 228.392 114.648C228.013 115.39 227.824 116.197 227.824 117.068V119.057C227.824 120.223 228.028 121.216 228.438 122.034C228.854 122.852 229.434 123.477 230.176 123.909C230.919 124.333 231.786 124.545 232.778 124.545C233.422 124.545 234.009 124.455 234.54 124.273C235.07 124.083 235.528 123.803 235.915 123.432C236.301 123.061 236.597 122.602 236.801 122.057L240.017 122.636C239.759 123.583 239.297 124.413 238.631 125.125C237.972 125.83 237.142 126.379 236.142 126.773C235.15 127.159 234.017 127.352 232.744 127.352Z" fill="#333230"/>
<path d="M205.463 127V103.727H208.861V112.375H209.065C209.262 112.011 209.546 111.591 209.918 111.114C210.289 110.636 210.804 110.22 211.463 109.864C212.122 109.5 212.993 109.318 214.077 109.318C215.486 109.318 216.743 109.674 217.849 110.386C218.955 111.098 219.823 112.125 220.452 113.466C221.088 114.807 221.406 116.42 221.406 118.307C221.406 120.193 221.092 121.811 220.463 123.159C219.834 124.5 218.971 125.534 217.872 126.261C216.774 126.981 215.52 127.341 214.111 127.341C213.05 127.341 212.183 127.163 211.509 126.807C210.842 126.451 210.319 126.034 209.94 125.557C209.562 125.08 209.27 124.655 209.065 124.284H208.781V127H205.463ZM208.793 118.273C208.793 119.5 208.971 120.576 209.327 121.5C209.683 122.424 210.198 123.148 210.872 123.67C211.546 124.186 212.372 124.443 213.349 124.443C214.365 124.443 215.213 124.174 215.895 123.636C216.577 123.091 217.092 122.352 217.44 121.42C217.796 120.489 217.974 119.439 217.974 118.273C217.974 117.121 217.8 116.087 217.452 115.17C217.111 114.254 216.596 113.53 215.906 113C215.224 112.47 214.372 112.205 213.349 112.205C212.365 112.205 211.531 112.458 210.849 112.966C210.175 113.473 209.664 114.182 209.315 115.091C208.967 116 208.793 117.061 208.793 118.273Z" fill="#333230"/>
<path d="M193.932 127.352C192.212 127.352 190.731 126.985 189.489 126.25C188.254 125.508 187.299 124.466 186.625 123.125C185.958 121.777 185.625 120.197 185.625 118.386C185.625 116.598 185.958 115.023 186.625 113.659C187.299 112.295 188.239 111.231 189.443 110.466C190.655 109.701 192.072 109.318 193.693 109.318C194.678 109.318 195.633 109.481 196.557 109.807C197.481 110.133 198.311 110.644 199.045 111.341C199.78 112.038 200.36 112.943 200.784 114.057C201.208 115.163 201.42 116.508 201.42 118.091V119.295H187.545V116.75H198.091C198.091 115.856 197.909 115.064 197.545 114.375C197.182 113.678 196.67 113.129 196.011 112.727C195.36 112.326 194.595 112.125 193.716 112.125C192.761 112.125 191.928 112.36 191.216 112.83C190.511 113.292 189.966 113.898 189.58 114.648C189.201 115.39 189.011 116.197 189.011 117.068V119.057C189.011 120.223 189.216 121.216 189.625 122.034C190.042 122.852 190.621 123.477 191.364 123.909C192.106 124.333 192.973 124.545 193.966 124.545C194.61 124.545 195.197 124.455 195.727 124.273C196.258 124.083 196.716 123.803 197.102 123.432C197.489 123.061 197.784 122.602 197.989 122.057L201.205 122.636C200.947 123.583 200.485 124.413 199.818 125.125C199.159 125.83 198.33 126.379 197.33 126.773C196.337 127.159 195.205 127.352 193.932 127.352ZM192.159 107.216L194.818 101.977H198.398L194.875 107.216H192.159Z" fill="#333230"/>
<path d="M178.435 119.761V109.545H181.844V127H178.503V123.977H178.321C177.92 124.909 177.276 125.686 176.389 126.307C175.51 126.92 174.416 127.227 173.105 127.227C171.984 127.227 170.991 126.981 170.128 126.489C169.272 125.989 168.598 125.25 168.105 124.273C167.62 123.295 167.378 122.087 167.378 120.648V109.545H170.776V120.239C170.776 121.428 171.105 122.375 171.764 123.08C172.423 123.784 173.279 124.136 174.332 124.136C174.969 124.136 175.601 123.977 176.23 123.659C176.866 123.341 177.393 122.86 177.81 122.216C178.234 121.572 178.442 120.754 178.435 119.761Z" fill="#333230"/>
<path d="M151.614 119.455H155.068L157.5 122.625L158.648 124.034L162.523 129.091H158.932L156.341 125.716L155.455 124.489L151.614 119.455ZM163.273 115.364C163.273 117.848 162.818 119.985 161.909 121.773C161 123.553 159.754 124.924 158.17 125.886C156.595 126.841 154.803 127.318 152.795 127.318C150.78 127.318 148.981 126.841 147.398 125.886C145.822 124.924 144.58 123.549 143.67 121.761C142.761 119.973 142.307 117.841 142.307 115.364C142.307 112.879 142.761 110.746 143.67 108.966C144.58 107.178 145.822 105.807 147.398 104.852C148.981 103.89 150.78 103.409 152.795 103.409C154.803 103.409 156.595 103.89 158.17 104.852C159.754 105.807 161 107.178 161.909 108.966C162.818 110.746 163.273 112.879 163.273 115.364ZM159.795 115.364C159.795 113.47 159.489 111.875 158.875 110.58C158.269 109.277 157.436 108.292 156.375 107.625C155.322 106.951 154.129 106.614 152.795 106.614C151.455 106.614 150.258 106.951 149.205 107.625C148.152 108.292 147.318 109.277 146.705 110.58C146.098 111.875 145.795 113.47 145.795 115.364C145.795 117.258 146.098 118.856 146.705 120.159C147.318 121.455 148.152 122.439 149.205 123.114C150.258 123.78 151.455 124.114 152.795 124.114C154.129 124.114 155.322 123.78 156.375 123.114C157.436 122.439 158.269 121.455 158.875 120.159C159.489 118.856 159.795 117.258 159.795 115.364Z" fill="#333230"/>
<path d="M123.057 127.352C121.337 127.352 119.856 126.985 118.614 126.25C117.379 125.508 116.424 124.466 115.75 123.125C115.083 121.777 114.75 120.197 114.75 118.386C114.75 116.598 115.083 115.023 115.75 113.659C116.424 112.295 117.364 111.231 118.568 110.466C119.78 109.701 121.197 109.318 122.818 109.318C123.803 109.318 124.758 109.481 125.682 109.807C126.606 110.133 127.436 110.644 128.17 111.341C128.905 112.038 129.485 112.943 129.909 114.057C130.333 115.163 130.545 116.508 130.545 118.091V119.295H116.67V116.75H127.216C127.216 115.856 127.034 115.064 126.67 114.375C126.307 113.678 125.795 113.129 125.136 112.727C124.485 112.326 123.72 112.125 122.841 112.125C121.886 112.125 121.053 112.36 120.341 112.83C119.636 113.292 119.091 113.898 118.705 114.648C118.326 115.39 118.136 116.197 118.136 117.068V119.057C118.136 120.223 118.341 121.216 118.75 122.034C119.167 122.852 119.746 123.477 120.489 123.909C121.231 124.333 122.098 124.545 123.091 124.545C123.735 124.545 124.322 124.455 124.852 124.273C125.383 124.083 125.841 123.803 126.227 123.432C126.614 123.061 126.909 122.602 127.114 122.057L130.33 122.636C130.072 123.583 129.61 124.413 128.943 125.125C128.284 125.83 127.455 126.379 126.455 126.773C125.462 127.159 124.33 127.352 123.057 127.352Z" fill="#333230"/>
<path d="M102.037 127.341C100.628 127.341 99.3703 126.981 98.2642 126.261C97.1657 125.534 96.3021 124.5 95.6733 123.159C95.0521 121.811 94.7415 120.193 94.7415 118.307C94.7415 116.42 95.0559 114.807 95.6847 113.466C96.321 112.125 97.1922 111.098 98.2983 110.386C99.4044 109.674 100.658 109.318 102.06 109.318C103.143 109.318 104.014 109.5 104.673 109.864C105.34 110.22 105.855 110.636 106.219 111.114C106.59 111.591 106.878 112.011 107.082 112.375H107.287V103.727H110.685V127H107.366V124.284H107.082C106.878 124.655 106.582 125.08 106.196 125.557C105.817 126.034 105.295 126.451 104.628 126.807C103.961 127.163 103.098 127.341 102.037 127.341ZM102.787 124.443C103.764 124.443 104.59 124.186 105.264 123.67C105.946 123.148 106.461 122.424 106.81 121.5C107.166 120.576 107.344 119.5 107.344 118.273C107.344 117.061 107.17 116 106.821 115.091C106.473 114.182 105.961 113.473 105.287 112.966C104.613 112.458 103.779 112.205 102.787 112.205C101.764 112.205 100.912 112.47 100.23 113C99.5483 113.53 99.0332 114.254 98.6847 115.17C98.3438 116.087 98.1733 117.121 98.1733 118.273C98.1733 119.439 98.3475 120.489 98.696 121.42C99.0445 122.352 99.5597 123.091 100.241 123.636C100.931 124.174 101.779 124.443 102.787 124.443Z" fill="#333230"/>
<path d="M83.2756 109.545V112.273H73.7415V109.545H83.2756ZM76.2983 105.364H79.696V121.875C79.696 122.534 79.7945 123.03 79.9915 123.364C80.1885 123.689 80.4422 123.913 80.7528 124.034C81.071 124.148 81.4157 124.205 81.7869 124.205C82.0597 124.205 82.2983 124.186 82.5028 124.148C82.7074 124.11 82.8665 124.08 82.9801 124.057L83.5938 126.864C83.3968 126.939 83.1165 127.015 82.7528 127.091C82.3892 127.174 81.9347 127.22 81.3892 127.227C80.4953 127.242 79.6619 127.083 78.8892 126.75C78.1165 126.417 77.4915 125.902 77.0142 125.205C76.5369 124.508 76.2983 123.633 76.2983 122.58V105.364Z" fill="#333230"/>
<path d="M61.8153 127V109.545H65.0994V112.318H65.2812C65.5994 111.379 66.16 110.64 66.9631 110.102C67.7737 109.557 68.6903 109.284 69.7131 109.284C69.9252 109.284 70.1752 109.292 70.4631 109.307C70.7585 109.322 70.9896 109.341 71.1562 109.364V112.614C71.0199 112.576 70.7775 112.534 70.429 112.489C70.0805 112.436 69.732 112.409 69.3835 112.409C68.5805 112.409 67.8646 112.58 67.2358 112.92C66.6146 113.254 66.1222 113.72 65.7585 114.318C65.3949 114.909 65.2131 115.583 65.2131 116.341V127H61.8153Z" fill="#333230"/>
<path d="M49.8864 127.352C48.25 127.352 46.822 126.977 45.6023 126.227C44.3826 125.477 43.4356 124.428 42.7614 123.08C42.0871 121.731 41.75 120.155 41.75 118.352C41.75 116.542 42.0871 114.958 42.7614 113.602C43.4356 112.246 44.3826 111.193 45.6023 110.443C46.822 109.693 48.25 109.318 49.8864 109.318C51.5227 109.318 52.9508 109.693 54.1705 110.443C55.3902 111.193 56.3371 112.246 57.0114 113.602C57.6856 114.958 58.0227 116.542 58.0227 118.352C58.0227 120.155 57.6856 121.731 57.0114 123.08C56.3371 124.428 55.3902 125.477 54.1705 126.227C52.9508 126.977 51.5227 127.352 49.8864 127.352ZM49.8977 124.5C50.9583 124.5 51.8371 124.22 52.5341 123.659C53.2311 123.098 53.7462 122.352 54.0795 121.42C54.4205 120.489 54.5909 119.462 54.5909 118.341C54.5909 117.227 54.4205 116.205 54.0795 115.273C53.7462 114.333 53.2311 113.58 52.5341 113.011C51.8371 112.443 50.9583 112.159 49.8977 112.159C48.8295 112.159 47.9432 112.443 47.2386 113.011C46.5417 113.58 46.0227 114.333 45.6818 115.273C45.3485 116.205 45.1818 117.227 45.1818 118.341C45.1818 119.462 45.3485 120.489 45.6818 121.42C46.0227 122.352 46.5417 123.098 47.2386 123.659C47.9432 124.22 48.8295 124.5 49.8977 124.5Z" fill="#333230"/>
<path d="M22.5568 127V103.727H30.8523C32.6629 103.727 34.1629 104.057 35.3523 104.716C36.5417 105.375 37.4318 106.277 38.0227 107.42C38.6136 108.557 38.9091 109.837 38.9091 111.261C38.9091 112.693 38.6099 113.981 38.0114 115.125C37.4205 116.261 36.5265 117.163 35.3296 117.83C34.1402 118.489 32.6439 118.818 30.8409 118.818H25.1364V115.841H30.5227C31.6667 115.841 32.5947 115.644 33.3068 115.25C34.0189 114.848 34.5417 114.303 34.875 113.614C35.2083 112.924 35.375 112.14 35.375 111.261C35.375 110.383 35.2083 109.602 34.875 108.92C34.5417 108.239 34.0152 107.705 33.2955 107.318C32.5833 106.932 31.6439 106.739 30.4773 106.739H26.0682V127H22.5568Z" fill="#333230"/>
<path d="M189.713 89.3523C187.993 89.3523 186.512 88.9848 185.27 88.25C184.035 87.5076 183.08 86.4659 182.406 85.125C181.74 83.7765 181.406 82.197 181.406 80.3864C181.406 78.5985 181.74 77.0227 182.406 75.6591C183.08 74.2954 184.02 73.2311 185.224 72.4659C186.437 71.7007 187.853 71.3182 189.474 71.3182C190.459 71.3182 191.414 71.4811 192.338 71.8068C193.262 72.1326 194.092 72.6439 194.827 73.3409C195.562 74.0379 196.141 74.9432 196.565 76.0568C196.99 77.1629 197.202 78.5076 197.202 80.0909V81.2954H183.327V78.75H193.872C193.872 77.8561 193.69 77.0644 193.327 76.375C192.963 75.678 192.452 75.1288 191.793 74.7273C191.141 74.3257 190.376 74.125 189.497 74.125C188.543 74.125 187.709 74.3598 186.997 74.8295C186.293 75.2917 185.747 75.8977 185.361 76.6477C184.982 77.3901 184.793 78.197 184.793 79.0682V81.0568C184.793 82.2235 184.997 83.2159 185.406 84.0341C185.823 84.8523 186.402 85.4773 187.145 85.9091C187.887 86.3333 188.755 86.5454 189.747 86.5454C190.391 86.5454 190.978 86.4545 191.509 86.2727C192.039 86.0833 192.497 85.803 192.884 85.4318C193.27 85.0606 193.565 84.6023 193.77 84.0568L196.986 84.6364C196.728 85.5833 196.266 86.4129 195.599 87.125C194.94 87.8295 194.111 88.3788 193.111 88.7727C192.118 89.1591 190.986 89.3523 189.713 89.3523Z" fill="#333230"/>
<path d="M170.534 89V71.5455H173.818V74.3182H174C174.318 73.3788 174.879 72.6402 175.682 72.1023C176.492 71.5568 177.409 71.2841 178.432 71.2841C178.644 71.2841 178.894 71.2917 179.182 71.3068C179.477 71.322 179.708 71.3409 179.875 71.3636V74.6136C179.739 74.5758 179.496 74.5341 179.148 74.4886C178.799 74.4356 178.451 74.4091 178.102 74.4091C177.299 74.4091 176.583 74.5795 175.955 74.9205C175.333 75.2538 174.841 75.7197 174.477 76.3182C174.114 76.9091 173.932 77.5833 173.932 78.3409V89H170.534Z" fill="#333230"/>
<path d="M159.276 89.3523C157.556 89.3523 156.075 88.9848 154.832 88.25C153.598 87.5076 152.643 86.4659 151.969 85.125C151.302 83.7765 150.969 82.197 150.969 80.3864C150.969 78.5985 151.302 77.0227 151.969 75.6591C152.643 74.2954 153.582 73.2311 154.787 72.4659C155.999 71.7007 157.416 71.3182 159.037 71.3182C160.022 71.3182 160.976 71.4811 161.901 71.8068C162.825 72.1326 163.654 72.6439 164.389 73.3409C165.124 74.0379 165.704 74.9432 166.128 76.0568C166.552 77.1629 166.764 78.5076 166.764 80.0909V81.2954H152.889V78.75H163.435C163.435 77.8561 163.253 77.0644 162.889 76.375C162.526 75.678 162.014 75.1288 161.355 74.7273C160.704 74.3257 159.938 74.125 159.06 74.125C158.105 74.125 157.272 74.3598 156.56 74.8295C155.855 75.2917 155.31 75.8977 154.923 76.6477C154.545 77.3901 154.355 78.197 154.355 79.0682V81.0568C154.355 82.2235 154.56 83.2159 154.969 84.0341C155.385 84.8523 155.965 85.4773 156.707 85.9091C157.45 86.3333 158.317 86.5454 159.31 86.5454C159.954 86.5454 160.541 86.4545 161.071 86.2727C161.601 86.0833 162.06 85.803 162.446 85.4318C162.832 85.0606 163.128 84.6023 163.332 84.0568L166.548 84.6364C166.291 85.5833 165.829 86.4129 165.162 87.125C164.503 87.8295 163.673 88.3788 162.673 88.7727C161.681 89.1591 160.548 89.3523 159.276 89.3523ZM157.582 69.2159L154.071 63.9773H157.651L160.298 69.2159H157.582Z" fill="#333230"/>
<path d="M143.784 89V71.5455H147.182V89H143.784ZM145.5 68.8523C144.909 68.8523 144.402 68.6553 143.977 68.2614C143.561 67.8599 143.352 67.3826 143.352 66.8296C143.352 66.269 143.561 65.7917 143.977 65.3977C144.402 64.9962 144.909 64.7955 145.5 64.7955C146.091 64.7955 146.595 64.9962 147.011 65.3977C147.436 65.7917 147.648 66.269 147.648 66.8296C147.648 67.3826 147.436 67.8599 147.011 68.2614C146.595 68.6553 146.091 68.8523 145.5 68.8523Z" fill="#333230"/>
<path d="M139.707 75.8068L136.628 76.3523C136.499 75.9583 136.295 75.5833 136.014 75.2273C135.741 74.8712 135.37 74.5795 134.901 74.3523C134.431 74.125 133.844 74.0114 133.139 74.0114C132.177 74.0114 131.374 74.2273 130.73 74.6591C130.086 75.0833 129.764 75.6326 129.764 76.3068C129.764 76.8901 129.98 77.3598 130.412 77.7159C130.844 78.072 131.541 78.3636 132.503 78.5909L135.276 79.2273C136.882 79.5985 138.079 80.1704 138.866 80.9432C139.654 81.7159 140.048 82.7197 140.048 83.9545C140.048 85 139.745 85.9318 139.139 86.75C138.541 87.5606 137.704 88.197 136.628 88.6591C135.56 89.1212 134.321 89.3523 132.912 89.3523C130.957 89.3523 129.363 88.9356 128.128 88.1023C126.893 87.2614 126.135 86.0682 125.855 84.5227L129.139 84.0227C129.344 84.8788 129.764 85.5265 130.401 85.9659C131.037 86.3977 131.866 86.6136 132.889 86.6136C134.003 86.6136 134.893 86.3826 135.56 85.9204C136.226 85.4508 136.56 84.8788 136.56 84.2045C136.56 83.6591 136.355 83.2007 135.946 82.8295C135.544 82.4583 134.927 82.178 134.094 81.9886L131.139 81.3409C129.51 80.9697 128.306 80.3788 127.526 79.5682C126.753 78.7576 126.366 77.7311 126.366 76.4886C126.366 75.4583 126.654 74.5568 127.23 73.7841C127.806 73.0114 128.601 72.4091 129.616 71.9773C130.632 71.5379 131.795 71.3182 133.105 71.3182C134.991 71.3182 136.476 71.7273 137.56 72.5454C138.643 73.3561 139.359 74.4432 139.707 75.8068Z" fill="#333230"/>
<path d="M118.659 89V71.5455H122.057V89H118.659ZM120.375 68.8523C119.784 68.8523 119.277 68.6553 118.852 68.2614C118.436 67.8599 118.227 67.3826 118.227 66.8296C118.227 66.269 118.436 65.7917 118.852 65.3977C119.277 64.9962 119.784 64.7955 120.375 64.7955C120.966 64.7955 121.47 64.9962 121.886 65.3977C122.311 65.7917 122.523 66.269 122.523 66.8296C122.523 67.3826 122.311 67.8599 121.886 68.2614C121.47 68.6553 120.966 68.8523 120.375 68.8523Z" fill="#333230"/>
<path d="M106.73 89.3523C105.094 89.3523 103.666 88.9773 102.446 88.2273C101.226 87.4773 100.279 86.428 99.6051 85.0795C98.9309 83.7311 98.5938 82.1553 98.5938 80.3523C98.5938 78.5417 98.9309 76.9583 99.6051 75.6023C100.279 74.2462 101.226 73.1932 102.446 72.4432C103.666 71.6932 105.094 71.3182 106.73 71.3182C108.366 71.3182 109.795 71.6932 111.014 72.4432C112.234 73.1932 113.181 74.2462 113.855 75.6023C114.529 76.9583 114.866 78.5417 114.866 80.3523C114.866 82.1553 114.529 83.7311 113.855 85.0795C113.181 86.428 112.234 87.4773 111.014 88.2273C109.795 88.9773 108.366 89.3523 106.73 89.3523ZM106.741 86.5C107.802 86.5 108.681 86.2197 109.378 85.6591C110.075 85.0985 110.59 84.3523 110.923 83.4204C111.264 82.4886 111.435 81.4621 111.435 80.3409C111.435 79.2273 111.264 78.2045 110.923 77.2727C110.59 76.3333 110.075 75.5795 109.378 75.0114C108.681 74.4432 107.802 74.1591 106.741 74.1591C105.673 74.1591 104.787 74.4432 104.082 75.0114C103.385 75.5795 102.866 76.3333 102.526 77.2727C102.192 78.2045 102.026 79.2273 102.026 80.3409C102.026 81.4621 102.192 82.4886 102.526 83.4204C102.866 84.3523 103.385 85.0985 104.082 85.6591C104.787 86.2197 105.673 86.5 106.741 86.5Z" fill="#333230"/>
<path d="M87.7216 89V71.5455H91.0057V74.3182H91.1875C91.5057 73.3788 92.0663 72.6402 92.8693 72.1023C93.6799 71.5568 94.5966 71.2841 95.6193 71.2841C95.8314 71.2841 96.0814 71.2917 96.3693 71.3068C96.6648 71.322 96.8958 71.3409 97.0625 71.3636V74.6136C96.9261 74.5758 96.6837 74.5341 96.3352 74.4886C95.9867 74.4356 95.6383 74.4091 95.2898 74.4091C94.4867 74.4091 93.7708 74.5795 93.142 74.9205C92.5208 75.2538 92.0284 75.7197 91.6648 76.3182C91.3011 76.9091 91.1193 77.5833 91.1193 78.3409V89H87.7216Z" fill="#333230"/>
<path d="M76.9176 89.3523C75.2282 89.3523 73.7737 88.9697 72.554 88.2045C71.3419 87.4318 70.41 86.3674 69.7585 85.0114C69.107 83.6553 68.7812 82.1023 68.7812 80.3523C68.7812 78.5795 69.1146 77.0151 69.7812 75.6591C70.4479 74.2954 71.3873 73.2311 72.5994 72.4659C73.8116 71.7007 75.2396 71.3182 76.8835 71.3182C78.2093 71.3182 79.3911 71.5644 80.429 72.0568C81.4669 72.5417 82.304 73.2235 82.9403 74.1023C83.5843 74.9811 83.9669 76.0076 84.0881 77.1818H80.7812C80.5994 76.3636 80.1828 75.6591 79.5312 75.0682C78.8873 74.4773 78.0237 74.1818 76.9403 74.1818C75.9934 74.1818 75.1638 74.4318 74.4517 74.9318C73.7472 75.4242 73.1979 76.1288 72.804 77.0454C72.41 77.9545 72.2131 79.0303 72.2131 80.2727C72.2131 81.5454 72.4063 82.6439 72.7926 83.5682C73.179 84.4924 73.7244 85.2083 74.429 85.7159C75.1411 86.2235 75.9782 86.4773 76.9403 86.4773C77.5843 86.4773 78.1676 86.3598 78.6903 86.125C79.2206 85.8826 79.6638 85.5379 80.0199 85.0909C80.3835 84.6439 80.6373 84.1061 80.7812 83.4773H84.0881C83.9669 84.6061 83.5994 85.6136 82.9858 86.5C82.3722 87.3864 81.5502 88.0833 80.5199 88.5909C79.4972 89.0985 78.2964 89.3523 76.9176 89.3523Z" fill="#333230"/>
<path d="M49.8381 89.3523C48.1184 89.3523 46.6373 88.9848 45.3949 88.25C44.16 87.5076 43.2055 86.4659 42.5312 85.125C41.8646 83.7765 41.5312 82.197 41.5312 80.3864C41.5312 78.5985 41.8646 77.0227 42.5312 75.6591C43.2055 74.2954 44.1449 73.2311 45.3494 72.4659C46.5616 71.7007 47.9782 71.3182 49.5994 71.3182C50.5843 71.3182 51.5388 71.4811 52.4631 71.8068C53.3873 72.1326 54.2169 72.6439 54.9517 73.3409C55.6866 74.0379 56.2661 74.9432 56.6903 76.0568C57.1146 77.1629 57.3267 78.5076 57.3267 80.0909V81.2954H43.4517V78.75H53.9972C53.9972 77.8561 53.8153 77.0644 53.4517 76.375C53.0881 75.678 52.5767 75.1288 51.9176 74.7273C51.2661 74.3257 50.5009 74.125 49.6222 74.125C48.6676 74.125 47.8343 74.3598 47.1222 74.8295C46.4176 75.2917 45.8722 75.8977 45.4858 76.6477C45.107 77.3901 44.9176 78.197 44.9176 79.0682V81.0568C44.9176 82.2235 45.1222 83.2159 45.5312 84.0341C45.9479 84.8523 46.5275 85.4773 47.2699 85.9091C48.0123 86.3333 48.8797 86.5454 49.8722 86.5454C50.5161 86.5454 51.1032 86.4545 51.6335 86.2727C52.1638 86.0833 52.6222 85.803 53.0085 85.4318C53.3949 85.0606 53.6903 84.6023 53.8949 84.0568L57.1108 84.6364C56.8532 85.5833 56.3911 86.4129 55.7244 87.125C55.0653 87.8295 54.2358 88.3788 53.2358 88.7727C52.2434 89.1591 51.1108 89.3523 49.8381 89.3523Z" fill="#333230"/>
<path d="M28.8182 89.3409C27.4091 89.3409 26.1515 88.981 25.0455 88.2614C23.947 87.5341 23.0833 86.5 22.4546 85.1591C21.8333 83.8106 21.5227 82.1932 21.5227 80.3068C21.5227 78.4204 21.8371 76.8068 22.4659 75.4659C23.1023 74.125 23.9735 73.0985 25.0796 72.3864C26.1856 71.6742 27.4394 71.3182 28.8409 71.3182C29.9243 71.3182 30.7955 71.5 31.4546 71.8636C32.1212 72.2197 32.6364 72.6364 33 73.1136C33.3712 73.5909 33.6591 74.0114 33.8636 74.375H34.0682V65.7273H37.4659V89H34.1477V86.2841H33.8636C33.6591 86.6553 33.3636 87.0795 32.9773 87.5568C32.5985 88.0341 32.0758 88.4507 31.4091 88.8068C30.7424 89.1629 29.8788 89.3409 28.8182 89.3409ZM29.5682 86.4432C30.5455 86.4432 31.3712 86.1856 32.0455 85.6704C32.7273 85.1477 33.2424 84.4242 33.5909 83.5C33.947 82.5757 34.125 81.5 34.125 80.2727C34.125 79.0606 33.9508 78 33.6023 77.0909C33.2538 76.1818 32.7424 75.4735 32.0682 74.9659C31.3939 74.4583 30.5606 74.2045 29.5682 74.2045C28.5455 74.2045 27.6932 74.4697 27.0114 75C26.3296 75.5303 25.8144 76.2538 25.4659 77.1704C25.125 78.0871 24.9546 79.1212 24.9546 80.2727C24.9546 81.4394 25.1288 82.4886 25.4773 83.4204C25.8258 84.3523 26.3409 85.0909 27.0227 85.6364C27.7121 86.1742 28.5606 86.4432 29.5682 86.4432Z" fill="#333230"/>
<path d="M148.651 27.7273V51H145.253V27.7273H148.651Z" fill="#333230"/>
<path d="M132.114 51.3864C131.008 51.3864 130.008 51.1818 129.114 50.7727C128.22 50.3561 127.511 49.7538 126.989 48.9659C126.473 48.178 126.216 47.2121 126.216 46.0682C126.216 45.0833 126.405 44.2727 126.784 43.6364C127.163 43 127.674 42.4962 128.318 42.125C128.962 41.7538 129.682 41.4735 130.477 41.2841C131.273 41.0947 132.083 40.9508 132.909 40.8523C133.955 40.7311 134.803 40.6326 135.455 40.5568C136.106 40.4735 136.58 40.3409 136.875 40.1591C137.17 39.9773 137.318 39.6818 137.318 39.2727V39.1932C137.318 38.2008 137.038 37.4318 136.477 36.8864C135.924 36.3409 135.098 36.0682 134 36.0682C132.856 36.0682 131.955 36.322 131.295 36.8295C130.644 37.3295 130.193 37.8864 129.943 38.5L126.75 37.7727C127.129 36.7121 127.682 35.8561 128.409 35.2045C129.144 34.5454 129.989 34.0682 130.943 33.7727C131.898 33.4697 132.902 33.3182 133.955 33.3182C134.652 33.3182 135.39 33.4015 136.17 33.5682C136.958 33.7273 137.693 34.0227 138.375 34.4545C139.064 34.8864 139.629 35.5038 140.068 36.3068C140.508 37.1023 140.727 38.1364 140.727 39.4091V51H137.409V48.6136H137.273C137.053 49.053 136.723 49.4848 136.284 49.9091C135.845 50.3333 135.28 50.6856 134.591 50.9659C133.902 51.2462 133.076 51.3864 132.114 51.3864ZM132.852 48.6591C133.792 48.6591 134.595 48.4735 135.261 48.1023C135.936 47.7311 136.447 47.2462 136.795 46.6477C137.152 46.0417 137.33 45.3939 137.33 44.7045V42.4545C137.208 42.5758 136.973 42.6894 136.625 42.7954C136.284 42.8939 135.894 42.9811 135.455 43.0568C135.015 43.125 134.587 43.1894 134.17 43.25C133.754 43.303 133.405 43.3485 133.125 43.3864C132.466 43.4697 131.864 43.6098 131.318 43.8068C130.78 44.0038 130.348 44.2879 130.023 44.6591C129.705 45.0227 129.545 45.5076 129.545 46.1136C129.545 46.9545 129.856 47.5909 130.477 48.0227C131.098 48.447 131.89 48.6591 132.852 48.6591Z" fill="#333230"/>
<path d="M111.307 40.6364V51H107.909V33.5454H111.17V36.3864H111.386C111.788 35.4621 112.417 34.7197 113.273 34.1591C114.136 33.5985 115.223 33.3182 116.534 33.3182C117.723 33.3182 118.765 33.5682 119.659 34.0682C120.553 34.5606 121.246 35.2954 121.739 36.2727C122.231 37.25 122.477 38.4583 122.477 39.8977V51H119.08V40.3068C119.08 39.0417 118.75 38.053 118.091 37.3409C117.432 36.6212 116.527 36.2614 115.375 36.2614C114.587 36.2614 113.886 36.4318 113.273 36.7727C112.667 37.1136 112.186 37.6136 111.83 38.2727C111.481 38.9242 111.307 39.7121 111.307 40.6364Z" fill="#333230"/>
<path d="M99.9403 51V33.5454H103.338V51H99.9403ZM101.656 30.8523C101.065 30.8523 100.558 30.6553 100.134 30.2613C99.7168 29.8598 99.5085 29.3826 99.5085 28.8295C99.5085 28.2689 99.7168 27.7917 100.134 27.3977C100.558 26.9962 101.065 26.7954 101.656 26.7954C102.247 26.7954 102.751 26.9962 103.168 27.3977C103.592 27.7917 103.804 28.2689 103.804 28.8295C103.804 29.3826 103.592 29.8598 103.168 30.2613C102.751 30.6553 102.247 30.8523 101.656 30.8523Z" fill="#333230"/>
<path d="M71.6591 51V33.5454H74.9205V36.3864H75.1364C75.5 35.4242 76.0947 34.6742 76.9205 34.1364C77.7462 33.5909 78.7348 33.3182 79.8864 33.3182C81.053 33.3182 82.0303 33.5909 82.8182 34.1364C83.6136 34.6818 84.2008 35.4318 84.5795 36.3864H84.7614C85.178 35.4545 85.8409 34.7121 86.75 34.1591C87.6591 33.5985 88.7424 33.3182 90 33.3182C91.5833 33.3182 92.875 33.8144 93.875 34.8068C94.8826 35.7992 95.3864 37.2954 95.3864 39.2954V51H91.9886V39.6136C91.9886 38.4318 91.6667 37.5758 91.0227 37.0454C90.3788 36.5151 89.6098 36.25 88.7159 36.25C87.6098 36.25 86.75 36.5909 86.1364 37.2727C85.5227 37.947 85.2159 38.8144 85.2159 39.875V51H81.8295V39.3977C81.8295 38.4508 81.5341 37.6894 80.9432 37.1136C80.3523 36.5379 79.5833 36.25 78.6364 36.25C77.9924 36.25 77.3977 36.4204 76.8523 36.7614C76.3144 37.0947 75.8788 37.5606 75.5455 38.1591C75.2197 38.7576 75.0568 39.4508 75.0568 40.2386V51H71.6591Z" fill="#333230"/>
<path d="M59.3778 51V33.5455H62.6619V36.3182H62.8437C63.1619 35.3788 63.7225 34.6401 64.5256 34.1023C65.3362 33.5568 66.2528 33.2841 67.2756 33.2841C67.4877 33.2841 67.7377 33.2917 68.0256 33.3068C68.321 33.322 68.5521 33.3409 68.7187 33.3636V36.6136C68.5824 36.5758 68.34 36.5341 67.9915 36.4886C67.643 36.4356 67.2945 36.4091 66.946 36.4091C66.143 36.4091 65.4271 36.5795 64.7983 36.9205C64.1771 37.2538 63.6847 37.7197 63.321 38.3182C62.9574 38.9091 62.7756 39.5833 62.7756 40.3409V51H59.3778Z" fill="#333230"/>
<path d="M48.1193 51.3523C46.3996 51.3523 44.9186 50.9848 43.6761 50.25C42.4413 49.5076 41.4867 48.4659 40.8125 47.125C40.1458 45.7765 39.8125 44.197 39.8125 42.3864C39.8125 40.5985 40.1458 39.0227 40.8125 37.6591C41.4867 36.2954 42.4261 35.2311 43.6307 34.4659C44.8428 33.7008 46.2595 33.3182 47.8807 33.3182C48.8655 33.3182 49.8201 33.4811 50.7443 33.8068C51.6686 34.1326 52.4981 34.6439 53.233 35.3409C53.9678 36.0379 54.5473 36.9432 54.9716 38.0568C55.3958 39.1629 55.608 40.5076 55.608 42.0909V43.2954H41.733V40.75H52.2784C52.2784 39.8561 52.0966 39.0644 51.733 38.375C51.3693 37.678 50.858 37.1288 50.1989 36.7273C49.5473 36.3258 48.7822 36.125 47.9034 36.125C46.9489 36.125 46.1155 36.3598 45.4034 36.8295C44.6989 37.2917 44.1534 37.8977 43.767 38.6477C43.3883 39.3901 43.1989 40.197 43.1989 41.0682V43.0568C43.1989 44.2235 43.4034 45.2159 43.8125 46.0341C44.2292 46.8523 44.8087 47.4773 45.5511 47.9091C46.2936 48.3333 47.161 48.5454 48.1534 48.5454C48.7973 48.5454 49.3845 48.4545 49.9148 48.2727C50.4451 48.0833 50.9034 47.803 51.2898 47.4318C51.6761 47.0606 51.9716 46.6023 52.1761 46.0568L55.392 46.6364C55.1345 47.5833 54.6724 48.4129 54.0057 49.125C53.3466 49.8295 52.517 50.3788 51.517 50.7727C50.5246 51.1591 49.392 51.3523 48.1193 51.3523Z" fill="#333230"/>
<path d="M21.4091 30.75V27.7273H39.4205V30.75H32.1591V51H28.6591V30.75H21.4091Z" fill="#333230"/>
</svg>
