<svg width="288" height="280" viewBox="0 0 288 280" fill="none" xmlns="http://www.w3.org/2000/svg">
<g clip-path="url(#clip0_3247_18921)">
<path d="M526.689 294.395L524.862 277.895L508.143 279.753L506.316 263.308L489.597 265.111L472.933 266.968L456.269 268.826L439.549 270.683L422.886 272.486L406.222 274.344L389.502 276.201L391.385 292.646L374.721 294.504L358.001 296.362L341.338 298.165L324.674 300.022L307.954 301.88L309.837 318.325L293.173 320.182L276.453 321.985L274.626 305.54L291.29 303.683L289.408 287.238L306.127 285.38L304.245 268.935L320.909 267.077L319.082 250.632L317.2 234.187L333.864 232.33L331.981 215.885L348.701 214.027L346.818 197.582L363.482 195.724L361.655 179.279L359.773 162.78L376.437 160.922L374.555 144.477L372.728 128.032L370.845 111.532L368.963 95.0872L367.136 78.6421L350.417 80.4451L348.59 64L331.871 65.8576L315.207 67.6605L298.543 69.5181L281.823 71.3757L265.16 73.2333L267.042 89.6783L250.323 91.5359L252.205 107.981L235.541 109.839L237.368 126.284L239.25 142.729L222.586 144.586L224.413 161.086L207.749 162.889L209.632 179.389L192.912 181.192L194.795 197.691L196.677 214.136L180.013 215.994L181.84 232.439L165.176 234.296L167.058 250.742L168.885 267.187L152.221 269.044L154.104 285.489L137.384 287.347L120.72 289.204L118.838 272.759L117.011 256.26L115.129 239.815L98.4648 241.672L96.5825 225.172L94.7002 208.727L78.0363 210.585L76.154 194.085L74.2717 177.64L57.6078 179.498L55.7255 162.998L53.8985 146.553L37.1792 148.411L35.3523 131.911L33.4699 115.466L16.7507 117.324L14.9237 100.824L-1.79556 102.681L-3.6225 86.2363L-20.3418 88.0393L-37.0057 89.8969L-53.6697 91.7544L-51.8427 108.2L-68.5067 110.057L-66.6243 126.502L-83.3436 128.36L-81.4613 144.805L-79.579 161.304L-77.6967 177.75L-75.8698 194.195L-59.1505 192.392L-57.3236 208.837L-55.4412 225.282L-38.7773 223.479L-36.895 239.924L-35.0127 256.369L-18.3488 254.566L-16.4665 271.011L-14.5842 287.456L2.07977 285.653L3.9621 302.098L5.789 318.543L22.5083 316.74L24.3353 333.185L26.2176 349.63L28.0999 366.13L44.7638 364.273L46.6461 380.718L29.9822 382.575L13.2629 384.433L15.1452 400.878L-1.51877 402.735L-18.2381 404.538L-34.902 406.396L-51.5659 408.254L-68.2852 410.111L-66.4029 426.556L-83.0668 428.414L-99.7861 430.217L-116.45 432.074L-133.169 433.932L-149.833 435.789L-166.497 437.592L-183.161 439.45L-181.334 455.895L-197.998 457.753L-214.662 459.61L-231.381 461.468L-229.499 477.913L-246.163 479.77L-244.336 496.215L-261 498.073L-259.118 514.518L-257.291 530.963L-255.408 547.463L-253.526 563.908L-236.862 562.05L-234.98 578.55L-218.316 576.692L-201.597 574.835L-199.77 591.28L-183.05 589.477L-166.387 587.619L-149.723 585.762L-151.55 569.317L-134.886 567.459L-118.222 565.656L-101.502 563.799L-84.8384 561.941L-68.1745 560.083L-70.0014 543.638L-53.3375 541.781L-36.6736 539.978L-19.9543 538.12L-3.29034 536.263L-1.40802 552.708L-18.1273 554.565L-16.245 571.065L-14.3627 587.51L-31.082 589.368L-29.1997 605.813L-45.8636 607.67L-43.9813 624.115L-60.7006 625.973L-58.8183 642.418L-75.4823 644.276L-73.6553 660.721L-71.773 677.22L-88.4369 679.023L-86.61 695.523L-84.7277 711.968L-101.392 713.826L-99.5647 730.271L-97.6824 746.716L-80.9631 744.913L-79.1362 761.358L-62.4169 759.5L-60.5899 776L-43.8706 774.142L-27.2067 772.285L-10.5427 770.482L6.17654 768.624L22.8405 766.767L20.9582 750.322L37.6775 748.464L35.7952 732.019L33.9129 715.519L50.6322 713.716L48.7498 697.217L65.4138 695.414L63.5869 678.914L80.2508 677.056L78.3685 660.611L76.4861 644.166L93.2055 642.309L91.3232 625.864L107.987 624.006L106.16 607.561L122.824 605.703L120.942 589.258L137.661 587.401L135.779 570.901L133.896 554.456L150.56 552.598L152.443 569.098L169.162 567.241L170.989 583.686L172.871 600.185L189.535 598.328L191.417 614.773L208.081 612.97L209.964 629.415L211.846 645.86L213.728 662.36L230.392 660.502L232.275 676.947L234.102 693.447L250.821 691.589L252.648 708.034L254.53 724.534L271.249 722.676L273.076 739.122L289.796 737.319L291.622 753.764L308.342 751.906L325.006 750.103L341.67 748.245L339.843 731.746L356.507 729.943L354.624 713.443L371.344 711.64L369.461 695.141L367.579 678.695L365.752 662.25L349.033 664.053L347.151 647.608L345.324 631.163L328.604 632.966L326.777 616.521L310.058 618.379L308.231 601.879L306.349 585.434L304.466 568.989L287.803 570.792L285.92 554.347L284.038 537.902L267.374 539.705L265.492 523.26L263.665 506.815L246.945 508.617L245.063 492.172L243.236 475.727L226.517 477.585L224.69 461.085L241.354 459.228L258.018 457.425L274.737 455.567L291.401 453.71L289.519 437.265L306.238 435.407L322.902 433.604L339.566 431.746L356.285 429.889L354.403 413.444L371.067 411.586L387.786 409.729L404.45 407.926L421.114 406.068L437.833 404.211L454.497 402.353L471.161 400.55L469.334 384.05L485.998 382.247L502.662 380.39L519.381 378.532L517.499 362.087L534.163 360.23L532.336 343.785L549 341.927L547.118 325.482L545.291 308.982L543.408 292.537L526.689 294.395Z" fill="#871C00"/>
</g>
<defs>
<clipPath id="clip0_3247_18921">
<rect width="288" height="280" fill="white"/>
</clipPath>
</defs>
</svg>
