<svg viewBox="0 0 288 288" fill="none" xmlns="http://www.w3.org/2000/svg">
<g clip-path="url(#clip0_0_107)">
<rect width="288" height="288" fill="#F3EEE7"/>
<path d="M238.689 302.395L236.862 285.895L220.143 287.753L218.316 271.308L201.597 273.111L184.933 274.968L168.269 276.826L151.549 278.683L134.886 280.486L118.222 282.344L101.502 284.201L103.385 300.646L86.7208 302.504L70.0014 304.362L53.3375 306.165L36.6736 308.022L19.9543 309.88L21.8366 326.325L5.17267 328.182L-11.5466 329.985L-13.3736 313.54L3.29034 311.683L1.40802 295.238L18.1274 293.38L16.245 276.935L32.909 275.077L31.082 258.632L29.1997 242.187L45.8636 240.33L43.9814 223.885L60.7006 222.027L58.8184 205.582L75.4823 203.724L73.6553 187.279L71.773 170.78L88.437 168.922L86.5547 152.477L84.7277 136.032L82.8454 119.532L80.9631 103.087L79.1362 86.6421L62.4169 88.4451L60.5899 72L43.8706 73.8576L27.2067 75.6605L10.5428 77.5181L-6.17651 79.3757L-22.8405 81.2333L-20.9582 97.6783L-37.6775 99.5359L-35.7952 115.981L-52.459 117.839L-50.6322 134.284L-48.7498 150.729L-65.4138 152.586L-63.5868 169.086L-80.2508 170.889L-78.3684 187.389L-95.0877 189.192L-93.2054 205.691L-91.3232 222.136L-107.987 223.994L-106.16 240.439L-122.824 242.296L-120.942 258.742L-119.115 275.187L-135.779 277.044L-133.896 293.489L-150.616 295.347L-167.28 297.204L-169.162 280.759L-170.989 264.26L-172.871 247.815L-189.535 249.672L-191.417 233.172L-193.3 216.727L-209.964 218.585L-211.846 202.085L-213.728 185.64L-230.392 187.498L-232.275 170.998L-234.101 154.553L-250.821 156.411L-252.648 139.911L-254.53 123.466L-271.249 125.324L-273.076 108.824L-289.796 110.681L-291.622 94.2363L-308.342 96.0393L-325.006 97.8969L-341.67 99.7544L-339.843 116.2L-356.507 118.057L-354.624 134.502L-371.344 136.36L-369.461 152.805L-367.579 169.304L-365.697 185.75L-363.87 202.195L-347.15 200.392L-345.324 216.837L-343.441 233.282L-326.777 231.479L-324.895 247.924L-323.013 264.369L-306.349 262.566L-304.466 279.011L-302.584 295.456L-285.92 293.653L-284.038 310.098L-282.211 326.543L-265.492 324.74L-263.665 341.185L-261.782 357.63L-259.9 374.13L-243.236 372.273L-241.354 388.718L-258.018 390.575L-274.737 392.433L-272.855 408.878L-289.519 410.735L-306.238 412.538L-322.902 414.396L-339.566 416.254L-356.285 418.111L-354.403 434.556L-371.067 436.414L-387.786 438.217L-404.45 440.074L-421.169 441.932L-437.833 443.789L-454.497 445.592L-471.161 447.45L-469.334 463.895L-485.998 465.753L-502.662 467.61L-519.381 469.468L-517.499 485.913L-534.163 487.77L-532.336 504.215L-549 506.073L-547.118 522.518L-545.291 538.963L-543.408 555.463L-541.526 571.908L-524.862 570.05L-522.98 586.55L-506.316 584.692L-489.597 582.835L-487.77 599.28L-471.05 597.477L-454.387 595.619L-437.723 593.762L-439.55 577.317L-422.886 575.459L-406.222 573.656L-389.502 571.799L-372.838 569.941L-356.174 568.083L-358.001 551.638L-341.337 549.781L-324.674 547.978L-307.954 546.12L-291.29 544.263L-289.408 560.708L-306.127 562.565L-304.245 579.065L-302.363 595.51L-319.082 597.368L-317.2 613.813L-333.864 615.67L-331.981 632.115L-348.701 633.973L-346.818 650.418L-363.482 652.276L-361.655 668.721L-359.773 685.22L-376.437 687.023L-374.61 703.523L-372.728 719.968L-389.392 721.826L-387.565 738.271L-385.682 754.716L-368.963 752.913L-367.136 769.358L-350.417 767.5L-348.59 784L-331.871 782.142L-315.207 780.285L-298.543 778.482L-281.823 776.624L-265.16 774.767L-267.042 758.322L-250.323 756.464L-252.205 740.019L-254.087 723.519L-237.368 721.716L-239.25 705.217L-222.586 703.414L-224.413 686.914L-207.749 685.056L-209.632 668.611L-211.514 652.166L-194.795 650.309L-196.677 633.864L-180.013 632.006L-181.84 615.561L-165.176 613.703L-167.058 597.258L-150.339 595.401L-152.221 578.901L-154.104 562.456L-137.44 560.598L-135.557 577.098L-118.838 575.241L-117.011 591.686L-115.129 608.185L-98.4648 606.328L-96.5825 622.773L-79.9186 620.97L-78.0363 637.415L-76.1539 653.86L-74.2717 670.36L-57.6078 668.502L-55.7254 684.947L-53.8985 701.447L-37.1792 699.589L-35.3522 716.034L-33.4699 732.534L-16.7507 730.676L-14.9237 747.122L1.79559 745.319L3.6225 761.764L20.3418 759.906L37.0057 758.103L53.6697 756.245L51.8427 739.746L68.5067 737.943L66.6244 721.443L83.3437 719.64L81.4614 703.141L79.5791 686.695L77.7521 670.25L61.0328 672.053L59.1505 655.608L57.3235 639.163L40.6043 640.966L38.7773 624.521L22.058 626.379L20.2311 609.879L18.3488 593.434L16.4665 576.989L-0.197449 578.792L-2.07971 562.347L-3.96204 545.902L-20.626 547.705L-22.5083 531.26L-24.3353 514.815L-41.0545 516.617L-42.9368 500.172L-44.7638 483.727L-61.4831 485.585L-63.31 469.085L-46.6461 467.228L-29.9822 465.425L-13.2629 463.567L3.40106 461.71L1.5188 445.265L18.238 443.407L34.902 441.604L51.5659 439.746L68.2853 437.889L66.403 421.444L83.0668 419.586L99.7861 417.729L116.45 415.926L133.114 414.068L149.833 412.211L166.497 410.353L183.161 408.55L181.334 392.05L197.998 390.247L214.662 388.39L231.381 386.532L229.499 370.087L246.163 368.23L244.336 351.785L261 349.927L259.118 333.482L257.291 316.982L255.408 300.537L238.689 302.395Z" fill="currentColor"/>
</g>
<defs>
<clipPath id="clip0_0_107">
<rect width="288" height="288" fill="white"/>
</clipPath>
</defs>
</svg>
