<svg width="288" height="280" viewBox="0 0 288 280" fill="none" xmlns="http://www.w3.org/2000/svg">
<rect width="288" height="280" fill="#CCDEFF"/>
<path d="M155.06 253.318C153.946 253.311 152.859 253.117 151.798 252.739C150.738 252.352 149.783 251.727 148.935 250.864C148.086 249.992 147.412 248.837 146.912 247.398C146.412 245.951 146.166 244.159 146.173 242.023C146.173 240.03 146.385 238.254 146.81 236.693C147.234 235.133 147.844 233.814 148.639 232.739C149.435 231.655 150.393 230.83 151.514 230.261C152.643 229.693 153.904 229.409 155.298 229.409C156.76 229.409 158.056 229.697 159.185 230.273C160.321 230.848 161.238 231.636 161.935 232.636C162.632 233.629 163.063 234.75 163.23 236H159.082C158.87 235.106 158.435 234.394 157.776 233.864C157.124 233.326 156.298 233.057 155.298 233.057C153.685 233.057 152.442 233.758 151.571 235.159C150.707 236.561 150.272 238.485 150.264 240.932H150.423C150.795 240.265 151.276 239.693 151.866 239.216C152.457 238.739 153.124 238.371 153.866 238.114C154.616 237.848 155.408 237.716 156.241 237.716C157.605 237.716 158.829 238.042 159.912 238.693C161.003 239.345 161.866 240.242 162.503 241.386C163.139 242.523 163.454 243.826 163.446 245.295C163.454 246.826 163.105 248.201 162.401 249.42C161.696 250.633 160.715 251.587 159.457 252.284C158.2 252.981 156.734 253.326 155.06 253.318ZM155.037 249.909C155.863 249.909 156.601 249.708 157.253 249.307C157.904 248.905 158.42 248.364 158.798 247.682C159.177 247 159.363 246.235 159.355 245.386C159.363 244.553 159.181 243.799 158.81 243.125C158.446 242.451 157.942 241.917 157.298 241.523C156.654 241.129 155.92 240.932 155.094 240.932C154.48 240.932 153.908 241.049 153.378 241.284C152.848 241.519 152.385 241.845 151.991 242.261C151.598 242.67 151.287 243.148 151.06 243.693C150.84 244.231 150.726 244.807 150.719 245.42C150.726 246.231 150.916 246.977 151.287 247.659C151.658 248.341 152.17 248.886 152.821 249.295C153.473 249.705 154.211 249.909 155.037 249.909Z" fill="#333230"/>
<path d="M126.662 253V249.955L134.741 242.034C135.514 241.254 136.158 240.561 136.673 239.955C137.188 239.348 137.575 238.761 137.832 238.193C138.09 237.625 138.219 237.019 138.219 236.375C138.219 235.64 138.052 235.011 137.719 234.489C137.385 233.958 136.927 233.549 136.344 233.261C135.76 232.973 135.098 232.83 134.355 232.83C133.59 232.83 132.92 232.989 132.344 233.307C131.768 233.617 131.321 234.061 131.003 234.636C130.692 235.212 130.537 235.898 130.537 236.693H126.526C126.526 235.216 126.863 233.932 127.537 232.841C128.211 231.75 129.139 230.905 130.321 230.307C131.51 229.708 132.874 229.409 134.412 229.409C135.973 229.409 137.344 229.701 138.526 230.284C139.707 230.867 140.624 231.667 141.276 232.682C141.935 233.697 142.264 234.856 142.264 236.159C142.264 237.03 142.098 237.886 141.764 238.727C141.431 239.568 140.844 240.5 140.003 241.523C139.17 242.545 137.999 243.784 136.491 245.239L132.48 249.318V249.477H142.616V253H126.662Z" fill="#333230"/>
<path d="M113.92 253.443C112.049 253.443 110.443 252.97 109.102 252.023C107.769 251.068 106.742 249.693 106.023 247.898C105.311 246.095 104.955 243.924 104.955 241.386C104.962 238.848 105.322 236.689 106.034 234.909C106.754 233.121 107.78 231.758 109.114 230.818C110.455 229.879 112.057 229.409 113.92 229.409C115.784 229.409 117.386 229.879 118.727 230.818C120.068 231.758 121.095 233.121 121.807 234.909C122.527 236.697 122.886 238.856 122.886 241.386C122.886 243.932 122.527 246.106 121.807 247.909C121.095 249.705 120.068 251.076 118.727 252.023C117.394 252.97 115.792 253.443 113.92 253.443ZM113.92 249.886C115.375 249.886 116.523 249.17 117.364 247.739C118.212 246.299 118.636 244.182 118.636 241.386C118.636 239.538 118.443 237.985 118.057 236.727C117.67 235.47 117.125 234.523 116.42 233.886C115.716 233.242 114.883 232.92 113.92 232.92C112.473 232.92 111.33 233.64 110.489 235.08C109.648 236.511 109.223 238.614 109.216 241.386C109.208 243.242 109.394 244.803 109.773 246.068C110.159 247.333 110.705 248.288 111.409 248.932C112.114 249.568 112.951 249.886 113.92 249.886Z" fill="#333230"/>
<path d="M85.4432 253V249.955L93.5227 242.034C94.2955 241.254 94.9394 240.561 95.4545 239.955C95.9697 239.348 96.3561 238.761 96.6136 238.193C96.8712 237.625 97 237.019 97 236.375C97 235.64 96.8333 235.011 96.5 234.489C96.1667 233.958 95.7083 233.549 95.125 233.261C94.5417 232.973 93.8788 232.83 93.1364 232.83C92.3712 232.83 91.7008 232.989 91.125 233.307C90.5492 233.617 90.1023 234.061 89.7841 234.636C89.4735 235.212 89.3182 235.898 89.3182 236.693H85.3068C85.3068 235.216 85.6439 233.932 86.3182 232.841C86.9924 231.75 87.9205 230.905 89.1023 230.307C90.2917 229.708 91.6553 229.409 93.1932 229.409C94.7538 229.409 96.125 229.701 97.3068 230.284C98.4886 230.867 99.4053 231.667 100.057 232.682C100.716 233.697 101.045 234.856 101.045 236.159C101.045 237.03 100.879 237.886 100.545 238.727C100.212 239.568 99.625 240.5 98.7841 241.523C97.9508 242.545 96.7803 243.784 95.2727 245.239L91.2614 249.318V249.477H101.398V253H85.4432Z" fill="#333230"/>
<path d="M69.2074 253V235.545H73.321V253H69.2074ZM71.2756 233.068C70.6241 233.068 70.0634 232.852 69.5938 232.42C69.1241 231.981 68.8892 231.455 68.8892 230.841C68.8892 230.22 69.1241 229.693 69.5938 229.261C70.0634 228.822 70.6241 228.602 71.2756 228.602C71.9347 228.602 72.4953 228.822 72.9574 229.261C73.4271 229.693 73.6619 230.22 73.6619 230.841C73.6619 231.455 73.4271 231.981 72.9574 232.42C72.4953 232.852 71.9347 233.068 71.2756 233.068Z" fill="#333230"/>
<path d="M55.8551 253.352C54.7491 253.352 53.7528 253.155 52.8665 252.761C51.9877 252.36 51.2907 251.769 50.7756 250.989C50.268 250.208 50.0142 249.246 50.0142 248.102C50.0142 247.117 50.196 246.303 50.5597 245.659C50.9233 245.015 51.4195 244.5 52.0483 244.114C52.6771 243.727 53.3854 243.436 54.1733 243.239C54.9688 243.034 55.7907 242.886 56.6392 242.795C57.6619 242.689 58.4915 242.595 59.1278 242.511C59.7642 242.42 60.2263 242.284 60.5142 242.102C60.8097 241.913 60.9574 241.621 60.9574 241.227V241.159C60.9574 240.303 60.7036 239.64 60.196 239.17C59.6884 238.701 58.9574 238.466 58.0028 238.466C56.9953 238.466 56.196 238.686 55.6051 239.125C55.0218 239.564 54.6278 240.083 54.4233 240.682L50.5824 240.136C50.8854 239.076 51.3854 238.189 52.0824 237.477C52.7794 236.758 53.6316 236.22 54.6392 235.864C55.6468 235.5 56.7604 235.318 57.9801 235.318C58.821 235.318 59.6581 235.417 60.4915 235.614C61.3248 235.811 62.0862 236.136 62.7756 236.591C63.465 237.038 64.018 237.648 64.4347 238.42C64.8589 239.193 65.071 240.159 65.071 241.318V253H61.1165V250.602H60.9801C60.7301 251.087 60.3778 251.542 59.9233 251.966C59.4763 252.383 58.9119 252.72 58.2301 252.977C57.5559 253.227 56.7642 253.352 55.8551 253.352ZM56.9233 250.33C57.7491 250.33 58.465 250.167 59.071 249.841C59.6771 249.508 60.143 249.068 60.4688 248.523C60.8021 247.977 60.9688 247.383 60.9688 246.739V244.682C60.84 244.788 60.6203 244.886 60.3097 244.977C60.0066 245.068 59.6657 245.148 59.2869 245.216C58.9081 245.284 58.5331 245.345 58.1619 245.398C57.7907 245.451 57.4688 245.496 57.196 245.534C56.5824 245.617 56.0331 245.754 55.5483 245.943C55.0634 246.133 54.6809 246.398 54.4006 246.739C54.1203 247.072 53.9801 247.504 53.9801 248.034C53.9801 248.792 54.2566 249.364 54.8097 249.75C55.3627 250.136 56.0672 250.33 56.9233 250.33Z" fill="#333230"/>
<path d="M22.1136 253V235.545H26.0455V238.511H26.25C26.6136 237.511 27.2159 236.731 28.0568 236.17C28.8977 235.602 29.9015 235.318 31.0682 235.318C32.25 235.318 33.2462 235.606 34.0568 236.182C34.875 236.75 35.4508 237.527 35.7841 238.511H35.9659C36.3523 237.542 37.0038 236.769 37.9205 236.193C38.8447 235.61 39.9394 235.318 41.2045 235.318C42.8106 235.318 44.1212 235.826 45.1364 236.841C46.1515 237.856 46.6591 239.337 46.6591 241.284V253H42.5341V241.92C42.5341 240.837 42.2462 240.045 41.6705 239.545C41.0947 239.038 40.3902 238.784 39.5568 238.784C38.5644 238.784 37.7879 239.095 37.2273 239.716C36.6742 240.33 36.3977 241.129 36.3977 242.114V253H32.3636V241.75C32.3636 240.848 32.0909 240.129 31.5455 239.591C31.0076 239.053 30.303 238.784 29.4318 238.784C28.8409 238.784 28.303 238.936 27.8182 239.239C27.3333 239.534 26.947 239.955 26.6591 240.5C26.3712 241.038 26.2273 241.667 26.2273 242.386V253H22.1136Z" fill="#333230"/>
<path d="M138.716 215.318C137.027 215.318 135.527 215.034 134.216 214.466C132.913 213.898 131.89 213.121 131.148 212.136C130.413 211.144 130.049 210.019 130.057 208.761C130.049 207.784 130.261 206.886 130.693 206.068C131.125 205.25 131.708 204.568 132.443 204.023C133.186 203.47 134.011 203.117 134.92 202.966V202.807C133.723 202.542 132.754 201.932 132.011 200.977C131.277 200.015 130.913 198.905 130.92 197.648C130.913 196.451 131.246 195.383 131.92 194.443C132.595 193.504 133.519 192.765 134.693 192.227C135.867 191.682 137.208 191.409 138.716 191.409C140.208 191.409 141.538 191.682 142.705 192.227C143.879 192.765 144.803 193.504 145.477 194.443C146.159 195.383 146.5 196.451 146.5 197.648C146.5 198.905 146.125 200.015 145.375 200.977C144.633 201.932 143.674 202.542 142.5 202.807V202.966C143.409 203.117 144.227 203.47 144.955 204.023C145.689 204.568 146.273 205.25 146.705 206.068C147.144 206.886 147.364 207.784 147.364 208.761C147.364 210.019 146.992 211.144 146.25 212.136C145.508 213.121 144.485 213.898 143.182 214.466C141.886 215.034 140.398 215.318 138.716 215.318ZM138.716 212.068C139.587 212.068 140.345 211.92 140.989 211.625C141.633 211.322 142.133 210.898 142.489 210.352C142.845 209.807 143.027 209.178 143.034 208.466C143.027 207.723 142.833 207.068 142.455 206.5C142.083 205.924 141.572 205.473 140.92 205.148C140.277 204.822 139.542 204.659 138.716 204.659C137.883 204.659 137.14 204.822 136.489 205.148C135.837 205.473 135.322 205.924 134.943 206.5C134.572 207.068 134.39 207.723 134.398 208.466C134.39 209.178 134.564 209.807 134.92 210.352C135.277 210.89 135.777 211.311 136.42 211.614C137.072 211.917 137.837 212.068 138.716 212.068ZM138.716 201.466C139.428 201.466 140.057 201.322 140.602 201.034C141.155 200.746 141.591 200.345 141.909 199.83C142.227 199.314 142.39 198.72 142.398 198.045C142.39 197.379 142.231 196.795 141.92 196.295C141.61 195.788 141.178 195.398 140.625 195.125C140.072 194.845 139.436 194.705 138.716 194.705C137.981 194.705 137.333 194.845 136.773 195.125C136.22 195.398 135.788 195.788 135.477 196.295C135.174 196.795 135.027 197.379 135.034 198.045C135.027 198.72 135.178 199.314 135.489 199.83C135.807 200.337 136.242 200.739 136.795 201.034C137.356 201.322 137.996 201.466 138.716 201.466Z" fill="#333230"/>
<path d="M110.568 215V211.955L118.648 204.034C119.42 203.254 120.064 202.561 120.58 201.955C121.095 201.348 121.481 200.761 121.739 200.193C121.996 199.625 122.125 199.019 122.125 198.375C122.125 197.64 121.958 197.011 121.625 196.489C121.292 195.958 120.833 195.549 120.25 195.261C119.667 194.973 119.004 194.83 118.261 194.83C117.496 194.83 116.826 194.989 116.25 195.307C115.674 195.617 115.227 196.061 114.909 196.636C114.598 197.212 114.443 197.898 114.443 198.693H110.432C110.432 197.216 110.769 195.932 111.443 194.841C112.117 193.75 113.045 192.905 114.227 192.307C115.417 191.708 116.78 191.409 118.318 191.409C119.879 191.409 121.25 191.701 122.432 192.284C123.614 192.867 124.53 193.667 125.182 194.682C125.841 195.697 126.17 196.856 126.17 198.159C126.17 199.03 126.004 199.886 125.67 200.727C125.337 201.568 124.75 202.5 123.909 203.523C123.076 204.545 121.905 205.784 120.398 207.239L116.386 211.318V211.477H126.523V215H110.568Z" fill="#333230"/>
<path d="M100.562 201.67V205.057H68.5625V201.67H100.562Z" fill="#333230"/>
<path d="M50.4659 215.318C49.3523 215.311 48.2652 215.117 47.2045 214.739C46.1439 214.352 45.1894 213.727 44.3409 212.864C43.4924 211.992 42.8182 210.837 42.3182 209.398C41.8182 207.951 41.572 206.159 41.5795 204.023C41.5795 202.03 41.7917 200.254 42.2159 198.693C42.6402 197.133 43.25 195.814 44.0455 194.739C44.8409 193.655 45.7992 192.83 46.9205 192.261C48.0492 191.693 49.3106 191.409 50.7045 191.409C52.1667 191.409 53.4621 191.697 54.5909 192.273C55.7273 192.848 56.6439 193.636 57.3409 194.636C58.0379 195.629 58.4697 196.75 58.6364 198H54.4886C54.2765 197.106 53.8409 196.394 53.1818 195.864C52.5303 195.326 51.7045 195.057 50.7045 195.057C49.0909 195.057 47.8485 195.758 46.9773 197.159C46.1136 198.561 45.678 200.485 45.6705 202.932H45.8295C46.2008 202.265 46.6818 201.693 47.2727 201.216C47.8636 200.739 48.5303 200.371 49.2727 200.114C50.0227 199.848 50.8144 199.716 51.6477 199.716C53.0114 199.716 54.2349 200.042 55.3182 200.693C56.4091 201.345 57.2727 202.242 57.9091 203.386C58.5455 204.523 58.8598 205.826 58.8523 207.295C58.8598 208.826 58.5114 210.201 57.8068 211.42C57.1023 212.633 56.1212 213.587 54.8636 214.284C53.6061 214.981 52.1402 215.326 50.4659 215.318ZM50.4432 211.909C51.2689 211.909 52.0076 211.708 52.6591 211.307C53.3106 210.905 53.8258 210.364 54.2045 209.682C54.5833 209 54.7689 208.235 54.7614 207.386C54.7689 206.553 54.5871 205.799 54.2159 205.125C53.8523 204.451 53.3485 203.917 52.7045 203.523C52.0606 203.129 51.3258 202.932 50.5 202.932C49.8864 202.932 49.3144 203.049 48.7841 203.284C48.2538 203.519 47.7917 203.845 47.3977 204.261C47.0038 204.67 46.6932 205.148 46.4659 205.693C46.2462 206.231 46.1326 206.807 46.125 207.42C46.1326 208.231 46.322 208.977 46.6932 209.659C47.0644 210.341 47.5758 210.886 48.2273 211.295C48.8788 211.705 49.6174 211.909 50.4432 211.909Z" fill="#333230"/>
<path d="M22.0682 215V211.955L30.1477 204.034C30.9205 203.254 31.5644 202.561 32.0795 201.955C32.5947 201.348 32.9811 200.761 33.2386 200.193C33.4962 199.625 33.625 199.019 33.625 198.375C33.625 197.64 33.4583 197.011 33.125 196.489C32.7917 195.958 32.3333 195.549 31.75 195.261C31.1667 194.973 30.5038 194.83 29.7614 194.83C28.9962 194.83 28.3258 194.989 27.75 195.307C27.1742 195.617 26.7273 196.061 26.4091 196.636C26.0985 197.212 25.9432 197.898 25.9432 198.693H21.9318C21.9318 197.216 22.2689 195.932 22.9432 194.841C23.6174 193.75 24.5455 192.905 25.7273 192.307C26.9167 191.708 28.2803 191.409 29.8182 191.409C31.3788 191.409 32.75 191.701 33.9318 192.284C35.1136 192.867 36.0303 193.667 36.6818 194.682C37.3409 195.697 37.6705 196.856 37.6705 198.159C37.6705 199.03 37.5038 199.886 37.1705 200.727C36.8371 201.568 36.25 202.5 35.4091 203.523C34.5758 204.545 33.4053 205.784 31.8977 207.239L27.8864 211.318V211.477H38.0227V215H22.0682Z" fill="#333230"/>
</svg>
