<svg viewBox="0 0 288 288" fill="none" xmlns="http://www.w3.org/2000/svg">
<rect width="288" height="288" fill="currentColor"/>
<path d="M155.06 261.318C153.946 261.311 152.859 261.117 151.798 260.739C150.738 260.352 149.783 259.727 148.935 258.864C148.086 257.992 147.412 256.837 146.912 255.398C146.412 253.951 146.166 252.159 146.173 250.023C146.173 248.03 146.385 246.254 146.81 244.693C147.234 243.133 147.844 241.814 148.639 240.739C149.435 239.655 150.393 238.83 151.514 238.261C152.643 237.693 153.904 237.409 155.298 237.409C156.76 237.409 158.056 237.697 159.185 238.273C160.321 238.848 161.238 239.636 161.935 240.636C162.632 241.629 163.063 242.75 163.23 244H159.082C158.87 243.106 158.435 242.394 157.776 241.864C157.124 241.326 156.298 241.057 155.298 241.057C153.685 241.057 152.442 241.758 151.571 243.159C150.707 244.561 150.272 246.485 150.264 248.932H150.423C150.795 248.265 151.276 247.693 151.866 247.216C152.457 246.739 153.124 246.371 153.866 246.114C154.616 245.848 155.408 245.716 156.241 245.716C157.605 245.716 158.829 246.042 159.912 246.693C161.003 247.345 161.866 248.242 162.503 249.386C163.139 250.523 163.454 251.826 163.446 253.295C163.454 254.826 163.105 256.201 162.401 257.42C161.696 258.633 160.715 259.587 159.457 260.284C158.2 260.981 156.734 261.326 155.06 261.318ZM155.037 257.909C155.863 257.909 156.601 257.708 157.253 257.307C157.904 256.905 158.42 256.364 158.798 255.682C159.177 255 159.363 254.235 159.355 253.386C159.363 252.553 159.181 251.799 158.81 251.125C158.446 250.451 157.942 249.917 157.298 249.523C156.654 249.129 155.92 248.932 155.094 248.932C154.48 248.932 153.908 249.049 153.378 249.284C152.848 249.519 152.385 249.845 151.991 250.261C151.598 250.67 151.287 251.148 151.06 251.693C150.84 252.231 150.726 252.807 150.719 253.42C150.726 254.231 150.916 254.977 151.287 255.659C151.658 256.341 152.17 256.886 152.821 257.295C153.473 257.705 154.211 257.909 155.037 257.909Z" fill="#333230"/>
<path d="M126.662 261V257.955L134.741 250.034C135.514 249.254 136.158 248.561 136.673 247.955C137.188 247.348 137.575 246.761 137.832 246.193C138.09 245.625 138.219 245.019 138.219 244.375C138.219 243.64 138.052 243.011 137.719 242.489C137.385 241.958 136.927 241.549 136.344 241.261C135.76 240.973 135.098 240.83 134.355 240.83C133.59 240.83 132.92 240.989 132.344 241.307C131.768 241.617 131.321 242.061 131.003 242.636C130.692 243.212 130.537 243.898 130.537 244.693H126.526C126.526 243.216 126.863 241.932 127.537 240.841C128.211 239.75 129.139 238.905 130.321 238.307C131.51 237.708 132.874 237.409 134.412 237.409C135.973 237.409 137.344 237.701 138.526 238.284C139.707 238.867 140.624 239.667 141.276 240.682C141.935 241.697 142.264 242.856 142.264 244.159C142.264 245.03 142.098 245.886 141.764 246.727C141.431 247.568 140.844 248.5 140.003 249.523C139.17 250.545 137.999 251.784 136.491 253.239L132.48 257.318V257.477H142.616V261H126.662Z" fill="#333230"/>
<path d="M113.92 261.443C112.049 261.443 110.443 260.97 109.102 260.023C107.769 259.068 106.742 257.693 106.023 255.898C105.311 254.095 104.955 251.924 104.955 249.386C104.962 246.848 105.322 244.689 106.034 242.909C106.754 241.121 107.78 239.758 109.114 238.818C110.455 237.879 112.057 237.409 113.92 237.409C115.784 237.409 117.386 237.879 118.727 238.818C120.068 239.758 121.095 241.121 121.807 242.909C122.527 244.697 122.886 246.856 122.886 249.386C122.886 251.932 122.527 254.106 121.807 255.909C121.095 257.705 120.068 259.076 118.727 260.023C117.394 260.97 115.792 261.443 113.92 261.443ZM113.92 257.886C115.375 257.886 116.523 257.17 117.364 255.739C118.212 254.299 118.636 252.182 118.636 249.386C118.636 247.538 118.443 245.985 118.057 244.727C117.67 243.47 117.125 242.523 116.42 241.886C115.716 241.242 114.883 240.92 113.92 240.92C112.473 240.92 111.33 241.64 110.489 243.08C109.648 244.511 109.223 246.614 109.216 249.386C109.208 251.242 109.394 252.803 109.773 254.068C110.159 255.333 110.705 256.288 111.409 256.932C112.114 257.568 112.951 257.886 113.92 257.886Z" fill="#333230"/>
<path d="M85.4432 261V257.955L93.5227 250.034C94.2955 249.254 94.9394 248.561 95.4545 247.955C95.9697 247.348 96.3561 246.761 96.6136 246.193C96.8712 245.625 97 245.019 97 244.375C97 243.64 96.8333 243.011 96.5 242.489C96.1667 241.958 95.7083 241.549 95.125 241.261C94.5417 240.973 93.8788 240.83 93.1364 240.83C92.3712 240.83 91.7008 240.989 91.125 241.307C90.5492 241.617 90.1023 242.061 89.7841 242.636C89.4735 243.212 89.3182 243.898 89.3182 244.693H85.3068C85.3068 243.216 85.6439 241.932 86.3182 240.841C86.9924 239.75 87.9205 238.905 89.1023 238.307C90.2917 237.708 91.6553 237.409 93.1932 237.409C94.7538 237.409 96.125 237.701 97.3068 238.284C98.4886 238.867 99.4053 239.667 100.057 240.682C100.716 241.697 101.045 242.856 101.045 244.159C101.045 245.03 100.879 245.886 100.545 246.727C100.212 247.568 99.625 248.5 98.7841 249.523C97.9508 250.545 96.7803 251.784 95.2727 253.239L91.2614 257.318V257.477H101.398V261H85.4432Z" fill="#333230"/>
<path d="M69.2074 261V243.545H73.321V261H69.2074ZM71.2756 241.068C70.6241 241.068 70.0634 240.852 69.5938 240.42C69.1241 239.981 68.8892 239.455 68.8892 238.841C68.8892 238.22 69.1241 237.693 69.5938 237.261C70.0634 236.822 70.6241 236.602 71.2756 236.602C71.9347 236.602 72.4953 236.822 72.9574 237.261C73.4271 237.693 73.6619 238.22 73.6619 238.841C73.6619 239.455 73.4271 239.981 72.9574 240.42C72.4953 240.852 71.9347 241.068 71.2756 241.068Z" fill="#333230"/>
<path d="M55.8551 261.352C54.7491 261.352 53.7528 261.155 52.8665 260.761C51.9877 260.36 51.2907 259.769 50.7756 258.989C50.268 258.208 50.0142 257.246 50.0142 256.102C50.0142 255.117 50.196 254.303 50.5597 253.659C50.9233 253.015 51.4195 252.5 52.0483 252.114C52.6771 251.727 53.3854 251.436 54.1733 251.239C54.9688 251.034 55.7907 250.886 56.6392 250.795C57.6619 250.689 58.4915 250.595 59.1278 250.511C59.7642 250.42 60.2263 250.284 60.5142 250.102C60.8097 249.913 60.9574 249.621 60.9574 249.227V249.159C60.9574 248.303 60.7036 247.64 60.196 247.17C59.6884 246.701 58.9574 246.466 58.0028 246.466C56.9953 246.466 56.196 246.686 55.6051 247.125C55.0218 247.564 54.6278 248.083 54.4233 248.682L50.5824 248.136C50.8854 247.076 51.3854 246.189 52.0824 245.477C52.7794 244.758 53.6316 244.22 54.6392 243.864C55.6468 243.5 56.7604 243.318 57.9801 243.318C58.821 243.318 59.6581 243.417 60.4915 243.614C61.3248 243.811 62.0862 244.136 62.7756 244.591C63.465 245.038 64.018 245.648 64.4347 246.42C64.8589 247.193 65.071 248.159 65.071 249.318V261H61.1165V258.602H60.9801C60.7301 259.087 60.3778 259.542 59.9233 259.966C59.4763 260.383 58.9119 260.72 58.2301 260.977C57.5559 261.227 56.7642 261.352 55.8551 261.352ZM56.9233 258.33C57.7491 258.33 58.465 258.167 59.071 257.841C59.6771 257.508 60.143 257.068 60.4688 256.523C60.8021 255.977 60.9688 255.383 60.9688 254.739V252.682C60.84 252.788 60.6203 252.886 60.3097 252.977C60.0066 253.068 59.6657 253.148 59.2869 253.216C58.9081 253.284 58.5331 253.345 58.1619 253.398C57.7907 253.451 57.4688 253.496 57.196 253.534C56.5824 253.617 56.0331 253.754 55.5483 253.943C55.0634 254.133 54.6809 254.398 54.4006 254.739C54.1203 255.072 53.9801 255.504 53.9801 256.034C53.9801 256.792 54.2566 257.364 54.8097 257.75C55.3627 258.136 56.0672 258.33 56.9233 258.33Z" fill="#333230"/>
<path d="M22.1136 261V243.545H26.0455V246.511H26.25C26.6136 245.511 27.2159 244.731 28.0568 244.17C28.8977 243.602 29.9015 243.318 31.0682 243.318C32.25 243.318 33.2462 243.606 34.0568 244.182C34.875 244.75 35.4508 245.527 35.7841 246.511H35.9659C36.3523 245.542 37.0038 244.769 37.9205 244.193C38.8447 243.61 39.9394 243.318 41.2045 243.318C42.8106 243.318 44.1212 243.826 45.1364 244.841C46.1515 245.856 46.6591 247.337 46.6591 249.284V261H42.5341V249.92C42.5341 248.837 42.2462 248.045 41.6705 247.545C41.0947 247.038 40.3902 246.784 39.5568 246.784C38.5644 246.784 37.7879 247.095 37.2273 247.716C36.6742 248.33 36.3977 249.129 36.3977 250.114V261H32.3636V249.75C32.3636 248.848 32.0909 248.129 31.5455 247.591C31.0076 247.053 30.303 246.784 29.4318 246.784C28.8409 246.784 28.303 246.936 27.8182 247.239C27.3333 247.534 26.947 247.955 26.6591 248.5C26.3712 249.038 26.2273 249.667 26.2273 250.386V261H22.1136Z" fill="#333230"/>
<path d="M138.716 223.318C137.027 223.318 135.527 223.034 134.216 222.466C132.913 221.898 131.89 221.121 131.148 220.136C130.413 219.144 130.049 218.019 130.057 216.761C130.049 215.784 130.261 214.886 130.693 214.068C131.125 213.25 131.708 212.568 132.443 212.023C133.186 211.47 134.011 211.117 134.92 210.966V210.807C133.723 210.542 132.754 209.932 132.011 208.977C131.277 208.015 130.913 206.905 130.92 205.648C130.913 204.451 131.246 203.383 131.92 202.443C132.595 201.504 133.519 200.765 134.693 200.227C135.867 199.682 137.208 199.409 138.716 199.409C140.208 199.409 141.538 199.682 142.705 200.227C143.879 200.765 144.803 201.504 145.477 202.443C146.159 203.383 146.5 204.451 146.5 205.648C146.5 206.905 146.125 208.015 145.375 208.977C144.633 209.932 143.674 210.542 142.5 210.807V210.966C143.409 211.117 144.227 211.47 144.955 212.023C145.689 212.568 146.273 213.25 146.705 214.068C147.144 214.886 147.364 215.784 147.364 216.761C147.364 218.019 146.992 219.144 146.25 220.136C145.508 221.121 144.485 221.898 143.182 222.466C141.886 223.034 140.398 223.318 138.716 223.318ZM138.716 220.068C139.587 220.068 140.345 219.92 140.989 219.625C141.633 219.322 142.133 218.898 142.489 218.352C142.845 217.807 143.027 217.178 143.034 216.466C143.027 215.723 142.833 215.068 142.455 214.5C142.083 213.924 141.572 213.473 140.92 213.148C140.277 212.822 139.542 212.659 138.716 212.659C137.883 212.659 137.14 212.822 136.489 213.148C135.837 213.473 135.322 213.924 134.943 214.5C134.572 215.068 134.39 215.723 134.398 216.466C134.39 217.178 134.564 217.807 134.92 218.352C135.277 218.89 135.777 219.311 136.42 219.614C137.072 219.917 137.837 220.068 138.716 220.068ZM138.716 209.466C139.428 209.466 140.057 209.322 140.602 209.034C141.155 208.746 141.591 208.345 141.909 207.83C142.227 207.314 142.39 206.72 142.398 206.045C142.39 205.379 142.231 204.795 141.92 204.295C141.61 203.788 141.178 203.398 140.625 203.125C140.072 202.845 139.436 202.705 138.716 202.705C137.981 202.705 137.333 202.845 136.773 203.125C136.22 203.398 135.788 203.788 135.477 204.295C135.174 204.795 135.027 205.379 135.034 206.045C135.027 206.72 135.178 207.314 135.489 207.83C135.807 208.337 136.242 208.739 136.795 209.034C137.356 209.322 137.996 209.466 138.716 209.466Z" fill="#333230"/>
<path d="M110.568 223V219.955L118.648 212.034C119.42 211.254 120.064 210.561 120.58 209.955C121.095 209.348 121.481 208.761 121.739 208.193C121.996 207.625 122.125 207.019 122.125 206.375C122.125 205.64 121.958 205.011 121.625 204.489C121.292 203.958 120.833 203.549 120.25 203.261C119.667 202.973 119.004 202.83 118.261 202.83C117.496 202.83 116.826 202.989 116.25 203.307C115.674 203.617 115.227 204.061 114.909 204.636C114.598 205.212 114.443 205.898 114.443 206.693H110.432C110.432 205.216 110.769 203.932 111.443 202.841C112.117 201.75 113.045 200.905 114.227 200.307C115.417 199.708 116.78 199.409 118.318 199.409C119.879 199.409 121.25 199.701 122.432 200.284C123.614 200.867 124.53 201.667 125.182 202.682C125.841 203.697 126.17 204.856 126.17 206.159C126.17 207.03 126.004 207.886 125.67 208.727C125.337 209.568 124.75 210.5 123.909 211.523C123.076 212.545 121.905 213.784 120.398 215.239L116.386 219.318V219.477H126.523V223H110.568Z" fill="#333230"/>
<path d="M100.562 209.67V213.057H68.5625V209.67H100.562Z" fill="#333230"/>
<path d="M50.4659 223.318C49.3523 223.311 48.2652 223.117 47.2045 222.739C46.1439 222.352 45.1894 221.727 44.3409 220.864C43.4924 219.992 42.8182 218.837 42.3182 217.398C41.8182 215.951 41.572 214.159 41.5795 212.023C41.5795 210.03 41.7917 208.254 42.2159 206.693C42.6402 205.133 43.25 203.814 44.0455 202.739C44.8409 201.655 45.7992 200.83 46.9205 200.261C48.0492 199.693 49.3106 199.409 50.7045 199.409C52.1667 199.409 53.4621 199.697 54.5909 200.273C55.7273 200.848 56.6439 201.636 57.3409 202.636C58.0379 203.629 58.4697 204.75 58.6364 206H54.4886C54.2765 205.106 53.8409 204.394 53.1818 203.864C52.5303 203.326 51.7045 203.057 50.7045 203.057C49.0909 203.057 47.8485 203.758 46.9773 205.159C46.1136 206.561 45.678 208.485 45.6705 210.932H45.8295C46.2008 210.265 46.6818 209.693 47.2727 209.216C47.8636 208.739 48.5303 208.371 49.2727 208.114C50.0227 207.848 50.8144 207.716 51.6477 207.716C53.0114 207.716 54.2349 208.042 55.3182 208.693C56.4091 209.345 57.2727 210.242 57.9091 211.386C58.5455 212.523 58.8598 213.826 58.8523 215.295C58.8598 216.826 58.5114 218.201 57.8068 219.42C57.1023 220.633 56.1212 221.587 54.8636 222.284C53.6061 222.981 52.1402 223.326 50.4659 223.318ZM50.4432 219.909C51.2689 219.909 52.0076 219.708 52.6591 219.307C53.3106 218.905 53.8258 218.364 54.2045 217.682C54.5833 217 54.7689 216.235 54.7614 215.386C54.7689 214.553 54.5871 213.799 54.2159 213.125C53.8523 212.451 53.3485 211.917 52.7045 211.523C52.0606 211.129 51.3258 210.932 50.5 210.932C49.8864 210.932 49.3144 211.049 48.7841 211.284C48.2538 211.519 47.7917 211.845 47.3977 212.261C47.0038 212.67 46.6932 213.148 46.4659 213.693C46.2462 214.231 46.1326 214.807 46.125 215.42C46.1326 216.231 46.322 216.977 46.6932 217.659C47.0644 218.341 47.5758 218.886 48.2273 219.295C48.8788 219.705 49.6174 219.909 50.4432 219.909Z" fill="#333230"/>
<path d="M22.0682 223V219.955L30.1477 212.034C30.9205 211.254 31.5644 210.561 32.0795 209.955C32.5947 209.348 32.9811 208.761 33.2386 208.193C33.4962 207.625 33.625 207.019 33.625 206.375C33.625 205.64 33.4583 205.011 33.125 204.489C32.7917 203.958 32.3333 203.549 31.75 203.261C31.1667 202.973 30.5038 202.83 29.7614 202.83C28.9962 202.83 28.3258 202.989 27.75 203.307C27.1742 203.617 26.7273 204.061 26.4091 204.636C26.0985 205.212 25.9432 205.898 25.9432 206.693H21.9318C21.9318 205.216 22.2689 203.932 22.9432 202.841C23.6174 201.75 24.5455 200.905 25.7273 200.307C26.9167 199.708 28.2803 199.409 29.8182 199.409C31.3788 199.409 32.75 199.701 33.9318 200.284C35.1136 200.867 36.0303 201.667 36.6818 202.682C37.3409 203.697 37.6705 204.856 37.6705 206.159C37.6705 207.03 37.5038 207.886 37.1705 208.727C36.8371 209.568 36.25 210.5 35.4091 211.523C34.5758 212.545 33.4053 213.784 31.8977 215.239L27.8864 219.318V219.477H38.0227V223H22.0682Z" fill="#333230"/>
</svg>
