<svg width="288" height="280" viewBox="0 0 288 280" fill="none" xmlns="http://www.w3.org/2000/svg">
<g clip-path="url(#clip0_3247_18942)">
<path d="M814.689 -265.605L812.862 -282.105L796.143 -280.247L794.316 -296.692L777.597 -294.889L760.933 -293.032L744.269 -291.174L727.549 -289.317L710.886 -287.514L694.222 -285.656L677.502 -283.799L679.385 -267.354L662.721 -265.496L646.001 -263.638L629.338 -261.835L612.674 -259.978L595.954 -258.12L597.837 -241.675L581.173 -239.818L564.453 -238.015L562.626 -254.46L579.29 -256.317L577.408 -272.762L594.127 -274.62L592.245 -291.065L608.909 -292.923L607.082 -309.368L605.2 -325.813L621.864 -327.67L619.981 -344.115L636.701 -345.973L634.818 -362.418L651.482 -364.276L649.655 -380.721L647.773 -397.22L664.437 -399.078L662.555 -415.523L660.728 -431.968L658.845 -448.468L656.963 -464.913L655.136 -481.358L638.417 -479.555L636.59 -496L619.871 -494.142L603.207 -492.339L586.543 -490.482L569.823 -488.624L553.16 -486.767L555.042 -470.322L538.323 -468.464L540.205 -452.019L523.541 -450.161L525.368 -433.716L527.25 -417.271L510.586 -415.414L512.413 -398.914L495.749 -397.111L497.632 -380.611L480.912 -378.808L482.795 -362.309L484.677 -345.864L468.013 -344.006L469.84 -327.561L453.176 -325.704L455.058 -309.258L456.885 -292.813L440.221 -290.956L442.104 -274.511L425.384 -272.653L408.72 -270.796L406.838 -287.241L405.011 -303.74L403.129 -320.185L386.465 -318.328L384.583 -334.828L382.7 -351.273L366.036 -349.415L364.154 -365.915L362.272 -382.36L345.608 -380.502L343.725 -397.002L341.899 -413.447L325.179 -411.589L323.352 -428.089L321.47 -444.534L304.751 -442.676L302.924 -459.176L286.204 -457.319L284.378 -473.764L267.658 -471.961L250.994 -470.103L234.33 -468.246L236.157 -451.8L219.493 -449.943L221.376 -433.498L204.656 -431.64L206.539 -415.195L208.421 -398.696L210.303 -382.25L212.13 -365.805L228.85 -367.608L230.676 -351.163L232.559 -334.718L249.223 -336.521L251.105 -320.076L252.987 -303.631L269.651 -305.434L271.534 -288.989L273.416 -272.544L290.08 -274.347L291.962 -257.902L293.789 -241.457L310.508 -243.26L312.335 -226.815L314.218 -210.37L316.1 -193.87L332.764 -195.727L334.646 -179.282L317.982 -177.425L301.263 -175.567L303.145 -159.122L286.481 -157.265L269.762 -155.462L253.098 -153.604L236.434 -151.746L219.715 -149.889L221.597 -133.444L204.933 -131.586L188.214 -129.783L171.55 -127.926L154.831 -126.068L138.167 -124.211L121.503 -122.408L104.839 -120.55L106.666 -104.105L90.0019 -102.247L73.3379 -100.39L56.6186 -98.5323L58.5009 -82.0872L41.837 -80.2296L43.6639 -63.7845L27 -61.927L28.8823 -45.4819L30.7092 -29.0369L32.5916 -12.5372L34.4739 3.90787L51.1378 2.05032L53.0201 18.55L69.684 16.6924L86.4033 14.8348L88.2303 31.2799L104.95 29.4769L121.613 27.6194L138.277 25.7618L136.45 9.31671L153.114 7.45914L169.778 5.65616L186.498 3.79865L203.162 1.94101L219.826 0.0834656L217.999 -16.3616L234.663 -18.2192L251.326 -20.0221L268.046 -21.8797L284.71 -23.7373L286.592 -7.29224L269.873 -5.43466L271.755 11.065L273.637 27.5101L256.918 29.3677L258.8 45.8127L242.136 47.6703L244.019 64.1154L227.299 65.9729L229.182 82.418L212.518 84.2756L214.345 100.721L216.227 117.22L199.563 119.023L201.39 135.523L203.272 151.968L186.608 153.826L188.435 170.271L190.318 186.716L207.037 184.913L208.864 201.358L225.583 199.5L227.41 216L244.129 214.142L260.793 212.285L277.457 210.482L294.177 208.624L310.84 206.767L308.958 190.322L325.677 188.464L323.795 172.019L321.913 155.519L338.632 153.716L336.75 137.217L353.414 135.414L351.587 118.914L368.251 117.056L366.368 100.611L364.486 84.1663L381.205 82.3088L379.323 65.8636L395.987 64.0061L394.16 47.561L410.824 45.7035L408.942 29.2584L425.661 27.4008L423.779 10.9011L421.896 -5.54395L438.56 -7.40152L440.443 9.09814L457.162 7.2406L458.989 23.6857L460.871 40.1854L477.535 38.3278L479.417 54.7728L496.081 52.9699L497.964 69.4149L499.846 85.86L501.728 102.36L518.392 100.502L520.275 116.947L522.102 133.447L538.821 131.589L540.648 148.034L542.53 164.534L559.249 162.676L561.076 179.122L577.796 177.319L579.622 193.764L596.342 191.906L613.006 190.103L629.67 188.245L627.843 171.746L644.507 169.943L642.624 153.443L659.344 151.64L657.461 135.141L655.579 118.695L653.752 102.25L637.033 104.053L635.151 87.6083L633.324 71.1633L616.604 72.9662L614.777 56.5211L598.058 58.3787L596.231 41.879L594.349 25.434L592.466 8.98892L575.803 10.7919L573.92 -5.65317L572.038 -22.0983L555.374 -20.2953L553.492 -36.7404L551.665 -53.1854L534.945 -51.3825L533.063 -67.8275L531.236 -84.2726L514.517 -82.415L512.69 -98.9147L529.354 -100.772L546.018 -102.575L562.737 -104.433L579.401 -106.29L577.519 -122.735L594.238 -124.593L610.902 -126.396L627.566 -128.254L644.285 -130.111L642.403 -146.556L659.067 -148.414L675.786 -150.271L692.45 -152.074L709.114 -153.932L725.833 -155.789L742.497 -157.647L759.161 -159.45L757.334 -175.95L773.998 -177.753L790.662 -179.61L807.381 -181.468L805.499 -197.913L822.163 -199.77L820.336 -216.215L837 -218.073L835.118 -234.518L833.291 -251.018L831.408 -267.463L814.689 -265.605Z" fill="#871C00"/>
</g>
<defs>
<clipPath id="clip0_3247_18942">
<rect width="288" height="280" fill="white"/>
</clipPath>
</defs>
</svg>
