<svg fill="none" height="69" viewBox="0 0 80 69" width="80" xmlns="http://www.w3.org/2000/svg"><path d="m78.266 26.1032v-1.6314h-1.6304v-1.6313h-1.6305-1.6304-1.6315-1.6304-1.6304-1.6305-1.6304v1.6313h-1.6294-1.6304-1.6315-1.6304-1.6305v1.6314h-1.6304-1.6304v-1.6314h1.6304v-1.6313h1.6304v-1.6323h1.6305v-1.6314-1.6313h1.6304v-1.6302h1.6315v-1.6313h1.6304v-1.6314-1.6323h1.6294v-1.63135-1.63131-1.63132-1.63131-1.63238h-1.6294v-1.63132h-1.6304-1.6315-1.6304-1.6305-1.6304v1.63132h-1.6304v1.63238h-1.6315v1.63131 1.63132h-1.6304v1.63131h-1.6305v1.63135h-1.6304v1.6323 1.6314h-1.6304v1.6313h-1.6315v1.6302 1.6313h-1.6305v1.6314h-1.6304-1.6304v-1.6314-1.6313-1.6302h-1.6294v-1.6313-1.6314h-1.6304v-1.6323-1.63135h-1.6315v-1.63131-1.63132h-1.6304v-1.63131-1.63238h-1.6305v-1.63132h-1.6304v-1.63131h-1.6304-1.6305-1.6315v1.63131h-1.6304v1.63132h-1.6304v1.63238 1.63131 1.63132 1.63131h1.6304v1.63135 1.6323h1.6304v1.6314 1.6313h1.6315v1.6302 1.6313h1.6305v1.6314 1.6323h1.6304v1.6313 1.6314 1.6313h1.6304v1.6313h-1.6304-1.6304v1.6324h-1.6305-1.6315-1.6304-1.6304-1.6305v1.6313h-1.6304-1.6315-1.6304-1.6305-1.6304-1.62935-1.63043v1.6313h-1.6315-1.63043-1.63043v1.6313h-1.63043v1.6313h-1.63043v1.6313 1.6324 1.6313 1.6303h1.63043v1.6313h1.63043 1.63043v1.6313h1.63043 1.6315 1.63043v-1.6313h1.62935 1.6304 1.6305 1.6304 1.6315v-1.6313h1.6304 1.6305 1.6304 1.6304v1.6313h-1.6304v1.6313 1.6313h-1.6304v1.6324h-1.6305v1.6313h-1.6304v1.6313h-1.6315v1.6313 1.6314h-1.6304v1.6323 1.6313h-1.6305v1.6314 1.6313h1.6305v1.6313h1.6304v1.6313h1.6315 1.6304 1.6305 1.6304 1.6304v-1.6313h1.6315v-1.6313-1.6313h1.6305v-1.6314h1.6304v-1.6313h1.6304v-1.6323-1.6314h1.6305v-1.6313h1.6304v-1.6313h1.6315v-1.6313h1.6304v-1.6324-1.6313h1.6294v1.6313h1.6304v1.6324 1.6313h1.6304v1.6313h1.6305v1.6313 1.6314 1.6323h1.6315v1.6313 1.6314h1.6304v1.6313 1.6313h1.6304v1.6313h1.6305v1.6324h1.6304 1.6315 1.6304v-1.6324h1.6304v-1.6313h1.6305v-1.6313-1.6313-1.6314h-1.6305v-1.6313-1.6323h-1.6304v-1.6314h-1.6304v-1.6313-1.6313-1.6313h-1.6315v-1.6324-1.6313h-1.6304v-1.6313-1.6313h-1.6305v-1.6303-1.6313h-1.6304v-1.6324h1.6304 1.6305 1.6304 1.6315v-1.6313h1.6304 1.6304 1.6305 1.6304v-1.6313h1.6315 1.6304 1.6294 1.6304 1.6305 1.6304 1.6304v-1.6313h1.6315 1.6304 1.6305v-1.6313h1.6304v-1.6313h1.6304v-1.6324-1.6313-1.6313z" fill="#d882fd"/></svg>