<svg width="62" height="71" viewBox="0 0 62 71" fill="none" xmlns="http://www.w3.org/2000/svg">
<path d="M60.2057 17.2108V15.7765H58.7721V14.3432H57.3386H55.9051V12.9089H54.4715H53.038V11.4746H51.6055H50.172V10.0402H48.7384V8.60593H47.3048H45.8713V7.17161H44.4378H43.0042V5.73729H41.5707H40.1371V4.30296H38.7036V2.86864H37.2701H35.8365V1.43432H34.4029H32.9694V0H31.5359H30.1023H28.6698V1.43432H27.2363H25.8028V2.86864H24.3692H22.9357V4.30296H21.5021H20.0686V5.73729H18.635H17.2015V7.17161H15.7679V8.60593H14.3344H12.9008V10.0402H11.4673H10.0338V11.4746H8.60021H7.16667V12.9089H5.73313V14.3432H4.30065H2.86711V15.7765H1.43354V17.2108V18.6451H0V20.0794V21.5138V22.9481V24.3824V25.8167V27.251V28.6854V30.1197V31.554V32.9883V34.4226V35.857V37.2913V38.7245V40.1589V41.5932V43.0275V44.4618V45.8962V47.3305V48.7648V50.1991V51.6334V53.0678H1.43354V54.5021H2.86711V55.9364H4.30065H5.73313V57.3707H7.16667H8.60021V58.805H10.0338V60.2394H11.4673H12.9008V61.6737H14.3344H15.7679V63.1069H17.2015H18.635V64.5413H20.0686V65.9756H21.5021H22.9357V67.4099H24.3692H25.8028V68.8442H27.2363H28.6698V70.2785H30.1023H31.5359H32.9694V68.8442H34.4029H35.8365V67.4099H37.2701H38.7036V65.9756H40.1371H41.5707V64.5413H43.0042V63.1069H44.4378H45.8713V61.6737H47.3048H48.7384V60.2394H50.172V58.805H51.6055H53.038V57.3707H54.4715H55.9051V55.9364H57.3386H58.7721V54.5021H60.2057V53.0678H61.6393V51.6334V50.1991V48.7648V47.3305V45.8962V44.4618V43.0275V41.5932V40.1589V38.7245V37.2913V35.857V34.4226V32.9883V31.554V30.1197V28.6854V27.251V25.8167V24.3824V22.9481V21.5138V20.0794V18.6451V17.2108H60.2057Z" fill="#F8F4A0"/>
</svg>
