<svg width="79" height="79" viewBox="0 0 79 79" fill="none" xmlns="http://www.w3.org/2000/svg">
<path d="M76.6409 36.744V35.1467H75.0435V33.5484H73.4471H71.8507V31.9512H70.2533H68.6569V30.3539H67.0605H65.4631V28.7556H63.8667V27.1584H62.2714H60.674V25.5612H59.0776H57.4812V23.9629H55.8838V22.3656H54.2874V20.7684H52.691V19.1701V17.5728H51.0936V15.9767H49.4972V14.3784V12.7811H47.9008V11.1839V9.58557H46.3034V7.98833V6.39109H44.707V4.79279V3.19555H43.1096V1.59724H41.5132V0H39.9168H38.3194H36.7241V1.59724H35.1277V3.19555H33.5313V4.79279V6.39109H31.9339V7.98833V9.58557H30.3375V11.1839V12.7811H28.7401V14.3784V15.9767H27.1437V17.5728H25.5473V19.1701V20.7684H23.9499V22.3656H22.3535V23.9629H20.7571V25.5612H19.1597H17.5633V27.1584H15.9669V28.7556H14.3695H12.7731V30.3539H11.1768H9.58038V31.9512H7.984H6.38763V33.5484H4.79019H3.19382V35.1467H1.59744V36.744H0V38.3412V39.9395V41.5368H1.59744V43.1329H3.19382V44.7312H4.79019H6.38763V46.3285H7.984H9.58038V47.9257H11.1768H12.7731V49.524H14.3695H15.9669V51.1213H17.5633V52.7185H19.1597H20.7571V54.3168H22.3535V55.914H23.9499V57.5113H25.5473V59.1096V60.7068H27.1437V62.3041H28.7401V63.9024V65.4996H30.3375V67.0979V68.6952H31.9339V70.2913V71.8886H33.5313V73.4869H35.1277V75.0841V76.6824H36.7241V78.2797H38.3194H39.9168H41.5132V76.6824H43.1096V75.0841V73.4869H44.707V71.8886H46.3034V70.2913V68.6952H47.9008V67.0979V65.4996H49.4972V63.9024V62.3041H51.0936V60.7068H52.691V59.1096V57.5113H54.2874V55.914H55.8838V54.3168H57.4812V52.7185H59.0776V51.1213H60.674H62.2714V49.524H63.8667H65.4631V47.9257H67.0605H68.6569V46.3285H70.2533V44.7312H71.8507H73.4471V43.1329H75.0435H76.6409V41.5368H78.2373V39.9395V38.3412V36.744H76.6409Z" fill="#F9853A"/>
</svg>
