<svg width="1607" height="578" viewBox="0 0 1607 578" fill="none" xmlns="http://www.w3.org/2000/svg">
<path d="M116.4 203.6C69.1 203.6 34.4 168.3 34.4 117.7C34.4 67.1 69.1 31.8 116.4 31.8C163.7 31.8 179 52.5 188.7 78.8L217.9 63.2C202 26.9 166.3 0 116.4 0C66.5 0 0 51.2 0 117.7C0 184.2 47.7 235.4 116.4 235.4C185.1 235.4 207.8 204.6 222.1 162.5L192.3 147.6C182.3 182.9 151.1 203.7 116.4 203.7V203.6Z" fill="white"/>
<path d="M311.5 60.3C277.1 60.3 253.1 79.1 245.7 108.3L274.6 116.7C277.5 103.4 288.5 88.8 311.6 88.8C334.7 88.8 350.8 104.4 351.2 124.1L294.5 129.9C262.4 133.1 239.4 151.3 239.4 182.4C239.4 213.5 263.1 235.2 296.5 235.2C329.9 235.2 351 215.1 351 179.8V232.4H383.1V125.9C383.1 92.5 360.4 60.1 311.8 60.1L311.5 60.3ZM351.1 159.8C351.1 183.5 337.5 208.4 303.1 208.4C268.7 208.4 271.6 198.4 271.6 182.5C271.6 166.6 281.7 158.2 301.4 155.9L351 150.7V159.8H351.1Z" fill="white"/>
<path d="M415 62.9V299.3H447.4V173.8C451.9 212.1 478.5 235.4 511.9 235.4C545.3 235.4 584.9 198.8 584.9 147.9C584.9 97 553.8 60.4 511.9 60.4C470 60.4 451.9 88 447.4 124.9V63H415V62.9ZM498.7 89.8C528.8 89.8 551.9 112.2 551.9 147.8C551.9 183.4 528.9 205.8 499.4 205.8C469.9 205.8 446.2 184.7 446.2 147.8C446.2 110.9 467.6 89.8 498.7 89.8Z" fill="white"/>
<path d="M794.5 203.7H761C750.9 203.7 744.1 198.8 744.1 185.9L744.8 91.5H794.4V63H744.8L744.1 27H712.3L713 63H683.2V91.5H712.4L711.7 187.6C711.7 219 731.2 232.7 757.1 232.7H794.5V203.8V203.7Z" fill="white"/>
<path d="M931.2 179.9V232.5H963.3V126.1C963.3 92.7 940.6 60.3 892 60.3C843.4 60.3 833.6 79.1 826.2 108.3L855 116.7C857.9 103.4 868.9 88.8 892 88.8C915.1 88.8 931.2 104.4 931.6 124.1L874.9 129.9C842.8 133.1 819.8 151.3 819.8 182.4C819.8 213.5 843.5 235.2 876.9 235.2C910.3 235.2 931.4 215.1 931.4 179.8L931.2 179.9ZM852.1 182.5C852.1 167.3 862.1 158.2 881.9 155.9L931.5 150.7V159.8C931.5 183.5 917.9 208.4 883.5 208.4C849.1 208.4 852.1 198.4 852.1 182.5Z" fill="white"/>
<path d="M1002.9 12.6H1035.3V232.6H1002.9V12.6Z" fill="white"/>
<path d="M1147.5 235.4C1181.2 235.4 1206.8 219.8 1219.8 197.8L1195.8 182.2C1186.4 197.4 1168.9 206.8 1148.1 206.8C1127.3 206.8 1100.1 188.6 1095.9 159.5H1226.2C1226.8 155.6 1227.2 149.4 1227.2 143C1227.2 98.9 1198.4 60.3 1147.8 60.3C1097.2 60.3 1063.5 95 1063.5 146.9C1063.5 198.8 1098.2 235.4 1147.5 235.4ZM1147.5 88.5C1175.4 88.5 1195.5 108.6 1195.8 132.3H1096.3C1101.2 107 1119.3 88.5 1147.5 88.5Z" fill="white"/>
<path d="M166.3 503.9L68 271H3.4V509.1H36.5V276.2L133.6 509.1H199.1V271H166.3V503.9Z" fill="white"/>
<path d="M346.4 440C346.4 464.3 328.9 482.5 303.9 482.5C278.9 482.5 265.6 469.2 265.6 443.3V340.2H233.2V452.7C233.2 484.8 251.4 513.3 289.9 513.3C328.4 513.3 344.4 486.1 346.3 456.2V509H378.7V340H346.3V439.9L346.4 440Z" fill="white"/>
<path d="M608.9 338.2C579.7 338.2 558 359.3 556.7 395.6C552.8 353.5 527.2 338.2 500 338.2C472.8 338.2 447.5 361.5 447.5 395.6V340.1H415.1V509.1H447.5V411.8C447.5 386.8 463.4 369 485.8 369C508.2 369 524.4 384.2 524.4 407.9V509.1H556.8V411.8C556.8 384.6 573.7 369 595.4 369C617.1 369 633 384.2 633 408.2V509H665.4V398.8C665.4 366.4 646.3 338.2 609 338.2H608.9Z" fill="white"/>
<path d="M772.5 338.2C725.2 338.2 688.2 372.9 688.2 424.8C688.2 476.7 722.9 513.3 772.2 513.3C821.5 513.3 831.5 497.7 844.5 475.7L820.5 460.1C811.1 475.3 793.6 484.7 772.8 484.7C752 484.7 724.8 466.5 720.6 437.4H850.9C851.5 433.5 851.9 427.4 851.9 420.9C851.9 376.8 823.1 338.2 772.5 338.2ZM721 410.2C725.9 384.9 744 366.4 772.2 366.4C800.4 366.4 820.2 386.5 820.5 410.2H721Z" fill="white"/>
<path d="M919.4 406.4V340.2H887.3V509.2H919.7V423.3C919.7 396.4 935.6 373.4 969.3 373.4H980.3V338.7C944 338.7 920 364 919.4 406.5V406.4Z" fill="white"/>
<path d="M1002.9 271.6H1035.3V299.3H1002.9V271.6Z" fill="white"/>
<path d="M1003 340.1H1035.4V509.1H1003V340.1Z" fill="white"/>
<path d="M1201 402.8C1196.5 365.8 1175.7 338.3 1137.5 338.3C1099.3 338.3 1063.6 375.9 1063.6 425.8C1063.6 475.7 1094.7 513.3 1137.5 513.3C1180.3 513.3 1196.5 490 1201 451.7V577.2H1233.1V340.2H1201V402.8ZM1149.1 483.8C1119.3 483.8 1096.6 460.5 1096.6 425.8C1096.6 391.1 1119.3 367.8 1149.8 367.8C1180.3 367.8 1202.3 393.4 1202.3 425.8C1202.3 458.2 1178 483.8 1149.1 483.8Z" fill="white"/>
<path d="M1382.8 440C1382.8 464.3 1365.3 482.5 1340.3 482.5C1315.3 482.5 1302 469.2 1302 443.3V340.2H1269.6V452.7C1269.6 484.8 1287.8 513.3 1326.3 513.3C1364.8 513.3 1380.8 486.1 1382.7 456.2V509H1415.1V340H1382.7V439.9L1382.8 440Z" fill="white"/>
<path d="M1527.4 338.2C1480.1 338.2 1443.1 372.9 1443.1 424.8C1443.1 476.7 1477.8 513.3 1527.1 513.3C1576.4 513.3 1586.4 497.7 1599.4 475.7L1575.4 460.1C1566 475.3 1548.5 484.7 1527.7 484.7C1506.9 484.7 1479.7 466.5 1475.5 437.4H1605.8C1606.4 433.5 1606.8 427.4 1606.8 420.9C1606.8 376.8 1577.9 338.2 1527.4 338.2ZM1475.9 410.2C1480.8 384.9 1498.9 366.4 1527.1 366.4C1555.3 366.4 1575.1 386.5 1575.4 410.2H1475.9Z" fill="white"/>
<path d="M616.7 12.6H649.1V40.3H616.7V12.6Z" fill="white"/>
<path d="M616.7 62.9H649.1V232.4H616.7V62.9Z" fill="white"/>
<path d="M772.7 271.6H805.5L780.5 321.9H755.8L772.7 271.6Z" fill="white"/>
</svg>
