<svg width="1530" height="331" viewBox="0 0 1530 331" fill="none" xmlns="http://www.w3.org/2000/svg">
<g clip-path="url(#clip0_359_67)">
<path d="M386.364 243.623V124.023H385.468C381.245 127.927 365.501 128.257 358.826 128.257H347.28V129.236C360.642 137.421 358.779 149.521 358.779 164.617L358.826 215.223C358.826 240.545 333.953 258.306 313.904 258.306C287.557 258.306 276.565 239.542 276.565 209.303V124.023H275.681C271.411 127.927 255.596 128.257 248.945 128.257H237.481V129.236C250.843 137.421 248.992 149.521 248.992 164.617V215.058C248.992 261.219 269.017 283.155 304.847 283.155C326.052 283.155 347.87 275.642 358.826 257.634V279.464H397.875V278.461C384.584 270.937 386.364 258.754 386.364 243.623ZM446.98 179.684C450.636 159.14 465.803 146.072 486.135 146.072C508.036 146.072 521.999 156.852 525.337 179.684H446.98ZM557.192 198.743C558.407 156.522 530.149 124.679 488.883 124.679C443.642 124.679 413.002 157.524 413.002 203.036C413.002 248.89 448.501 283.799 500.099 283.799C514.392 283.799 528.934 281.535 542.037 275.732L557.192 244.939H556.295C542.296 256.803 524.712 262.429 506.514 262.429C472.218 262.429 446.39 238.983 445.753 198.743H557.192ZM581.258 54.537C588.558 54.537 603.395 54.0888 607.853 49.678H608.749V256.822C616.946 259.086 625.354 260.714 633.799 260.714C666.986 260.714 685.986 237.539 685.986 205.189C685.986 173.464 671.22 149.004 640.722 149.004C631.086 149.004 623.55 151.622 615.424 156.187L631.688 128.295C638.61 125.641 645.84 124.674 653.105 124.674C687.495 124.674 716.767 154.512 716.767 199.304C716.767 250.619 682.058 283.747 627.159 283.747C606.65 283.747 586.954 280.126 572.106 277.85V276.859C582.131 272.236 581.199 261.386 581.199 250.619V100.025C581.199 84.9175 583.039 63.7596 569.995 55.5158V54.537H581.258ZM770.658 179.684C774.291 159.14 789.481 146.072 809.825 146.072C831.679 146.072 845.619 156.852 848.956 179.684H770.658ZM880.823 198.743C882.05 156.522 853.839 124.679 812.526 124.679C767.321 124.679 736.657 157.524 736.657 203.036C736.657 248.89 772.144 283.799 823.777 283.799C838.047 283.799 852.613 281.535 865.668 275.732L880.823 244.939H879.915C865.975 256.803 848.344 262.429 830.146 262.429C795.826 262.429 770.022 238.983 769.432 198.743H880.823ZM1016.61 162.201H1015.71C1006.92 151.339 992.338 146.068 978.669 146.068C949.197 146.068 928.004 168.44 928.004 199.635C928.004 237.421 957.429 262.424 991.112 262.424C1006.62 262.424 1023.59 255.855 1035.47 246.29H1036.35L1020.56 277.343C1007.81 282.52 993.835 283.806 980.461 283.806C933.723 283.806 897.198 250.913 897.198 208.209C897.198 151.693 937.992 124.674 983.811 124.674C994.744 124.674 1005.97 125.971 1016.61 128.566L1016.61 162.201ZM519.325 97.5579V64.7125C499.405 73.6168 480.948 90.2812 468.624 106.521V119.329C498.167 99.4095 519.325 98.466 519.325 97.5579Z" fill="white"/>
<path d="M112.535 261.216C66.6927 261.216 34.8027 209.525 34.8027 165.558V160.64C35.3801 118.065 62.9424 78.1432 111.013 78.1432C161.644 78.1432 187.708 126.014 188.144 171.337V176.078C188.144 224.408 158.094 261.216 112.535 261.216ZM269.662 311.493C235.802 317.048 203.287 306.374 168.696 266.818C202.108 250.06 222.782 208.298 222.782 169.509V164.673C222.133 98.2986 172.293 54.4851 112.865 54.4851C53.2951 54.4851 0.659972 100.115 0.200012 167.009V171.502C0.200012 236.591 48.5069 284.874 107.676 284.874C116.167 284.874 124.376 283.577 132.584 281.596C171.35 317.932 205.929 333.382 235.767 329.797C249.955 328.122 264.909 322.449 273.907 310.773L269.662 311.493Z" fill="white"/>
<path d="M1108.09 112.947H1292.05V0.199951H1108.09V112.947ZM1244.94 65.0652C1242.71 72.0706 1238.8 74.4175 1237.69 74.4175C1237.69 74.4175 1239.5 66.7281 1233.94 62.7772C1228.71 59.0858 1222.23 61.3266 1219.24 65.7256C1216.42 69.9477 1215.97 75.6795 1215.97 75.6795H1225.56V82.7675H1206.29C1206.29 82.7675 1206.77 92.7685 1217.33 91.7896C1217.33 91.7896 1216.05 99.6914 1206.29 95.5518C1206.29 95.5518 1206.77 103.855 1200.07 107.971C1193.37 103.855 1193.89 95.5518 1193.89 95.5518C1184.13 99.6914 1182.81 91.7896 1182.81 91.7896C1193.37 92.7685 1193.89 82.7675 1193.89 82.7675H1174.62V75.6795H1184.2C1184.2 75.6795 1183.76 69.9477 1180.92 65.7256C1177.91 61.3266 1171.45 59.0858 1166.24 62.7772C1160.67 66.7281 1162.49 74.4175 1162.49 74.4175C1161.41 74.4175 1157.47 72.0706 1155.25 65.0652C1151.07 51.7501 1164.22 38.9304 1177.56 46.3368C1186.95 51.526 1190.83 63.2607 1190.83 75.6795H1195.95C1195.78 76.623 1197.12 66.3978 1195.12 58.7673C1193.67 53.5309 1191.82 47.9997 1188.62 41.3363C1185.81 35.5456 1184.8 25.7922 1190.7 18.4566C1195.73 12.1116 1198.72 8.58525 1200.07 6.0732C1201.43 8.58525 1204.44 12.1116 1209.52 18.4566C1215.38 25.7922 1214.34 35.5456 1211.54 41.3363C1208.36 47.9997 1206.51 53.5309 1205.09 58.7673C1203.06 66.3978 1204.4 76.623 1204.25 75.6795H1209.33C1209.33 63.2607 1213.23 51.526 1222.59 46.3368C1235.93 38.9304 1249.09 51.7501 1244.94 65.0652ZM1345.63 112.947H1529.67V0.199951H1345.63V112.947ZM1482.46 65.0652C1480.24 72.0706 1476.33 74.4175 1475.23 74.4175C1475.23 74.4175 1477.01 66.7281 1471.5 62.7772C1466.23 59.0858 1459.78 61.3266 1456.75 65.7256C1453.97 69.9477 1453.51 75.6795 1453.51 75.6795H1463.12V82.7675H1443.81C1443.81 82.7675 1444.3 92.7685 1454.91 91.7896C1454.91 91.7896 1453.61 99.6914 1443.81 95.5518C1443.81 95.5518 1444.3 103.855 1437.62 107.971C1430.91 103.855 1431.42 95.5518 1431.42 95.5518C1421.65 99.6914 1420.36 91.7896 1420.36 91.7896C1430.91 92.7685 1431.42 82.7675 1431.42 82.7675H1412.19V75.6795H1421.77C1421.77 75.6795 1421.32 69.9477 1418.44 65.7256C1415.45 61.3266 1408.97 59.0858 1403.8 62.7772C1398.19 66.7281 1400.05 74.4175 1400.05 74.4175C1398.94 74.4175 1395 72.0706 1392.82 65.0652C1388.59 51.7501 1401.76 38.9304 1415.11 46.3368C1424.51 51.526 1428.35 63.2607 1428.35 75.6795H1433.48C1433.35 76.623 1434.65 66.3978 1432.64 58.7673C1431.19 53.5309 1429.35 47.9997 1426.15 41.3363C1423.34 35.5456 1422.32 25.7922 1428.22 18.4566C1433.27 12.1116 1436.26 8.58525 1437.62 6.0732C1438.93 8.58525 1442.03 12.1116 1447.04 18.4566C1452.87 25.7922 1451.87 35.5456 1449.07 41.3363C1445.94 47.9997 1444.04 53.5309 1442.61 58.7673C1440.58 66.3978 1441.94 76.623 1441.81 75.6795H1446.89C1446.89 63.2607 1450.76 51.526 1460.09 46.3368C1473.44 38.9304 1486.6 51.7501 1482.46 65.0652ZM1108.09 279.344H1292.05V166.656H1108.09V279.344ZM1244.94 231.486C1242.71 238.479 1238.8 240.814 1237.69 240.814C1237.69 240.814 1239.5 233.16 1233.94 229.233C1228.71 225.565 1222.23 227.794 1219.24 232.134C1216.42 236.368 1215.97 242.1 1215.97 242.1H1225.56V249.188H1206.29C1206.29 249.188 1206.77 259.189 1217.33 258.245C1217.33 258.245 1216.05 266.112 1206.29 261.972C1206.29 261.972 1206.77 270.24 1200.07 274.391C1193.37 270.24 1193.89 261.972 1193.89 261.972C1184.13 266.112 1182.81 258.245 1182.81 258.245C1193.37 259.189 1193.89 249.188 1193.89 249.188H1174.62V242.1H1184.2C1184.2 242.1 1183.76 236.368 1180.92 232.134C1177.91 227.794 1171.45 225.565 1166.24 229.233C1160.67 233.16 1162.49 240.814 1162.49 240.814C1161.41 240.814 1157.47 238.479 1155.25 231.486C1151.07 218.182 1164.22 205.351 1177.56 212.757C1186.95 217.958 1190.83 229.681 1190.83 242.1H1195.95C1195.78 243.043 1197.12 232.818 1195.12 225.235C1193.67 219.963 1191.82 214.432 1188.62 207.769C1185.81 201.978 1184.8 192.213 1190.7 184.924C1195.73 178.567 1198.72 175.006 1200.07 172.553C1201.43 175.006 1204.44 178.567 1209.52 184.924C1215.38 192.213 1214.34 201.978 1211.54 207.769C1208.36 214.432 1206.51 219.963 1205.09 225.235C1203.06 232.818 1204.4 243.043 1204.25 242.1H1209.33C1209.33 229.681 1213.23 217.958 1222.59 212.757C1235.93 205.351 1249.09 218.182 1244.94 231.486ZM1345.63 279.344H1529.67V166.656H1345.63V279.344ZM1482.46 231.486C1480.24 238.479 1476.33 240.814 1475.23 240.814C1475.23 240.814 1477.01 233.16 1471.5 229.233C1466.23 225.565 1459.78 227.794 1456.75 232.134C1453.97 236.368 1453.51 242.1 1453.51 242.1H1463.12V249.188H1443.81C1443.81 249.188 1444.3 259.189 1454.91 258.245C1454.91 258.245 1453.61 266.112 1443.81 261.972C1443.81 261.972 1444.3 270.24 1437.62 274.391C1430.91 270.24 1431.42 261.972 1431.42 261.972C1421.65 266.112 1420.36 258.245 1420.36 258.245C1430.91 259.189 1431.42 249.188 1431.42 249.188H1412.19V242.1H1421.77C1421.77 242.1 1421.32 236.368 1418.44 232.134C1415.45 227.794 1408.97 225.565 1403.8 229.233C1398.19 233.16 1400.05 240.814 1400.05 240.814C1398.94 240.814 1395 238.479 1392.82 231.486C1388.59 218.182 1401.76 205.351 1415.11 212.757C1424.51 217.958 1428.35 229.681 1428.35 242.1H1433.48C1433.35 243.043 1434.65 232.818 1432.64 225.235C1431.19 219.963 1429.35 214.432 1426.15 207.769C1423.34 201.978 1422.32 192.213 1428.22 184.924C1433.27 178.567 1436.26 175.006 1437.62 172.553C1438.93 175.006 1442.03 178.567 1447.04 184.924C1452.87 192.213 1451.87 201.978 1449.07 207.769C1445.94 214.432 1444.04 219.963 1442.61 225.235C1440.58 232.818 1441.94 243.043 1441.81 242.1H1446.89C1446.89 229.681 1450.76 217.958 1460.09 212.757C1473.44 205.351 1486.6 218.182 1482.46 231.486Z" fill="white"/>
</g>
<defs>
<clipPath id="clip0_359_67">
<rect width="1529.87" height="330.501" fill="white"/>
</clipPath>
</defs>
</svg>
