<svg width="305" height="343" viewBox="0 0 305 343" fill="none" xmlns="http://www.w3.org/2000/svg">
<path d="M297.075 83.9986V76.9983H290.002V70.0032H282.928H275.854V63.0029H268.781H261.707V56.0025H254.639H247.565V49.0022H240.492V42.0019H233.418H226.345V35.0016H219.271H212.197V28.0013H205.124H198.05V21.001H190.977V14.0006H183.903H176.829V7.00032H169.756H162.682V0H155.609H148.535H141.467V7.00032H134.393H127.32V14.0006H120.246H113.172V21.001H106.099H99.0251V28.0013H91.9515H84.8779V35.0016H77.8044V42.0019H70.7308H63.6571V49.0022H56.5835H49.5099V56.0025H42.4363H35.3628V63.0029H28.2892V70.0032H21.2209H14.1473V76.9983H7.07358V83.9986V90.9989H0V97.9993V105V112V119V126.001V133.001V140.001V147.001V154.002V161.002V168.002V175.003V182.003V188.998V195.999V202.999V209.999V216.999V224V231V238V245.001V252.001V259.001H7.07358V266.002H14.1473V273.002H21.2209H28.2892V280.002H35.3628H42.4363V287.003H49.5099V294.003H56.5835H63.6571V301.003H70.7308H77.8044V307.998H84.8779H91.9515V314.999H99.0251V321.999H106.099H113.172V328.999H120.246H127.32V336H134.393H141.467V343H148.535H155.609H162.682V336H169.756H176.829V328.999H183.903H190.977V321.999H198.05H205.124V314.999H212.197V307.998H219.271H226.345V301.003H233.418H240.492V294.003H247.565V287.003H254.639H261.707V280.002H268.781H275.854V273.002H282.928H290.002V266.002H297.075V259.001H304.149V252.001V245.001V238V231V224V216.999V209.999V202.999V195.999V188.998V182.003V175.003V168.002V161.002V154.002V147.001V140.001V133.001V126.001V119V112V105V97.9993V90.9989V83.9986H297.075Z" fill="#D9D9D9"/>
</svg>
