<svg class="overlay" viewBox="0 0 320 400" xmlns="http://www.w3.org/2000/svg">
    <path fill-rule="evenodd" d="M0,0 H320 V400 H0 Z M 233.014 154.277 V 150.691 H 229.430 V 147.108 H 225.846 H 222.263 V 143.522 H 218.679 H 215.095 V 139.936 H 211.514 H 207.930 V 136.351 H 204.346 V 132.765 H 200.762 H 197.178 V 129.179 H 193.595 H 190.010 V 125.593 H 186.427 H 182.843 V 122.007 H 179.259 V 118.422 H 175.675 H 172.091 V 114.836 H 168.507 H 164.923 V 111.250 H 161.340 H 157.756 H 154.174 V 114.836 H 150.591 H 147.007 V 118.422 H 143.423 H 139.839 V 122.007 H 136.255 H 132.672 V 125.593 H 129.088 H 125.504 V 129.179 H 121.920 V 132.765 H 118.336 H 114.752 V 136.351 H 111.168 H 107.584 V 139.936 H 104.001 H 100.417 V 143.522 H 96.833 V 147.108 H 93.252 H 89.668 V 150.691 H 86.084 V 154.277 V 157.863 H 82.500 V 161.448 V 165.035 V 168.620 V 172.206 V 175.792 V 179.377 V 182.964 V 186.549 V 190.135 V 193.721 V 197.306 V 200.892 V 204.478 V 208.061 V 211.647 V 215.233 V 218.819 V 222.404 V 225.990 V 229.576 V 233.162 V 236.748 V 240.334 V 243.919 H 86.084 V 247.505 H 89.668 V 251.091 H 93.252 H 96.833 V 254.677 H 100.417 H 104.001 V 258.262 H 107.584 V 261.849 H 111.168 H 114.752 V 265.434 H 118.336 H 121.920 V 269.017 H 125.504 H 129.088 V 272.603 H 132.672 V 276.189 H 136.255 H 139.839 V 279.775 H 143.423 H 147.007 V 283.361 H 150.591 H 154.174 V 286.946 H 157.756 H 161.340 H 164.923 V 283.361 H 168.507 H 172.091 V 279.775 H 175.675 H 179.259 V 276.189 H 182.843 H 186.427 V 272.603 H 190.010 V 269.017 H 193.595 H 197.178 V 265.434 H 200.762 H 204.346 V 261.849 H 207.930 V 258.262 H 211.514 H 215.095 V 254.677 H 218.679 H 222.263 V 251.091 H 225.846 H 229.430 V 247.505 H 233.014 V 243.919 H 236.598 V 240.334 V 236.748 V 233.162 V 229.576 V 225.990 V 222.404 V 218.819 V 215.233 V 211.647 V 208.061 V 204.478 V 200.892 V 197.306 V 193.721 V 190.135 V 186.549 V 182.964 V 179.377 V 175.792 V 172.206 V 168.620 V 165.035 V 161.448 V 157.863 V 154.277 H 233.014 Z"/>
  </svg>