<svg width="520" height="514" viewBox="0 0 520 514" fill="none" xmlns="http://www.w3.org/2000/svg">
<path d="M509.389 241.268V230.779H498.773V220.291H488.162H477.546V209.798H466.936H456.325V199.309H445.709H435.098V188.821H424.487V178.327H413.882H403.266V167.839H392.655H382.039V157.345H371.429V146.857H360.818V136.369H350.202V125.875V115.387H339.591V104.904H328.98V94.4161V83.9223H318.364V73.4341V62.9404H307.753V52.4521V41.9639H297.137V31.4702V20.982H286.527V10.4937H275.916V0H265.3H254.689H244.084V10.4937H233.473V20.982H222.857V31.4702V41.9639H212.246V52.4521V62.9404H201.63V73.4341V83.9223H191.02V94.4161V104.904H180.409V115.387H169.793V125.875V136.369H159.182V146.857H148.571V157.345H137.955V167.839H127.345H116.728V178.327H106.118V188.821H95.507H84.8908V199.309H74.2801H63.6751V209.798H53.0644H42.4482V220.291H31.8375H21.2213V230.779H10.6107V241.268H0V251.761V262.25V272.743H10.6107V283.226H21.2213V293.714H31.8375H42.4482V304.203H53.0644H63.6751V314.696H74.2801H84.8908V325.184H95.507H106.118V335.673H116.728V346.166H127.345H137.955V356.655H148.571V367.148H159.182V377.637H169.793V388.125V398.619H180.409V409.107H191.02V419.595V430.089H201.63V440.577V451.071H212.246V461.553V472.042H222.857V482.53H233.473V493.024V503.512H244.084V514H254.689H265.3H275.916V503.512H286.527V493.024V482.53H297.137V472.042H307.753V461.553V451.071H318.364V440.577V430.089H328.98V419.595V409.107H339.591V398.619H350.202V388.125V377.637H360.818V367.148H371.429V356.655H382.039V346.166H392.655V335.673H403.266H413.882V325.184H424.487H435.098V314.696H445.709H456.325V304.203H466.936V293.714H477.546H488.162V283.226H498.773H509.389V272.743H520V262.25V251.761V241.268H509.389Z" fill="black"/>
</svg>
