<svg width="379" height="477" viewBox="0 0 379 477" fill="none" xmlns="http://www.w3.org/2000/svg">
<path d="M379 476.5H0V0H379V476.5ZM179.496 67.6973H172.303V74.9004H165.108V89.3008H157.91V103.695H150.717V118.096H143.518V132.496H136.324V139.688H129.13V154.089H121.932V161.287H114.738V168.484H107.544V175.688H93.1514V182.885H85.958V190.082H71.5654V197.284H57.1777V204.482H42.79V211.68H28.3984V218.883H21.2041V226.08H14.0059V247.679H21.2041V254.871H28.3984V262.073H42.79V269.271H57.1777V276.469H71.5654V283.672H85.958V290.869H93.1514V298.067H107.544V305.27H114.738V312.467H121.932V319.665H129.13V334.064H136.324V341.263H143.518V355.663H150.717V370.063H157.91V384.454H165.108V391.656H172.303V406.056H179.496V413.254H201.078V406.056H208.271V391.656H215.47V384.454H222.664V370.063H229.862V355.663H237.057V341.263H244.25V334.064H251.448V319.665H258.643V312.467H265.837V305.27H273.035V298.067H280.229V290.869H294.621V283.672H309.004V276.469H323.396V269.271H330.59V262.073H344.982V254.871H359.375V247.679H366.568V226.08H359.375V218.883H352.177V211.68H337.788V204.482H323.396V197.284H309.004V190.082H301.81V182.885H287.423V175.688H273.035V168.484H265.837V161.287H258.643V154.089H251.448V139.688H244.25V132.496H237.057V118.096H229.862V103.695H222.664V89.3008H215.47V74.9004H208.271V67.6973H201.078V60.5H179.496V67.6973Z" fill="black"/>
</svg>
